<?xml version="1.0" encoding="utf-8"?>
<!-- Generator: Adobe Illustrator 24.0.3, SVG Export Plug-In . SVG Version: 6.00 Build 0)  -->
<svg version="1.1" id="Layer_1" xmlns="http://www.w3.org/2000/svg" xmlns:xlink="http://www.w3.org/1999/xlink" x="0px" y="0px"
	 viewBox="0 0 275 400" style="enable-background:new 0 0 275 400;" xml:space="preserve">
<style type="text/css">
	.st0{fill:none;}
	.st1{fill:#306421;}
</style>
<title>sloth-card</title>
<g>
	<path class="st0" d="M48.1,116.6c0-3.6-1-7.2-2.6-10.4c-20.9-2.9-25,1.7-26,6.4c-0.5,2-0.1,4.2,1.1,6c2.3,3.6,9,8.9,27.8,12.7
		C48.2,126.5,48.1,121.6,48.1,116.6z M32,120.9c-2.9,0-5.2-2.3-5.2-5.2c0-2.9,2.3-5.2,5.2-5.2c2.9,0,5.2,2.3,5.2,5.2
		C37.2,118.6,34.9,120.9,32,120.9z"/>
	<path class="st0" d="M36.1,100.8c1.9,0.1,4,0.2,6.1,0.5C35,92.7,21.9,86.8,7.1,86.8c-2.6,0-5.1,0.2-7.6,0.5v4.1
		c2.4-0.3,5-0.5,7.6-0.5C19.3,91,29.4,94.4,36.1,100.8z"/>
	<path class="st0" d="M36.1,194.8c1.9,0.1,4,0.2,6.1,0.5c-7.2-8.6-20.3-14.5-35.1-14.5c-2.6,0-5.1,0.2-7.6,0.5v4.1
		c2.4-0.3,5-0.5,7.6-0.5C19.3,184.9,29.4,188.3,36.1,194.8z"/>
	<path class="st0" d="M245.6,195c8,0.8,12.5,4.2,13.9,10.3c0.8,3.2,0.2,6.7-1.6,9.5c-3.1,5-10.4,9.4-21.7,12.6
		c4.4,10.8,15.8,16.9,31.5,16.9c2.7,0,5.3-0.2,7.7-0.6v-5.1c-2.6,0.3-5.3,0.5-7.8,0.5c-5.3,0.1-10.4-0.6-15.4-2.2
		c-6.7-2.3-8.2-5.8-8.2-8.3h4.6c0,2.9,7.4,6,18.8,6c2.9,0,5.6-0.2,8-0.6v-6.4c-2.5,1.4-5.6,2-7.7,2c-4.1,0-12-2.5-12-8
		c0-6.5,8.2-6.5,12-6.5c2,0,5.2,0,7.7,0.9v-5.8c-0.2-1.3-0.2-2.6,0-3.9v-16.5c-2.5-0.4-5.1-0.6-7.8-0.6
		C258.8,189.4,251.3,191.3,245.6,195z"/>
	<path class="st0" d="M232.7,289.2c2.2-0.2,4.2-0.4,6.1-0.5c6.7-6.6,16.8-10,29-10c2.7,0,5.3,0.2,7.7,0.5v-4
		c-2.5-0.4-5.1-0.5-7.7-0.5C253,274.7,239.9,280.5,232.7,289.2z"/>
	<path class="st0" d="M226.8,304.6c0,5-0.1,9.8-0.2,14.5c18.7-4,25.4-9.1,27.7-12.7c1.2-1.8,1.6-4,1-6c-1.2-4.7-5.2-9-25.8-6.2
		C227.6,297.4,226.8,301,226.8,304.6z M243,298c2.8,0.1,5,2.4,5.2,5.2c0,2.9-2.3,5.2-5.2,5.2c-2.9,0-5.2-2.3-5.2-5.2
		C237.8,300.3,240.1,298,243,298z"/>
	<path class="st0" d="M232.7,195.2c2.2-0.2,4.2-0.4,6.1-0.5c6.7-6.5,16.8-9.8,29-9.8c2.7,0,5.3,0.2,7.7,0.5v-4.1
		c-2.5-0.4-5.1-0.5-7.7-0.5C253,180.7,239.9,186.6,232.7,195.2z"/>
	<path class="st0" d="M226.8,210.7c0,5-0.1,9.8-0.2,14.5c18.7-4,25.4-9.1,27.7-12.7c1.2-1.8,1.6-4,1-6c-1.2-4.7-5.2-9.1-25.8-6.2
		C227.6,203.5,226.8,207.1,226.8,210.7z M243,204.1c2.8,0.1,5,2.4,5.2,5.2c0,2.9-2.3,5.2-5.2,5.2c-2.9,0-5.2-2.3-5.2-5.2
		C237.8,206.4,240.1,204.1,243,204.1z"/>
	<path class="st0" d="M38.5,133.5c-11.4-3.2-18.7-7.6-22-12.6c-1.8-2.8-2.4-6.2-1.6-9.5c1.4-6.1,5.9-9.5,14-10.4
		c-5.6-3.7-13.2-5.6-22.1-5.6c-2.6,0-5.1,0.2-7.5,0.5v26.4c2.5-0.9,5.6-0.9,7.6-0.9c3.8,0,12,0,11.9,6.5c0,5.6-7.9,8-11.9,8
		c-2,0-5.1-0.7-7.6-2v6.5c2.2,0.3,4.7,0.5,7.5,0.5c11.4,0,19.1-3.1,19.1-6h4.6c0,7.8-12.7,10.4-23.5,10.4c-2.6,0.1-5.1-0.1-7.6-0.4
		v4.9c2.4,0.3,4.9,0.5,7.6,0.5C22.9,150.4,34.2,144.3,38.5,133.5z"/>
	<path class="st0" d="M123.9,97.5c1.2-1.8,1.6-4,1-6c-1.1-4.7-5.2-9.1-25.8-6.2c-1.7,3.2-2.5,6.8-2.5,10.4c0,5-0.1,9.8-0.4,14.5
		C114.9,106.2,121.6,101.1,123.9,97.5z M112.7,99.4c-2.9,0-5.2-2.3-5.2-5.2c0-2.9,2.3-5.2,5.2-5.2c2.8,0.1,5,2.4,5.2,5.2
		C117.9,97.1,115.6,99.4,112.7,99.4z"/>
	<path class="st0" d="M149.9,279.3c-0.6,2-0.2,4.2,1,6c2.2,3.6,9,8.8,27.8,12.8c-0.1-4.7-0.2-9.6-0.2-14.6c0-3.6-0.8-7.2-2.5-10.4
		C155.1,270.1,151,274.7,149.9,279.3z M167.4,282.5c0,2.9-2.3,5.2-5.2,5.2c-2.9,0-5.2-2.3-5.2-5.2c0-2.9,2.3-5.2,5.2-5.2
		C165.1,277.3,167.4,279.7,167.4,282.5z"/>
	<path class="st0" d="M245.6,382.9c8,0.8,12.5,4.2,13.9,10.3c0.6,2.3,0.5,4.7-0.3,6.8h16.3v-1.8c-0.2-1.3-0.2-2.6,0-3.9v-16.5
		c-2.5-0.4-5.1-0.6-7.8-0.6C258.8,377.2,251.3,379.1,245.6,382.9z"/>
	<path class="st0" d="M232.7,383.1c2.2-0.2,4.2-0.4,6.1-0.5c6.7-6.6,16.8-10,29-10c2.7,0,5.3,0.2,7.7,0.5v-4
		c-2.5-0.4-5.1-0.5-7.7-0.5C253,368.6,239.9,374.5,232.7,383.1z"/>
	<path class="st0" d="M245.6,288.9c8,0.8,12.5,4.2,13.9,10.3c0.8,3.2,0.2,6.7-1.6,9.5c-3.1,5-10.4,9.4-21.7,12.6
		c4.4,10.8,15.8,16.9,31.5,16.9c2.7,0,5.3-0.2,7.7-0.5v-5.1c-2.6,0.3-5.3,0.5-7.8,0.5c-5.3,0.1-10.4-0.6-15.4-2.2
		c-6.7-2.3-8.2-5.8-8.2-8.3h4.6c0,2.9,7.4,6,18.8,6c2.9,0,5.6-0.2,8-0.6v-6.4c-2.5,1.4-5.6,2-7.7,2c-4.1,0-12-2.5-12-8
		c0-6.5,8.2-6.5,12-6.5c2,0,5.2,0,7.7,0.9v-5.8c-0.2-1.3-0.2-2.6,0-3.9v-16.5c-2.5-0.4-5.1-0.6-7.8-0.6
		C258.8,283.3,251.3,285.2,245.6,288.9z"/>
	<path class="st0" d="M38.5,321.4c-11.4-3.2-18.7-7.6-22-12.6c-1.8-2.8-2.4-6.2-1.6-9.5c1.4-6.1,5.9-9.5,14-10.4
		c-5.6-3.7-13.2-5.6-22.1-5.6c-2.6,0-5.1,0.2-7.5,0.5v26.3c2.5-0.9,5.6-0.9,7.6-0.9c3.8,0,12,0,11.9,6.5c0,5.6-7.9,8-11.9,8
		c-2,0-5.1-0.7-7.6-2v6.5c2.2,0.3,4.7,0.5,7.5,0.5c11.4,0,19.1-3.1,19.1-6h4.6c0,7.8-12.7,10.4-23.5,10.4c-2.6,0.1-5.1-0.1-7.6-0.4
		v5c2.4,0.3,4.9,0.5,7.6,0.5C22.9,338.2,34.2,332.2,38.5,321.4z"/>
	<path class="st0" d="M146.9,287.7c-1.8-2.8-2.4-6.2-1.6-9.5c1.4-6.1,5.9-9.5,14-10.4c-5.6-3.7-13.2-5.6-22.1-5.6
		s-16.4,1.9-22.1,5.6c8,0.8,12.5,4.2,13.9,10.3c0.8,3.2,0.2,6.7-1.6,9.5c-3.1,5-10.4,9.4-21.7,12.6c4.4,10.8,15.8,16.9,31.5,16.9
		c15.7,0,27-6,31.4-16.8C157.5,297.1,150.2,292.8,146.9,287.7z M156.3,301.5h4.6c0,7.7-12.7,10.4-23.5,10.4
		c-5.3,0.1-10.4-0.6-15.4-2.2c-6.7-2.3-8.2-5.8-8.2-8.3h4.6c0,2.9,7.4,6,18.8,6C148.6,307.5,156.3,304.4,156.3,301.5z M137.4,302.6
		c-4,0-11.9-2.5-11.9-8c0-6.5,8-6.5,11.9-6.5c3.8,0,11.9,0,11.9,6.5C149.3,300.2,141.4,302.6,137.4,302.6z"/>
	<path class="st0" d="M137.4,163.7c12.2,0,22.3,3.5,29,10c1.9,0.1,4,0.2,6.1,0.5c-7.2-8.6-20.3-14.5-35.1-14.5
		c-14.9,0-27.9,5.9-35.1,14.5c2.2-0.2,4.2-0.4,6.1-0.5C115.1,167.1,125.2,163.7,137.4,163.7z"/>
	<path class="st0" d="M123.9,191.4c1.2-1.8,1.6-4,1-6c-1.1-4.7-5.2-9.1-25.8-6.2c-1.7,3.2-2.5,6.8-2.5,10.4c0,5-0.1,9.8-0.4,14.5
		C114.9,200.2,121.6,195,123.9,191.4z M112.7,193.3c-2.9,0-5.2-2.3-5.2-5.2c0-2.9,2.3-5.2,5.2-5.2c2.8,0.1,5,2.4,5.2,5.2
		C117.9,191.1,115.6,193.3,112.7,193.3z"/>
	<path class="st0" d="M149.9,185.4c-0.6,2-0.2,4.2,1,6c2.2,3.6,9,8.8,27.8,12.8c-0.1-4.6-0.2-9.6-0.2-14.6c0-3.6-0.8-7.2-2.5-10.4
		C155.1,176.2,151,180.7,149.9,185.4z M167.4,188.5c0,2.9-2.3,5.2-5.2,5.2c-2.9,0-5.2-2.3-5.2-5.2c0-2.9,2.3-5.2,5.2-5.2
		C165.1,183.4,167.4,185.7,167.4,188.5z"/>
	<path class="st0" d="M38.5,227.6c-11.4-3.2-18.7-7.6-22-12.6c-1.8-2.8-2.4-6.2-1.6-9.5c1.4-6.1,5.9-9.5,14-10.4
		c-5.6-3.7-13.2-5.6-22.1-5.6c-2.6,0-5.1,0.2-7.5,0.5v26.2c2.5-0.9,5.6-0.9,7.6-0.9c3.8,0,12,0,11.9,6.5c0,5.6-7.9,8-11.9,8
		c-2,0-5.1-0.7-7.6-2v6.5c2.2,0.3,4.7,0.5,7.5,0.5c11.4,0,19.1-3.1,19.1-6h4.6c0,7.8-12.7,10.4-23.5,10.4c-2.6,0.1-5.1-0.1-7.6-0.4
		v5c2.4,0.3,4.9,0.5,7.6,0.5C22.9,244.3,34.2,238.2,38.5,227.6z"/>
	<path class="st0" d="M245.6,101.1c8,0.8,12.5,4.2,13.9,10.3c0.8,3.2,0.2,6.7-1.6,9.5c-3.1,5-10.4,9.4-21.7,12.6
		c4.4,10.8,15.8,16.9,31.5,16.9c2.7,0,5.3-0.2,7.7-0.6v-5.1c-2.6,0.3-5.3,0.5-7.8,0.5c-5.3,0.1-10.4-0.6-15.4-2.2
		c-6.7-2.4-8.2-5.9-8.2-8.4h4.6c0,3,7.4,6.1,18.8,6.1c2.9,0,5.6-0.2,8-0.6v-6.4c-2.5,1.4-5.6,2-7.7,2c-4.1,0-12-2.5-12-8
		c0-6.5,8.2-6.5,12-6.5c2,0,5.2,0,7.7,0.9v-5.8c-0.2-1.3-0.2-2.6,0-3.9V96c-2.5-0.4-5.1-0.6-7.8-0.6
		C258.8,95.4,251.3,97.4,245.6,101.1z"/>
	<path class="st0" d="M42.2,7.4c-2.3-2.8-5.3-5.3-8.7-7.4h-8.6c4.3,1.7,8.1,4,11.1,6.9C38,7,40,7.2,42.2,7.4z"/>
	<path class="st0" d="M96.2,16.3c18.7-4,25.4-9.1,27.7-12.7c0.7-1.1,1.1-2.3,1.2-3.6h-7.3c0,0.1,0,0.2,0,0.3c0,2.9-2.3,5.2-5.2,5.2
		c-2.9,0-5.2-2.3-5.2-5.2c0-0.1,0-0.2,0-0.3h-11c0,0.6-0.1,1.2-0.1,1.8C96.5,6.8,96.4,11.6,96.2,16.3z"/>
	<path class="st0" d="M105.9,18.4c4.4,10.8,15.8,16.9,31.5,16.9c15.7,0,27-6.1,31.4-16.8c-11.4-3.2-18.7-7.6-22-12.6
		c-1.2-1.8-1.8-3.8-1.9-6h-15.5c-0.1,2.1-0.8,4.1-1.9,5.8C124.5,10.9,117.2,15.2,105.9,18.4z M156.3,19.6h4.6
		c0,7.8-12.7,10.4-23.5,10.4c-5.3,0.1-10.4-0.6-15.4-2.2c-6.7-2.3-8.2-5.8-8.2-8.3h4.6c0,3,7.4,6,18.8,6
		C148.6,25.6,156.3,22.5,156.3,19.6z M149.3,12.8c0,5.6-7.9,8-11.9,8c-4,0-11.9-2.5-11.9-8c0-6.5,8-6.5,11.9-6.5
		C141.3,6.3,149.3,6.3,149.3,12.8z"/>
	<path class="st0" d="M255.2,394.4c-1.2-4.7-5.2-9-25.8-6.2c-1.8,3.2-2.6,6.8-2.6,10.4c0,0.5,0,1,0,1.4h11.8
		c-0.5-0.8-0.8-1.7-0.8-2.7c0-2.9,2.3-5.2,5.2-5.2c2.8,0.1,5,2.3,5.2,5.2c0,1-0.3,2-0.8,2.7h7.1
		C255.5,398.3,255.8,396.3,255.2,394.4z"/>
	<path class="st0" d="M45.4,388.1c-20.9-3-25,1.6-26,6.2c-0.4,1.9-0.2,3.9,0.9,5.6h7.2c-0.4-0.7-0.7-1.6-0.7-2.5
		c0-2.9,2.3-5.2,5.2-5.2c2.9,0.1,5.2,2.4,5.2,5.2c0,0.9-0.3,1.8-0.7,2.5h11.6c0-0.5,0-1,0-1.4C48.1,395,47.1,391.4,45.4,388.1z"/>
	<path class="st0" d="M36.1,382.6c1.9,0.1,4,0.2,6.1,0.5c-7.2-8.6-20.3-14.5-35.1-14.5c-2.6,0-5.1,0.2-7.6,0.5v4
		c2.4-0.3,5-0.5,7.6-0.5C19.3,372.7,29.4,376.1,36.1,382.6z"/>
	<path class="st0" d="M48.1,22.8c0-3.6-1-7.2-2.6-10.4c-20.9-3-25,1.6-26,6.2c-0.5,2-0.1,4.2,1.1,6c2.3,3.6,9,8.8,27.8,12.8
		C48.2,32.8,48.1,27.8,48.1,22.8z M32,26.8c-2.9,0-5.2-2.3-5.2-5.2c0-2.9,2.3-5.2,5.2-5.2c2.9,0.1,5.2,2.4,5.2,5.2
		C37.2,24.6,34.9,26.8,32,26.8z"/>
	<path class="st0" d="M48.1,304.6c0-3.6-1-7.2-2.6-10.4c-20.9-3-25,1.6-26,6.2c-0.5,2-0.1,4.2,1.1,6c2.3,3.6,9,8.8,27.8,12.8
		C48.2,314.6,48.1,309.7,48.1,304.6z M32,308.7c-2.9,0-5.2-2.3-5.2-5.2c0-2.9,2.3-5.2,5.2-5.2c2.9,0,5.2,2.4,5.2,5.2
		C37.2,306.4,34.9,308.7,32,308.7z"/>
	<path class="st0" d="M38.5,39.7c-11.4-3.2-18.7-7.6-22-12.6c-1.8-2.8-2.4-6.2-1.6-9.5c1.4-6.1,5.9-9.5,14-10.4
		C23.4,3.4,15.8,1.5,6.9,1.5C4.3,1.5,1.8,1.7-0.5,2v26.3c2.5-0.9,5.6-0.9,7.6-0.9c3.8,0,12,0,11.9,6.5c0,5.6-7.9,8-11.9,8
		c-2,0-5.1-0.7-7.6-2v6.4c2.2,0.3,4.7,0.5,7.5,0.5c11.4,0,19.1-3.1,19.1-6h4.6c0,7.8-12.7,10.4-23.5,10.4c-2.6,0.1-5.1-0.1-7.6-0.4
		v5.2c2.4,0.3,4.9,0.5,7.6,0.5C22.9,56.5,34.2,50.3,38.5,39.7z"/>
	<path class="st0" d="M15,393.3c1.4-6.1,5.9-9.5,14-10.4c-5.6-3.7-13.2-5.6-22.1-5.6c-2.6,0-5.1,0.2-7.5,0.5V400h15.8
		C14.5,397.9,14.4,395.5,15,393.3z"/>
	<path class="st0" d="M149.9,91.5c-0.6,2-0.2,4.2,1,6c2.2,3.6,9,8.8,27.8,12.8c-0.1-4.6-0.2-9.6-0.2-14.6c0-3.6-0.8-7.2-2.5-10.4
		C155.1,82.3,151,86.8,149.9,91.5z M167.4,94.6c0,0.1,0,0.1,0,0.1c-0.1,2.9-2.4,5.2-5.3,5.2c-2.9-0.1-5.3-2.4-5.2-5.3
		c0.1-2.9,2.4-5.2,5.3-5.2C165.1,89.4,167.4,91.7,167.4,94.6z"/>
	<path class="st0" d="M137.4,69.9c12.2,0,22.3,3.4,29,9.8c1.9,0.1,4,0.2,6.1,0.5c-7.2-8.6-20.3-14.5-35.1-14.5
		c-14.9,0-27.9,5.9-35.1,14.5c2.2-0.2,4.2-0.4,6.1-0.5C115.1,73.3,125.2,69.9,137.4,69.9z"/>
	<path class="st0" d="M226.8,116.8c0,4.9-0.1,9.8-0.2,14.6c18.7-4,25.4-9.1,27.7-12.7c1.2-1.8,1.6-4,1-6c-1.2-4.8-5.2-9.1-25.8-6.4
		C227.6,109.6,226.8,113.2,226.8,116.8z M243,110.2c2.8,0.1,5,2.4,5.2,5.2c0,2.9-2.3,5.2-5.2,5.2c-2.9,0-5.2-2.3-5.2-5.2
		C237.8,112.5,240.1,110.2,243,110.2z"/>
	<path class="st0" d="M232.7,101.3c2.2-0.2,4.2-0.4,6.1-0.5c6.7-6.5,16.8-9.8,29-9.8c2.7,0,5.3,0.2,7.7,0.5v-4.1
		c-2.5-0.4-5.1-0.5-7.7-0.5C253,86.8,239.9,92.7,232.7,101.3z"/>
	<path class="st0" d="M226.8,22.8c0,5-0.1,10-0.2,14.5c18.7-4,25.4-9.1,27.7-12.7c1.2-1.8,1.6-4,1-6c-1.2-4.7-5.2-9.1-25.8-6.2
		C227.6,15.6,226.8,19.2,226.8,22.8z M243,16.3c2.8,0.1,5,2.3,5.2,5.2c0,2.9-2.3,5.2-5.2,5.2c-2.9,0-5.2-2.3-5.2-5.2
		C237.8,18.6,240.1,16.3,243,16.3z"/>
	<path class="st0" d="M178.7,16.2c-0.1-4.7-0.2-9.6-0.2-14.6c0-0.5,0-1-0.1-1.5h-11c0,0.2,0.1,0.4,0.1,0.7c0,2.9-2.3,5.2-5.2,5.2
		c-2.9,0-5.2-2.3-5.2-5.2c0-0.2,0-0.5,0.1-0.7h-7.5c0.1,1.2,0.5,2.4,1.2,3.4C153,7,159.9,12.2,178.7,16.2z"/>
	<path class="st0" d="M146.9,99.9c-1.8-2.8-2.4-6.2-1.6-9.5c1.4-6.1,5.9-9.5,14-10.4c-5.6-3.7-13.2-5.6-22.1-5.6s-16.4,1.9-22.1,5.6
		c8,0.8,12.5,4.2,13.9,10.3c0.8,3.2,0.2,6.7-1.6,9.5c-3.1,5-10.4,9.4-21.7,12.6c4.4,10.8,15.8,16.9,31.5,16.9
		c15.7,0,27-6.1,31.4-16.8C157.5,109.2,150.2,104.9,146.9,99.9z M156.3,113.7h4.6c0,7.8-12.7,10.4-23.5,10.4
		c-5.3,0.1-10.4-0.6-15.4-2.2c-6.7-2.3-8.2-5.8-8.2-8.3h4.6c0,2.9,7.4,6,18.8,6C148.6,119.7,156.3,116.6,156.3,113.7z M137.4,114.8
		c-4,0-11.9-2.5-11.9-8c0-6.5,8-6.5,11.9-6.5c3.8,0,11.9,0,11.9,6.5C149.3,112.4,141.4,114.8,137.4,114.8z"/>
	<path class="st0" d="M232.7,7.4c2.2-0.2,4.2-0.4,6.1-0.5c3-3,6.7-5.3,11-6.9h-8.5C237.9,2.1,235,4.6,232.7,7.4z"/>
	<path class="st0" d="M245.6,7.2c8,0.8,12.5,4.2,13.9,10.3c0.8,3.2,0.2,6.7-1.6,9.5c-3.1,5-10.4,9.4-21.7,12.6
		c4.4,10.8,15.8,16.9,31.5,16.9c2.7,0,5.3-0.2,7.7-0.6v-5.2c-2.6,0.3-5.3,0.5-7.8,0.5c-5.3,0.1-10.4-0.6-15.4-2.2
		c-6.7-2.3-8.2-5.8-8.2-8.3h4.6c0,3,7.4,6,18.8,6c2.9,0,5.6-0.2,8-0.6v-6.3c-2.5,1.4-5.6,2-7.7,2c-4.1,0-12-2.5-12-8
		c0-6.5,8.2-6.5,12-6.5c2,0,5.2,0,7.7,0.9v-5.8c-0.2-1.3-0.2-2.6,0-3.9V2.1c-2.5-0.4-5.1-0.6-7.8-0.6C258.8,1.5,251.3,3.4,245.6,7.2
		z"/>
	<path class="st0" d="M146.9,193.8c-1.8-2.8-2.4-6.2-1.6-9.5c1.4-6.1,5.9-9.5,14-10.4c-5.6-3.7-13.2-5.6-22.1-5.6
		s-16.4,1.9-22.1,5.6c8,0.8,12.5,4.2,13.9,10.3c0.8,3.2,0.2,6.7-1.6,9.5c-3.1,5-10.4,9.4-21.7,12.6c4.4,10.8,15.8,16.9,31.5,16.9
		c15.7,0,27-6,31.4-16.8C157.5,203.2,150.2,198.8,146.9,193.8z M156.3,207.6h4.6c0,7.8-12.7,10.4-23.5,10.4
		c-5.3,0.1-10.4-0.6-15.4-2.2c-6.7-2.3-8.2-5.8-8.2-8.3h4.6c0,2.9,7.4,6,18.8,6C148.6,213.6,156.3,210.5,156.3,207.6z M137.4,208.7
		c-4,0-11.9-2.5-11.9-8c0-6.5,8-6.5,11.9-6.5c3.8,0,11.9,0,11.9,6.5C149.3,206.3,141.4,208.7,137.4,208.7z"/>
	<path class="st0" d="M99.1,367c-1.7,3.2-2.5,6.8-2.5,10.4c0,5-0.1,10-0.4,14.6c18.7-4,25.4-9.1,27.7-12.7c1.2-1.8,1.6-4,1-6
		C123.8,368.6,119.7,364.3,99.1,367z M117.9,376.1c0,2.9-2.3,5.2-5.2,5.2c-2.9,0-5.2-2.3-5.2-5.2c0-2.9,2.3-5.2,5.2-5.2
		C115.5,371.1,117.8,373.4,117.9,376.1z"/>
	<path class="st0" d="M96.3,396.5c0,1.2-0.1,2.3-0.1,3.5h7.8c-0.9-1.5-1.7-3-2.3-4.7C100,395.7,98.2,396.2,96.3,396.5z"/>
	<path class="st0" d="M146.9,381.7c-1.8-2.8-2.4-6.2-1.6-9.5c1.4-6.1,5.9-9.5,14-10.4c-5.6-3.7-13.2-5.6-22.1-5.6
		s-16.4,1.9-22.1,5.6c8,0.8,12.5,4.2,13.9,10.3c0.8,3.2,0.2,6.7-1.6,9.5c-3.1,5-10.4,9.4-21.7,12.6c0.9,2.1,2.1,4.1,3.5,5.9h6.3
		c-1.4-1.6-1.8-3.2-1.8-4.5h4.6c0,1.7,2.3,3.4,6.3,4.5h25.2c4-1.2,6.4-2.8,6.4-4.4h4.6c0,1.7-0.6,3.2-1.7,4.4h6.4
		c1.4-1.7,2.5-3.6,3.4-5.7C157.5,391,150.2,386.7,146.9,381.7z M137.4,396.7c-4,0-11.9-2.5-11.9-8c0-6.5,8-6.5,11.9-6.5
		c3.8,0,11.9,0,11.9,6.5C149.3,394.3,141.4,396.7,137.4,396.7z"/>
	<path class="st0" d="M173.4,395.3c-0.6,1.6-1.4,3.2-2.3,4.7h7.8c0-1.1,0-2.3-0.1-3.5C176.9,396.2,175.1,395.8,173.4,395.3z"/>
	<path class="st0" d="M36.1,288.7c1.9,0.1,4,0.2,6.1,0.5c-7.2-8.6-20.3-14.5-35.1-14.5c-2.6,0-5.1,0.2-7.6,0.5v4
		c2.4-0.3,5-0.5,7.6-0.5C19.3,278.7,29.4,282.2,36.1,288.7z"/>
	<path class="st0" d="M172.6,362.1c-7.2-8.6-20.3-14.5-35.1-14.5c-14.9,0-27.9,5.8-35.1,14.5c2.2-0.2,4.2-0.4,6.1-0.5
		c6.7-6.5,16.8-9.8,29-9.8c12.2,0,22.3,3.4,29,9.8C168.4,361.7,170.4,361.9,172.6,362.1z"/>
	<path class="st0" d="M175.9,366.9c-20.9-2.9-25,1.7-26,6.4c-0.6,2-0.2,4.2,1,6c2.2,3.6,9,8.8,27.8,12.7c-0.1-4.7-0.2-9.6-0.2-14.6
		C178.5,373.7,177.6,370.1,175.9,366.9z M162.3,381.7c-2.9,0-5.2-2.3-5.2-5.2c0-2.9,2.3-5.2,5.2-5.2c2.9,0,5.2,2.3,5.2,5.2
		C167.4,379.4,165.1,381.7,162.3,381.7z"/>
	<path class="st0" d="M48.1,210.6c0-3.6-1-7.2-2.6-10.4c-20.9-3-25,1.6-26,6.2c-0.5,2-0.1,4.2,1.1,6c2.3,3.7,9,8.9,27.8,12.8
		C48.2,220.7,48.1,215.6,48.1,210.6z M32,214.8c-2.9,0-5.2-2.3-5.2-5.2c0-2.9,2.3-5.2,5.2-5.2c2.9,0,5.2,2.3,5.2,5.2
		C37.2,212.5,34.9,214.8,32,214.8z"/>
	<path class="st0" d="M123.9,285.3c1.2-1.8,1.6-4,1-6c-1.1-4.7-5.2-9-25.8-6.2c-1.7,3.2-2.5,6.8-2.5,10.4c0,5-0.1,10-0.4,14.5
		C114.9,294.1,121.6,288.9,123.9,285.3z M112.7,287.4c-2.9,0-5.2-2.3-5.2-5.2c0-2.9,2.3-5.2,5.2-5.2c2.8,0,5,2.3,5.2,5.2
		C117.9,285.1,115.6,287.4,112.7,287.4z"/>
	<path class="st0" d="M137.4,257.6c12.2,0,22.3,3.5,29,10c1.9,0.1,4,0.2,6.1,0.5c-7.2-8.6-20.3-14.5-35.1-14.5
		c-14.9,0-27.9,5.9-35.1,14.5c2.2-0.2,4.2-0.4,6.1-0.5C115.1,261,125.2,257.6,137.4,257.6z"/>
	<path class="st0" d="M137.6,342.9c25.1,0,45.5,15.4,45.5,34.4c0.1,8.2,0.2,15.8,0.4,22.7h39c0-0.5,0-1,0-1.5
		c0-19.1,20.4-34.4,45.5-34.4c2.6,0,5.2,0.2,7.7,0.5v-22.4c-2.5,0.3-5.1,0.5-7.8,0.5c-18,0-30.9-7.3-35.9-20.2
		c-1.7,0.4-3.5,0.8-5.4,1.2c-0.4,17.5-1.2,31.2-2.9,40.3l-4.3-0.8c2.2-12,2.8-32.1,3.1-58.7c0-19.1,20.4-34.4,45.5-34.4
		c2.6,0,5.2,0.2,7.7,0.5v-22.4c-2.5,0.3-5.1,0.5-7.8,0.5c-18,0-30.9-7.3-35.9-20.2c-1.7,0.5-3.5,0.8-5.4,1.2
		c-0.4,17.6-1.2,31.2-2.9,40.3l-4.3-0.8c2.2-12,2.8-32.1,3.1-58.7c0-19,20.4-34.4,45.5-34.4c2.6,0,5.2,0.2,7.7,0.5v-22.5
		c-2.5,0.3-5.1,0.5-7.8,0.5c-18,0-30.9-7.3-35.9-20.2c-1.7,0.5-3.5,0.8-5.4,1.2c-0.4,17.5-1.2,31.2-2.9,40.3l-4.3-0.7
		c2.2-12,2.8-32.1,3.1-58.7c0-19,20.4-34.4,45.5-34.4c2.6,0,5.2,0.2,7.7,0.5V60.3c-2.5,0.3-5.1,0.5-7.8,0.5
		c-18,0-30.9-7.3-35.9-20.2c-1.7,0.4-3.5,0.8-5.4,1.2c-0.4,17.5-1.2,31.2-2.9,40.3l-4.3-0.8c2.2-12,2.8-32.1,3.1-58.7
		c0-8.7,4.3-16.6,11.3-22.6H183c0,0.5,0.1,1.1,0.1,1.6c0.2,26.6,0.8,46.7,3.1,58.7l-4.4,1c-1.8-9.4-2.6-22.9-2.9-40.5
		c-1.9-0.4-3.7-0.7-5.4-1.2c-5,12.8-17.9,20.2-35.9,20.2c-18,0-30.9-7.3-35.9-20.2c-1.7,0.5-3.5,0.8-5.4,1.2
		c-0.4,17.5-1.2,31.2-2.9,40.3L89,60.3c2.2-12,2.8-32.1,3.1-58.7c0-0.6,0-1.1,0.1-1.6H41.3c7,6,11.2,14,11.2,22.6
		c0.2,26.6,0.8,46.8,3.1,58.7l-4.3,1c-1.8-9.2-2.5-22.8-3-40.4c-1.9-0.5-3.7-0.7-5.4-1.2C37.9,53.5,25,60.8,7.1,60.8
		c-2.6,0-5.2-0.2-7.6-0.5v22.4c2.5-0.3,5-0.5,7.6-0.5c25.1,0,45.5,15.4,45.5,34.4c0.2,26.6,0.8,46.7,3.1,58.7l-4.3,1
		c-1.8-9.2-2.5-22.9-3-40.5c-1.9-0.4-3.7-0.7-5.4-1.2c-5,12.8-17.9,20.2-35.9,20.2c-2.6,0-5.2-0.2-7.6-0.5v22.5
		c2.5-0.3,5-0.5,7.6-0.5c25.1,0,45.5,15.4,45.5,34.4c0.2,26.6,0.8,46.8,3.1,58.7l-4.3,1c-1.8-9.2-2.5-22.9-3-40.4
		c-1.9-0.4-3.7-0.7-5.4-1.2c-5,12.8-17.9,20.2-35.9,20.2c-2.6,0-5.2-0.2-7.6-0.5v22.3c2.5-0.3,5-0.5,7.6-0.5
		c25.1,0,45.5,15.5,45.5,34.4c0.2,26.6,0.8,46.8,3.1,58.7l-4.3,1c-1.8-9.2-2.5-22.8-3-40.4c-1.9-0.4-3.7-0.7-5.4-1.2
		c-5,12.8-17.9,20.2-35.9,20.2c-2.6,0-5.2-0.2-7.6-0.5v22.3c2.5-0.3,5-0.5,7.6-0.5c25.1,0,45.5,15.5,45.5,34.4c0,0.5,0,1,0,1.5h39.1
		c0.2-6.9,0.3-14.5,0.4-22.7C92.1,358.3,112.5,342.9,137.6,342.9z M92.1,95.6c0-19,20.4-34.4,45.5-34.4c25.1,0,45.5,15.4,45.5,34.4
		c0.2,26.6,0.8,46.8,3.1,58.7l-4.4,1c-1.8-9.2-2.6-22.9-2.9-40.5c-1.9-0.4-3.7-0.7-5.4-1.2c-5,12.8-17.9,20.2-35.9,20.2
		c-18,0-30.9-7.3-35.9-20.2c-1.7,0.5-3.5,0.8-5.4,1.2c-0.4,17.6-1.2,31.2-2.9,40.3l-4.4-0.7C91.1,142.2,91.7,122.1,92.1,95.6z
		 M92.1,189.5c0-19,20.4-34.4,45.5-34.4c25.1,0,45.5,15.4,45.5,34.4c0.2,26.6,0.8,46.8,3.1,58.7l-4.4,1c-1.8-9.2-2.6-22.8-2.9-40.4
		c-1.9-0.5-3.7-0.7-5.4-1.2c-5,12.8-17.9,20.2-35.9,20.2c-18,0-30.9-7.3-35.9-20.2c-1.7,0.4-3.5,0.8-5.4,1.2
		c-0.4,17.5-1.2,31.2-2.9,40.3l-4.4-0.8C91.1,236.2,91.7,216,92.1,189.5z M92.1,283.4c0-19.1,20.4-34.4,45.5-34.4
		c25.1,0,45.5,15.5,45.5,34.4c0.2,26.6,0.8,46.8,3.1,58.7l-4.4,1c-1.8-9.2-2.6-22.8-2.9-40.4c-1.9-0.4-3.7-0.7-5.4-1.2
		c-5,12.8-17.9,20.2-35.9,20.2c-18,0-30.9-7.3-35.9-20.2c-1.7,0.4-3.5,0.8-5.4,1.2c-0.4,17.5-1.2,31.2-2.9,40.3l-4.4-0.8
		C91.1,330.1,91.7,309.9,92.1,283.4z"/>
	<path class="st1" d="M89,60.3l4.4,0.7c1.7-9.1,2.5-22.8,2.9-40.3c1.9-0.4,3.7-0.7,5.4-1.2c4.9,12.8,17.9,20.2,35.9,20.2
		c18,0,30.8-7.3,35.9-20.2c1.7,0.5,3.5,0.8,5.4,1.2c0.2,17.6,1.1,31.2,2.9,40.5l4.4-1c-2.3-12-2.9-32-3.1-58.7c0-0.6,0-1.1-0.1-1.6
		h-4.6c0,0.5,0.1,1,0.1,1.5c0,5,0.1,10,0.2,14.6c-18.8-4-25.7-9.1-27.8-12.7c-0.7-1.1-1.1-2.2-1.2-3.4H145c0.1,2.1,0.8,4.2,1.9,6
		c3.2,5,10.6,9.4,22,12.6c-4.4,10.7-15.7,16.8-31.4,16.8c-15.7,0-27.1-6.1-31.5-16.9c11.3-3.2,18.6-7.6,21.7-12.6
		c1.1-1.7,1.8-3.8,1.9-5.8h-4.4c-0.1,1.2-0.5,2.5-1.2,3.6c-2.3,3.6-9,8.8-27.7,12.7c0.2-4.7,0.4-9.5,0.4-14.5c0-0.6,0-1.2,0.1-1.8
		h-4.5c0,0.5-0.1,1.1-0.1,1.6C91.7,28.2,91.1,48.3,89,60.3z"/>
	<path class="st1" d="M125.6,12.8c0,5.5,7.9,8,11.9,8c4,0,11.9-2.4,11.9-8c0-6.5-8-6.5-11.9-6.5C133.6,6.3,125.6,6.3,125.6,12.8z"/>
	<path class="st1" d="M112.7,5.5c2.9,0,5.2-2.3,5.2-5.2c0-0.1,0-0.2,0-0.3h-10.2c0,0.1,0,0.2,0,0.3C107.6,3.2,109.9,5.5,112.7,5.5z"
		/>
	<path class="st1" d="M162.3,5.8c2.9,0,5.2-2.3,5.2-5.2c0-0.2,0-0.5-0.1-0.7h-10.2c0,0.2-0.1,0.4-0.1,0.7
		C157.1,3.6,159.4,5.8,162.3,5.8z"/>
	<path class="st1" d="M118.4,19.6h-4.6c0,2.5,1.4,6,8.2,8.3c4.9,1.6,10.1,2.3,15.4,2.2c10.8,0,23.5-2.6,23.5-10.4h-4.6
		c0,2.9-7.7,6-19.1,6C125.8,25.6,118.4,22.6,118.4,19.6z"/>
	<path class="st1" d="M42.9,40.6c1.7,0.5,3.5,0.7,5.4,1.2c0.5,17.6,1.2,31.2,3,40.4l4.3-1c-2.3-11.9-2.9-32-3.1-58.7
		C52.5,14,48.3,6,41.3,0h-7.8c3.4,2.1,6.4,4.6,8.7,7.4C40,7.2,38,7,36.1,6.9C33,4,29.3,1.7,24.9,0H-0.5v2c2.4-0.3,4.9-0.5,7.5-0.5
		c8.9,0,16.4,1.9,22.1,5.6c-8.2,1-12.6,4.3-14,10.4c-0.8,3.2-0.2,6.7,1.6,9.5c3.2,5,10.6,9.4,22,12.6C34.2,50.3,22.9,56.5,7.1,56.5
		c-2.7,0-5.2-0.2-7.6-0.5v4.4c2.4,0.3,4.9,0.5,7.6,0.5C25,60.8,37.9,53.5,42.9,40.6z M20.5,24.6c-1.2-1.8-1.6-4-1.1-6
		c1.1-4.7,5.2-9.2,26-6.2c1.7,3.2,2.6,6.8,2.6,10.4c0,5,0.1,10.1,0.2,14.6C29.5,33.3,22.8,28.2,20.5,24.6z"/>
	<path class="st1" d="M18.9,33.9c0.1-6.5-8-6.5-11.9-6.5c-2,0-5.1,0-7.6,0.9v11.6c2.5,1.4,5.6,2,7.6,2C11,41.9,18.9,39.5,18.9,33.9z
		"/>
	<path class="st1" d="M32,16.5c-2.9,0-5.2,2.3-5.2,5.2c0,2.9,2.3,5.2,5.2,5.2c2.9,0,5.2-2.3,5.2-5.2C37.2,18.9,34.9,16.6,32,16.5z"
		/>
	<path class="st1" d="M7.1,51.2c10.8,0,23.5-2.6,23.5-10.4H26c0,2.9-7.7,6-19.1,6c-2.7,0-5.2-0.2-7.5-0.5v4.5
		C2,51.1,4.5,51.2,7.1,51.2z"/>
	<path class="st1" d="M222.4,22.6c-0.4,26.5-1,46.7-3.1,58.7l4.3,0.8c1.7-9.1,2.5-22.8,2.9-40.3c1.9-0.4,3.7-0.8,5.4-1.2
		c4.9,12.8,17.9,20.2,35.9,20.2c2.7,0,5.3-0.2,7.8-0.5v-4.3c-2.4,0.4-5,0.6-7.7,0.6c-15.7,0-27.1-6.1-31.5-16.9
		C247.6,36.3,254.9,32,258,27c1.8-2.8,2.4-6.2,1.6-9.5c-1.4-6.1-5.9-9.5-13.9-10.3c5.6-3.7,13.2-5.6,22.1-5.6c2.7,0,5.4,0.2,7.8,0.6
		V0h-25.7c-4.3,1.6-8,4-11,6.9c-1.9,0.1-4,0.2-6.1,0.5c2.3-2.8,5.2-5.3,8.6-7.4h-7.7C226.6,6.1,222.4,14,222.4,22.6z M255.2,18.6
		c0.6,2,0.2,4.2-1,6c-2.3,3.6-9,8.8-27.7,12.7c0.1-4.6,0.2-9.5,0.2-14.5c0-3.6,0.8-7.2,2.6-10.4C250.1,9.4,254,13.9,255.2,18.6z"/>
	<path class="st1" d="M275.5,22.5v-3.9C275.3,19.9,275.3,21.2,275.5,22.5z"/>
	<path class="st1" d="M255.8,33.9c0,5.5,7.9,8,12,8c2.1,0,5.2-0.6,7.7-2V28.4c-2.6-0.9-5.7-0.9-7.7-0.9
		C264,27.4,255.8,27.4,255.8,33.9z"/>
	<path class="st1" d="M243,26.6c2.9,0,5.2-2.3,5.2-5.2c-0.1-2.9-2.4-5-5.2-5.2c-2.9,0-5.2,2.3-5.2,5.2
		C237.8,24.3,240.1,26.6,243,26.6z"/>
	<path class="st1" d="M248.8,40.7h-4.6c0,2.5,1.4,6,8.2,8.3c4.9,1.6,10.1,2.3,15.4,2.2c2.6,0,5.2-0.2,7.8-0.5v-4.5
		c-2.4,0.4-5,0.6-8,0.6C256.2,46.7,248.8,43.7,248.8,40.7z"/>
	<path class="st1" d="M96.3,114.6c1.9-0.4,3.7-0.7,5.4-1.2c4.9,12.8,17.9,20.2,35.9,20.2c18,0,30.8-7.3,35.9-20.2
		c1.7,0.5,3.5,0.8,5.4,1.2c0.2,17.6,1.1,31.3,2.9,40.5l4.4-1c-2.3-11.9-2.9-32-3.1-58.7c0-19.1-20.4-34.4-45.5-34.4
		c-25.1,0-45.5,15.5-45.5,34.4c-0.4,26.5-1,46.7-3.1,58.7l4.4,0.7C95.1,145.8,95.9,132.3,96.3,114.6z M137.4,129.3
		c-15.7,0-27.1-6.1-31.5-16.9c11.3-3.2,18.6-7.6,21.7-12.6c1.8-2.8,2.4-6.2,1.6-9.5c-1.4-6.1-5.9-9.5-13.9-10.3
		c5.6-3.7,13.2-5.6,22.1-5.6s16.4,1.9,22.1,5.6c-8.2,1-12.6,4.3-14,10.4c-0.8,3.2-0.2,6.7,1.6,9.5c3.2,5,10.6,9.4,22,12.6
		C164.4,123.2,153.2,129.3,137.4,129.3z M175.9,85.3c1.7,3.2,2.5,6.8,2.5,10.4c0,5,0.1,10.1,0.2,14.6c-18.8-4.1-25.7-9.2-27.8-12.8
		c-1.2-1.8-1.6-4-1-6C151,86.8,155.1,82.3,175.9,85.3z M137.4,65.7c14.9,0,27.9,5.9,35.1,14.5c-2.2-0.2-4.2-0.4-6.1-0.5
		c-6.7-6.5-16.8-9.8-29-9.8c-12.2,0-22.3,3.4-29,9.8c-1.9,0.1-4,0.2-6.1,0.5C109.5,71.6,122.6,65.7,137.4,65.7z M96.5,95.7
		c0-3.6,0.8-7.2,2.5-10.4c20.6-2.9,24.7,1.6,25.8,6.2c0.6,2,0.2,4.2-1,6c-2.3,3.6-9,8.8-27.7,12.7C96.4,105.5,96.5,100.7,96.5,95.7z
		"/>
	<path class="st1" d="M137.4,100.2c-3.8,0-11.9,0-11.9,6.5c0,5.5,7.9,8,11.9,8c4,0,11.9-2.4,11.9-8
		C149.3,100.2,141.3,100.2,137.4,100.2z"/>
	<path class="st1" d="M112.7,89.1c-2.9,0-5.2,2.3-5.2,5.2c0,2.9,2.3,5.2,5.2,5.2c2.9,0,5.2-2.3,5.2-5.2
		C117.8,91.5,115.5,89.2,112.7,89.1z"/>
	<path class="st1" d="M157,94.6c-0.1,2.9,2.3,5.2,5.2,5.3c2.9,0,5.2-2.3,5.3-5.2c0,0,0,0,0-0.1c0-2.9-2.3-5.2-5.2-5.2
		C159.4,89.4,157.1,91.7,157,94.6z"/>
	<path class="st1" d="M118.4,113.7h-4.6c0,2.5,1.4,6,8.2,8.3c4.9,1.6,10.1,2.3,15.4,2.2c10.8,0,23.5-2.6,23.5-10.4h-4.6
		c0,2.9-7.7,6-19.1,6C125.8,119.7,118.4,116.6,118.4,113.7z"/>
	<path class="st1" d="M42.9,134.6c1.7,0.5,3.5,0.8,5.4,1.2c0.5,17.6,1.2,31.3,3,40.5l4.3-1c-2.3-12-2.9-32-3.1-58.7
		c0-19.1-20.4-34.4-45.5-34.4c-2.6,0-5.1,0.2-7.6,0.5v4.6c2.5-0.3,5-0.5,7.6-0.5c14.9,0,27.9,5.9,35.1,14.5
		c-2.2-0.2-4.2-0.4-6.1-0.5c-6.7-6.5-16.8-9.8-29-9.8c-2.6,0-5.2,0.2-7.6,0.5v4.4c2.4-0.3,4.9-0.5,7.5-0.5c8.9,0,16.4,1.9,22.1,5.6
		c-8.2,1-12.6,4.3-14,10.4c-0.8,3.2-0.2,6.7,1.6,9.5c3.2,5,10.6,9.4,22,12.6c-4.3,10.8-15.6,16.9-31.4,16.8c-2.7,0-5.2-0.2-7.6-0.5
		v4.5c2.4,0.3,4.9,0.5,7.6,0.5C25,154.7,37.9,147.4,42.9,134.6z M20.5,118.5c-1.2-1.8-1.6-4-1.1-6c1.1-4.7,5.2-9.2,26-6.4
		c1.7,3.2,2.6,6.8,2.6,10.4c0,5,0.1,10,0.2,14.6C29.5,127.4,22.8,122.1,20.5,118.5z"/>
	<path class="st1" d="M18.9,127.8c0.1-6.5-8-6.5-11.9-6.5c-2,0-5.1,0-7.6,0.9v11.6c2.5,1.4,5.6,2,7.6,2
		C11,135.9,18.9,133.5,18.9,127.8z"/>
	<ellipse transform="matrix(0.9925 -0.1222 0.1222 0.9925 -13.8993 4.777)" class="st1" cx="32" cy="115.7" rx="5.2" ry="5.2"/>
	<path class="st1" d="M7.1,145.2c10.8,0,23.5-2.6,23.5-10.4H26c0,2.9-7.7,6-19.1,6c-2.7,0-5.2-0.2-7.5-0.5v4.5
		C2,145.1,4.5,145.3,7.1,145.2z"/>
	<path class="st1" d="M222.4,116.7c-0.4,26.5-1,46.7-3.1,58.7l4.3,0.7c1.7-9.1,2.5-22.8,2.9-40.3c1.9-0.4,3.7-0.7,5.4-1.2
		c4.9,12.8,17.9,20.2,35.9,20.2c2.7,0,5.3-0.2,7.8-0.5v-4.3c-2.4,0.4-5,0.6-7.7,0.6c-15.7,0-27.1-6.1-31.5-16.9
		c11.3-3.2,18.6-7.6,21.7-12.6c1.8-2.8,2.4-6.2,1.6-9.5c-1.4-6.1-5.9-9.5-13.9-10.3c5.6-3.7,13.2-5.6,22.1-5.6
		c2.7,0,5.4,0.2,7.8,0.6v-4.5c-2.5-0.3-5-0.5-7.7-0.5c-12.2,0-22.3,3.4-29,9.8c-1.9,0.1-4,0.2-6.1,0.5c7.2-8.6,20.3-14.5,35.1-14.5
		c2.6,0,5.2,0.2,7.7,0.5v-4.6c-2.5-0.3-5.1-0.5-7.7-0.5C242.8,82.3,222.4,97.7,222.4,116.7z M255.2,112.7c0.6,2,0.2,4.2-1,6
		c-2.3,3.6-9,8.8-27.7,12.7c0.1-4.8,0.2-9.7,0.2-14.6c0-3.6,0.8-7.2,2.6-10.4C250.1,103.6,254,107.9,255.2,112.7z"/>
	<path class="st1" d="M275.5,116.5v-3.9C275.3,113.8,275.3,115.2,275.5,116.5z"/>
	<path class="st1" d="M255.8,127.8c0,5.5,7.9,8,12,8c2.1,0,5.2-0.6,7.7-2v-11.5c-2.6-0.9-5.7-0.9-7.7-0.9
		C264,121.4,255.8,121.4,255.8,127.8z"/>
	<path class="st1" d="M243,120.5c2.9,0,5.2-2.3,5.2-5.2c-0.1-2.8-2.4-5-5.2-5.2c-2.9,0-5.2,2.3-5.2,5.2
		C237.8,118.2,240.1,120.5,243,120.5z"/>
	<path class="st1" d="M248.8,134.7h-4.6c0,2.5,1.4,6,8.2,8.4c4.9,1.6,10.1,2.3,15.4,2.2c2.6,0,5.2-0.2,7.8-0.5v-4.5
		c-2.4,0.4-5,0.6-8,0.6C256.2,140.8,248.8,137.7,248.8,134.7z"/>
	<path class="st1" d="M96.3,208.7c1.9-0.4,3.7-0.8,5.4-1.2c4.9,12.8,17.9,20.2,35.9,20.2c18,0,30.8-7.3,35.9-20.2
		c1.7,0.5,3.5,0.7,5.4,1.2c0.2,17.6,1.1,31.2,2.9,40.4l4.4-1c-2.3-11.9-2.9-32-3.1-58.7c0-19.1-20.4-34.4-45.5-34.4
		c-25.1,0-45.5,15.5-45.5,34.4c-0.4,26.5-1,46.7-3.1,58.7l4.4,0.8C95.1,239.9,95.9,226.2,96.3,208.7z M137.4,223.2
		c-15.7,0-27.1-6.1-31.5-16.9c11.3-3.2,18.6-7.6,21.7-12.6c1.8-2.8,2.4-6.2,1.6-9.5c-1.4-6.1-5.9-9.5-13.9-10.3
		c5.6-3.7,13.2-5.6,22.1-5.6s16.4,1.9,22.1,5.6c-8.2,1-12.6,4.3-14,10.4c-0.8,3.2-0.2,6.7,1.6,9.5c3.2,5,10.6,9.4,22,12.6
		C164.4,217.2,153.2,223.2,137.4,223.2z M175.9,179.2c1.7,3.2,2.5,6.8,2.5,10.4c0,5,0.1,10.1,0.2,14.6c-18.8-4.1-25.7-9.2-27.8-12.8
		c-1.2-1.8-1.6-4-1-6C151,180.7,155.1,176.2,175.9,179.2z M137.4,159.6c14.9,0,27.9,5.9,35.1,14.5c-2.2-0.2-4.2-0.4-6.1-0.5
		c-6.7-6.5-16.8-10-29-10c-12.2,0-22.3,3.4-29,10c-1.9,0.1-4,0.2-6.1,0.5C109.5,165.5,122.6,159.6,137.4,159.6z M96.5,189.6
		c0-3.6,0.8-7.2,2.5-10.4c20.6-2.9,24.7,1.6,25.8,6.2c0.6,2,0.2,4.2-1,6c-2.3,3.6-9,8.8-27.7,12.7C96.4,199.4,96.5,194.6,96.5,189.6
		z"/>
	<path class="st1" d="M137.4,194.2c-3.8,0-11.9,0-11.9,6.5c0,5.5,7.9,8,11.9,8c4,0,11.9-2.4,11.9-8
		C149.3,194.2,141.3,194.2,137.4,194.2z"/>
	<path class="st1" d="M112.7,183c-2.9,0-5.2,2.3-5.2,5.2c0,2.9,2.3,5.2,5.2,5.2c2.9,0,5.2-2.3,5.2-5.2
		C117.8,185.4,115.5,183.1,112.7,183z"/>
	
		<ellipse transform="matrix(0.9732 -0.2298 0.2298 0.9732 -38.9746 42.3253)" class="st1" cx="162.3" cy="188.5" rx="5.2" ry="5.2"/>
	<path class="st1" d="M118.4,207.6h-4.6c0,2.5,1.4,6,8.2,8.3c4.9,1.6,10.1,2.3,15.4,2.2c10.8,0,23.5-2.6,23.5-10.4h-4.6
		c0,2.9-7.7,6-19.1,6C125.8,213.6,118.4,210.5,118.4,207.6z"/>
	<path class="st1" d="M42.9,228.6c1.7,0.5,3.5,0.8,5.4,1.2c0.5,17.5,1.2,31.2,3,40.4l4.3-1c-2.3-11.9-2.9-32-3.1-58.7
		c0-19.1-20.4-34.4-45.5-34.4c-2.6,0-5.1,0.2-7.6,0.5v4.6c2.5-0.3,5-0.5,7.6-0.5c14.9,0,27.9,5.9,35.1,14.5
		c-2.2-0.2-4.2-0.4-6.1-0.5c-6.7-6.5-16.8-9.8-29-9.8c-2.6,0-5.2,0.2-7.6,0.5v4.6c2.4-0.3,4.9-0.5,7.5-0.5c8.9,0,16.4,1.9,22.1,5.6
		c-8.2,1-12.6,4.3-14,10.4c-0.8,3.2-0.2,6.7,1.6,9.5c3.2,5,10.6,9.4,22,12.6c-4.3,10.6-15.6,16.7-31.4,16.7c-2.7,0-5.2-0.2-7.6-0.5
		v4.5c2.4,0.3,4.9,0.5,7.6,0.5C25,248.7,37.9,241.4,42.9,228.6z M20.5,212.4c-1.2-1.8-1.6-4-1.1-6c1.1-4.7,5.2-9.2,26-6.2
		c1.7,3.2,2.6,6.8,2.6,10.4c0,5,0.1,10.1,0.2,14.6C29.5,221.3,22.8,216.1,20.5,212.4z"/>
	<path class="st1" d="M18.9,221.8c0.1-6.5-8-6.5-11.9-6.5c-2,0-5.1,0-7.6,0.9v11.6c2.5,1.4,5.6,2,7.6,2
		C11,229.8,18.9,227.4,18.9,221.8z"/>
	
		<ellipse transform="matrix(0.9966 -8.247942e-02 8.247942e-02 0.9966 -17.1822 3.3537)" class="st1" cx="32" cy="209.6" rx="5.2" ry="5.2"/>
	<path class="st1" d="M7.1,239.2c10.8,0,23.5-2.6,23.5-10.4H26c0,2.9-7.7,6-19.1,6c-2.7,0-5.2-0.2-7.5-0.5v4.5
		C2,239.1,4.5,239.2,7.1,239.2z"/>
	<path class="st1" d="M275.5,210.4v-3.9C275.3,207.8,275.3,209.1,275.5,210.4z"/>
	<path class="st1" d="M222.4,210.6c-0.4,26.5-1,46.7-3.1,58.7l4.3,0.8c1.7-9.1,2.5-22.7,2.9-40.3c1.9-0.4,3.7-0.7,5.4-1.2
		c4.9,12.8,17.9,20.2,35.9,20.2c2.7,0,5.3-0.2,7.8-0.5v-4.5c-2.4,0.4-5,0.6-7.7,0.6c-15.7,0-27.1-6.1-31.5-16.9
		c11.3-3.2,18.6-7.6,21.7-12.6c1.8-2.8,2.4-6.2,1.6-9.5c-1.4-6.1-5.9-9.5-13.9-10.3c5.6-3.7,13.2-5.6,22.1-5.6
		c2.7,0,5.4,0.2,7.8,0.6v-4.5c-2.5-0.3-5-0.5-7.7-0.5c-12.2,0-22.3,3.4-29,9.8c-1.9,0.1-4,0.2-6.1,0.5c7.2-8.6,20.3-14.5,35.1-14.5
		c2.6,0,5.2,0.2,7.7,0.5v-4.6c-2.5-0.3-5.1-0.5-7.7-0.5C242.8,176.2,222.4,191.7,222.4,210.6z M255.2,206.5c0.6,2,0.2,4.2-1,6
		c-2.3,3.6-9,8.8-27.7,12.7c0.1-4.7,0.2-9.5,0.2-14.5c0-3.6,0.8-7.2,2.6-10.4C250.1,197.4,254,201.8,255.2,206.5z"/>
	<path class="st1" d="M255.8,221.8c0,5.5,7.9,8,12,8c2.1,0,5.2-0.6,7.7-2v-11.5c-2.6-0.9-5.7-0.9-7.7-0.9
		C264,215.3,255.8,215.3,255.8,221.8z"/>
	<path class="st1" d="M243,214.4c2.9,0,5.2-2.3,5.2-5.2c-0.1-2.8-2.4-5-5.2-5.2c-2.9,0-5.2,2.3-5.2,5.2
		C237.8,212.2,240.1,214.4,243,214.4z"/>
	<path class="st1" d="M248.8,228.7h-4.6c0,2.5,1.4,6,8.2,8.3c4.9,1.6,10.1,2.3,15.4,2.2c2.6,0,5.2-0.2,7.8-0.5v-4.5
		c-2.4,0.4-5,0.6-8,0.6C256.2,234.7,248.8,231.6,248.8,228.7z"/>
	<path class="st1" d="M96.3,302.6c1.9-0.4,3.7-0.8,5.4-1.2c4.9,12.8,17.9,20.2,35.9,20.2c18,0,30.8-7.3,35.9-20.2
		c1.7,0.5,3.5,0.8,5.4,1.2c0.2,17.6,1.1,31.2,2.9,40.4l4.4-1c-2.3-11.9-2.9-32-3.1-58.7c0-19-20.4-34.4-45.5-34.4
		c-25.1,0-45.5,15.4-45.5,34.4c-0.4,26.5-1,46.7-3.1,58.7l4.4,0.8C95.1,333.8,95.9,320.1,96.3,302.6z M137.4,317.1
		c-15.7,0-27.1-6.1-31.5-16.9c11.3-3.2,18.6-7.6,21.7-12.6c1.8-2.8,2.4-6.2,1.6-9.5c-1.4-6.1-5.9-9.5-13.9-10.3
		c5.6-3.7,13.2-5.6,22.1-5.6s16.4,1.9,22.1,5.6c-8.2,1-12.6,4.3-14,10.4c-0.8,3.2-0.2,6.7,1.6,9.5c3.2,5,10.6,9.4,22,12.6
		C164.4,311.1,153.2,317.1,137.4,317.1z M175.9,273.1c1.7,3.2,2.5,6.8,2.5,10.4c0,5,0.1,10,0.2,14.6c-18.8-4.1-25.7-9.2-27.8-12.8
		c-1.2-1.8-1.6-4-1-6C151,274.7,155.1,270.1,175.9,273.1z M137.4,253.5c14.9,0,27.9,5.9,35.1,14.5c-2.2-0.2-4.2-0.4-6.1-0.5
		c-6.7-6.5-16.8-10-29-10c-12.2,0-22.3,3.4-29,10c-1.9,0.1-4,0.2-6.1,0.5C109.5,259.4,122.6,253.5,137.4,253.5z M96.5,283.5
		c0-3.6,0.8-7.2,2.5-10.4c20.6-2.8,24.7,1.6,25.8,6.2c0.6,2,0.2,4.2-1,6c-2.3,3.6-9,8.8-27.7,12.7C96.4,293.5,96.5,288.6,96.5,283.5
		z"/>
	<path class="st1" d="M137.4,288.1c-3.8,0-11.9,0-11.9,6.5c0,5.5,7.9,8,11.9,8c4,0,11.9-2.4,11.9-8
		C149.3,288.1,141.3,288.1,137.4,288.1z"/>
	<path class="st1" d="M112.7,277.1c-2.9,0-5.2,2.3-5.2,5.2c0,2.9,2.3,5.2,5.2,5.2c2.9,0,5.2-2.3,5.2-5.2
		C117.8,279.3,115.5,277.1,112.7,277.1z"/>
	
		<ellipse transform="matrix(0.7071 -0.7071 0.7071 0.7071 -152.1982 197.4717)" class="st1" cx="162.3" cy="282.5" rx="5.2" ry="5.2"/>
	<path class="st1" d="M118.4,301.5h-4.6c0,2.5,1.4,6,8.2,8.3c4.9,1.6,10.1,2.3,15.4,2.2c10.8,0,23.5-2.8,23.5-10.4h-4.6
		c0,2.9-7.7,6-19.1,6C125.8,307.5,118.4,304.4,118.4,301.5z"/>
	<path class="st1" d="M42.9,322.5c1.7,0.5,3.5,0.8,5.4,1.2c0.5,17.6,1.2,31.2,3,40.4l4.3-1c-2.3-11.9-2.9-32-3.1-58.7
		c0-19-20.4-34.4-45.5-34.4c-2.6,0-5.1,0.2-7.6,0.5v4.6c2.5-0.3,5-0.5,7.6-0.5c14.9,0,27.9,5.9,35.1,14.5c-2.2-0.2-4.2-0.4-6.1-0.5
		c-6.7-6.5-16.8-10-29-10c-2.6,0-5.2,0.2-7.6,0.5v4.6c2.4-0.3,4.9-0.5,7.5-0.5c8.9,0,16.4,1.9,22.1,5.6c-8.2,1-12.6,4.3-14,10.4
		c-0.8,3.2-0.2,6.7,1.6,9.5c3.2,5,10.6,9.4,22,12.6c-4.3,10.8-15.6,16.8-31.4,16.8c-2.7,0-5.2-0.2-7.6-0.5v4.5
		c2.4,0.3,4.9,0.5,7.6,0.5C25,342.7,37.9,335.4,42.9,322.5z M20.5,306.4c-1.2-1.8-1.6-4-1.1-6c1.1-4.7,5.2-9.2,26-6.2
		c1.7,3.2,2.6,6.8,2.6,10.4c0,5,0.1,10,0.2,14.6C29.5,315.2,22.8,310,20.5,306.4z"/>
	<path class="st1" d="M18.9,315.7c0.1-6.5-8-6.5-11.9-6.5c-2,0-5.1,0-7.6,0.9v11.6c2.5,1.4,5.6,2,7.6,2
		C11,323.7,18.9,321.3,18.9,315.7z"/>
	
		<ellipse transform="matrix(0.9966 -8.247942e-02 8.247942e-02 0.9966 -24.929 3.6737)" class="st1" cx="32" cy="303.6" rx="5.2" ry="5.2"/>
	<path class="st1" d="M7.1,333.1c10.8,0,23.5-2.6,23.5-10.4H26c0,2.9-7.7,6-19.1,6c-2.7,0-5.2-0.2-7.5-0.5v4.5
		C2,333,4.5,333.1,7.1,333.1z"/>
	<path class="st1" d="M222.4,304.5c-0.4,26.5-1,46.7-3.1,58.7l4.3,0.8c1.7-9.1,2.5-22.8,2.9-40.3c1.9-0.4,3.7-0.8,5.4-1.2
		c4.9,12.8,17.9,20.2,35.9,20.2c2.7,0,5.3-0.2,7.8-0.5v-4.5c-2.4,0.4-5,0.5-7.7,0.5c-15.7,0-27.1-6.1-31.5-16.9
		c11.3-3.2,18.6-7.6,21.7-12.6c1.8-2.8,2.4-6.2,1.6-9.5c-1.4-6.1-5.9-9.5-13.9-10.3c5.6-3.7,13.2-5.6,22.1-5.6
		c2.7,0,5.4,0.2,7.8,0.6v-4.6c-2.5-0.3-5-0.5-7.7-0.5c-12.2,0-22.3,3.4-29,10c-1.9,0.1-4,0.2-6.1,0.5c7.2-8.6,20.3-14.5,35.1-14.5
		c2.6,0,5.2,0.2,7.7,0.5v-4.6c-2.5-0.3-5.1-0.5-7.7-0.5C242.8,270.1,222.4,285.5,222.4,304.5z M255.2,300.4c0.6,2,0.2,4.2-1,6
		c-2.3,3.6-9,8.8-27.7,12.7c0.1-4.7,0.2-9.5,0.2-14.5c0-3.6,0.8-7.2,2.6-10.4C250.1,291.5,254,295.8,255.2,300.4z"/>
	<path class="st1" d="M275.5,304.3v-3.9C275.3,301.7,275.3,303,275.5,304.3z"/>
	<path class="st1" d="M255.8,315.7c0,5.5,7.9,8,12,8c2.1,0,5.2-0.6,7.7-2v-11.5c-2.6-0.9-5.7-0.9-7.7-0.9
		C264,309.2,255.8,309.2,255.8,315.7z"/>
	<path class="st1" d="M243,308.4c2.9,0,5.2-2.3,5.2-5.2c-0.1-2.8-2.4-5-5.2-5.2c-2.9,0-5.2,2.3-5.2,5.2
		C237.8,306.1,240.1,308.4,243,308.4z"/>
	<path class="st1" d="M248.8,322.6h-4.6c0,2.5,1.4,6,8.2,8.3c4.9,1.6,10.1,2.3,15.4,2.2c2.6,0,5.2-0.2,7.8-0.5v-4.5
		c-2.4,0.4-5,0.6-8,0.6C256.2,328.6,248.8,325.5,248.8,322.6z"/>
	<path class="st1" d="M183,377.3c0-19.1-20.4-34.4-45.5-34.4c-25.1,0-45.5,15.4-45.5,34.4c-0.1,8.2-0.2,15.7-0.4,22.7h4.6
		c0-1.1,0.1-2.3,0.1-3.5c1.9-0.4,3.7-0.8,5.4-1.2c0.6,1.6,1.4,3.2,2.3,4.7h5.4c-1.4-1.8-2.6-3.7-3.5-5.9
		c11.3-3.2,18.6-7.6,21.7-12.6c1.8-2.8,2.4-6.2,1.6-9.5c-1.4-6.1-5.9-9.5-13.9-10.3c5.6-3.7,13.2-5.6,22.1-5.6s16.4,1.9,22.1,5.6
		c-8.2,1-12.6,4.3-14,10.4c-0.8,3.2-0.2,6.7,1.6,9.5c3.2,5,10.6,9.4,22,12.6c-0.9,2.1-2,4-3.4,5.7h5.6c0.9-1.5,1.7-3,2.3-4.7
		c1.7,0.5,3.5,0.8,5.4,1.2c0,1.2,0,2.3,0.1,3.5h4.5C183.2,393.1,183.1,385.5,183,377.3z M124.8,373.4c0.6,2,0.2,4.2-1,6
		c-2.3,3.6-9,8.8-27.7,12.7c0.2-4.7,0.4-9.6,0.4-14.6c0-3.6,0.8-7.2,2.5-10.4C119.7,364.3,123.8,368.6,124.8,373.4z M137.4,351.8
		c-12.2,0-22.3,3.4-29,9.8c-1.9,0.1-4,0.2-6.1,0.5c7.2-8.8,20.3-14.5,35.1-14.5c14.9,0,27.9,5.9,35.1,14.5c-2.2-0.2-4.2-0.4-6.1-0.5
		C159.8,355.1,149.7,351.8,137.4,351.8z M150.9,379.3c-1.2-1.8-1.6-4-1-6c1.1-4.7,5.2-9.2,26-6.4c1.7,3.2,2.5,6.8,2.5,10.4
		c0,5,0.1,10,0.2,14.6C159.9,388,153,382.9,150.9,379.3z"/>
	<path class="st1" d="M137.4,382.1c-3.8,0-11.9,0-11.9,6.5c0,5.5,7.9,8,11.9,8c4,0,11.9-2.4,11.9-8
		C149.3,382.1,141.3,382.1,137.4,382.1z"/>
	<path class="st1" d="M107.6,376.1c0,2.9,2.3,5.2,5.2,5.2c2.9,0,5.2-2.3,5.2-5.2c-0.1-2.8-2.4-5-5.2-5.2
		C109.9,371,107.6,373.3,107.6,376.1z"/>
	
		<ellipse transform="matrix(0.7071 -0.7071 0.7071 0.7071 -218.697 225.0164)" class="st1" cx="162.3" cy="376.5" rx="5.2" ry="5.2"/>
	<path class="st1" d="M156.3,395.6c0,1.6-2.4,3.3-6.4,4.4h9.3c1.1-1.2,1.7-2.7,1.7-4.4H156.3z"/>
	<path class="st1" d="M118.4,395.5h-4.6c0,1.3,0.4,3,1.8,4.5h9C120.7,398.8,118.4,397.1,118.4,395.5z"/>
	<path class="st1" d="M7.1,364c-2.6,0-5.1,0.2-7.6,0.5v4.6c2.5-0.3,5-0.5,7.6-0.5c14.9,0,27.9,5.9,35.1,14.5
		c-2.2-0.2-4.2-0.4-6.1-0.5c-6.7-6.5-16.8-10-29-10c-2.6,0-5.2,0.2-7.6,0.5v4.6c2.4-0.3,4.9-0.5,7.5-0.5c8.9,0,16.4,1.9,22.1,5.6
		c-8.2,1-12.6,4.3-14,10.4c-0.6,2.2-0.5,4.6,0.2,6.7h5.1c-1-1.7-1.3-3.7-0.9-5.6c1.1-4.7,5.2-9.2,26-6.2c1.7,3.2,2.6,6.8,2.6,10.4
		c0,0.5,0,1,0,1.4h4.4c0-0.5,0-1,0-1.5C52.5,379.5,32.1,364,7.1,364z"/>
	<path class="st1" d="M32,392.3c-2.9,0-5.2,2.3-5.2,5.2c0,0.9,0.3,1.8,0.7,2.5h9c0.4-0.7,0.7-1.6,0.7-2.5
		C37.2,394.7,34.9,392.5,32,392.3z"/>
	<path class="st1" d="M222.4,398.5c0,0.5,0,1,0,1.5h4.5c0-0.5,0-0.9,0-1.4c0-3.6,0.8-7.2,2.6-10.4c20.6-2.8,24.6,1.6,25.8,6.2
		c0.6,1.9,0.3,3.9-0.7,5.6h4.8c0.7-2.2,0.9-4.6,0.3-6.8c-1.4-6.1-5.9-9.5-13.9-10.3c5.6-3.7,13.2-5.6,22.1-5.6
		c2.7,0,5.4,0.2,7.8,0.6v-4.6c-2.5-0.3-5-0.5-7.7-0.5c-12.2,0-22.3,3.4-29,10c-1.9,0.1-4,0.2-6.1,0.5c7.2-8.6,20.3-14.5,35.1-14.5
		c2.6,0,5.2,0.2,7.7,0.5v-4.6c-2.5-0.3-5.1-0.5-7.7-0.5C242.8,364,222.4,379.4,222.4,398.5z"/>
	<path class="st1" d="M275.5,398.2v-3.9C275.3,395.6,275.3,396.9,275.5,398.2z"/>
	<path class="st1" d="M243,392.1c-2.9,0-5.2,2.3-5.2,5.2c0,1,0.3,2,0.8,2.7h8.7c0.5-0.8,0.8-1.7,0.8-2.7
		C248,394.4,245.8,392.2,243,392.1z"/>
</g>
</svg>
