<?xml version="1.0" encoding="utf-8"?>
<!-- Generator: Adobe Illustrator 24.0.3, SVG Export Plug-In . SVG Version: 6.00 Build 0)  -->
<svg version="1.1" id="Layer_1" xmlns="http://www.w3.org/2000/svg" xmlns:xlink="http://www.w3.org/1999/xlink" x="0px" y="0px"
	 viewBox="0 0 429.9 443.5" style="enable-background:new 0 0 429.9 443.5;" xml:space="preserve">
<style type="text/css">
	.st0{fill:#306421;}
</style>
<rect x="494.8" y="190.3" class="st0" width="429.8" height="444.5"/>
<title>sloth-card</title>
<g>
	<g>
		<g>
			<path class="st0" d="M-462.9,208.6c-52.3,0-94.7,32.1-94.7,71.6c-0.8,54.8-2.1,96.4-6.4,121.8l9.1,1.4c3.5-18.7,5.2-46.8,6-83.7
				c4-0.8,7.7-1.5,11.2-2.5c10.2,26.7,37.3,42.1,74.7,42.1s64.1-15.2,74.7-42.1c3.5,1,7.3,1.7,11.2,2.5c0,0.5,0,1,0,1.6
				c0.4,24.6,1.3,45.4,3.1,62.2c0.8,7.7,1.8,14.6,3,20.5l9.1-2.1c-4.7-24.8-6-66.7-6.4-121.8C-368.2,240.6-410.7,208.6-462.9,208.6z
				 M-536.4,248.1c0-0.1,0.1-0.1,0.1-0.2c14.9-17.6,41.5-29.8,72.1-30c0.3,0,0.6,0,0.9,0c31,0,58.1,12.3,73.1,30.2h0l0,0
				c0,0,0,0,0,0c-4.6-0.4-8.7-0.8-12.7-1c0,0,0,0,0,0c-14-13.3-35-20.4-60.4-20.4c-9.5,0-18.4,1-26.6,2.9c-2.7,0.6-5.4,1.4-7.9,2.3
				c-2.5,0.9-5,1.8-7.4,2.9c-3.5,1.6-6.9,3.4-10,5.5c-3.1,2.1-6,4.3-8.6,6.8C-527.7,247.3-531.9,247.7-536.4,248.1L-536.4,248.1
				L-536.4,248.1z M-549.1,310.6C-549.1,310.6-549.1,310.6-549.1,310.6c-0.1,0-0.1,0-0.2,0c0.6-9.8,0.8-19.8,0.8-30.2
				c0-7.5,1.7-15,5.2-21.7c6.6-0.9,12.4-1.5,17.5-1.7c28.1-1.5,34.5,6.4,36.4,14.7c1.2,4.2,0.4,8.7-2.1,12.5
				c-2.9,4.5-9,10.1-21.7,15.6c-6.3,2.8-14.2,5.5-24.2,8.1C-541,308.8-544.9,309.7-549.1,310.6z M-463.4,350.4c-0.1,0-0.1,0-0.2,0
				c-0.1,0-0.1,0-0.2,0c-32.7,0-56.4-12.7-65.6-35.2c23.5-6.7,38.7-15.8,45.2-26.2c3.7-5.8,5-13.1,3.3-19.8
				c-2.9-12.7-12.3-19.8-28.9-21.4c11.9-7.7,27.5-11.7,46-11.7c0.1,0,0.1,0,0.2,0c0.1,0,0.1,0,0.2,0c18.5,0,34.1,4,46,11.7
				c-17.1,2.1-26.2,9-29.1,21.7c-1.7,6.7-0.4,14,3.3,19.8c6.7,10.4,22.1,19.6,45.8,26.2C-407.1,337.7-430.5,350.4-463.4,350.4z
				 M-377.6,310.8c-4.5-1-8.7-2-12.6-3c-6.6-1.7-12.3-3.5-17.2-5.4c-17.4-6.4-25.1-13.1-28.2-18.3c-2.5-3.7-3.3-8.3-2.1-12.5
				c2-7.6,7.6-15,30.6-14.9c6.5,0,14.4,0.6,23.9,2c3.5,6.7,5.2,14.2,5.2,21.7c0,10.4,0.2,20.8,0.4,30.4
				C-377.4,310.8-377.5,310.8-377.6,310.8C-377.6,310.8-377.6,310.8-377.6,310.8z"/>
			<path class="st0" d="M-463.4,320c8.3,0,24.7-5,24.8-16.6c-0.1-13.4-16.9-13.4-24.8-13.4c-8.1,0-24.7,0-24.8,13.4
				C-488,314.8-471.7,320-463.4,320z"/>
			<path class="st0" d="M-514.8,288.1c6,0,10.8-4.7,10.8-10.7c0-0.4-0.1-0.7-0.1-1.1c-0.1-0.4-0.1-0.7-0.2-1.1
				c-0.1-0.3-0.2-0.5-0.3-0.8c-0.1-0.4-0.2-0.7-0.4-1.1c-1.7-3.8-5.5-6.5-9.8-6.6c-6,0-10.8,4.7-10.8,10.7
				C-525.5,283.4-520.8,288.1-514.8,288.1z"/>
			<path class="st0" d="M-400.9,278.3c0,0,0,0,0-0.2c0-6-4.7-10.8-10.7-10.8c-6,0.1-10.7,4.8-10.9,10.8c-0.2,6,4.7,10.8,10.7,11
				C-405.8,289.1-401.1,284.3-400.9,278.3z"/>
			<path class="st0" d="M-463.8,330.6c-23.7-0.2-39.1-6.7-39.1-12.7h-9.6c0.1,5.2,3.3,12.3,17.1,17.1c10.4,3.3,21,4.8,32.1,4.6
				c22.4,0,48.7-5.4,48.9-21.4h-9.6C-424,324.1-440,330.6-463.8,330.6z"/>
		</g>
		<g>
			<path class="st0" d="M-462.9,13c-52.3,0-94.7,32.1-94.7,71.6c-0.8,54.8-2.1,96.4-6.4,121.8l9.1,1.4c3.5-18.7,5.2-46.8,6-83.7
				c4-0.8,7.7-1.5,11.2-2.5c10.2,26.7,37.3,42.1,74.7,42.1s64.1-15.2,74.7-42.1c3.5,1,7.3,1.7,11.2,2.5c0,0.5,0,1,0,1.6
				c0.4,24.6,1.3,45.4,3.1,62.2c0.8,7.7,1.8,14.6,3,20.5l9.1-2.1c-4.7-24.8-6-66.7-6.4-121.8C-368.2,45-410.7,13-462.9,13z
				 M-536.4,52.5c0-0.1,0.1-0.1,0.1-0.2c14.9-17.6,41.5-29.8,72.1-30c0.3,0,0.6,0,0.9,0c31,0,58.1,12.3,73.1,30.2h0l0,0c0,0,0,0,0,0
				c-4.6-0.4-8.7-0.8-12.7-1c0,0,0,0,0,0c-14-13.3-35-20.4-60.4-20.4c-9.5,0-18.4,1-26.6,2.9c-2.7,0.6-5.4,1.4-7.9,2.3
				c-2.5,0.9-5,1.8-7.4,2.9c-3.5,1.6-6.9,3.4-10,5.5c-3.1,2.1-6,4.3-8.6,6.8C-527.7,51.7-531.9,52.1-536.4,52.5L-536.4,52.5
				L-536.4,52.5z M-549.1,115C-549.1,115-549.1,115-549.1,115c-0.1,0-0.1,0-0.2,0c0.6-9.8,0.8-19.8,0.8-30.2c0-7.5,1.7-15,5.2-21.7
				c6.6-0.9,12.4-1.5,17.5-1.7c28.1-1.5,34.5,6.4,36.4,14.7c1.2,4.2,0.4,8.7-2.1,12.5c-2.9,4.5-9,10.1-21.7,15.6
				c-6.3,2.8-14.2,5.5-24.2,8.1C-541,113.2-544.9,114.1-549.1,115z M-463.4,154.8c-0.1,0-0.1,0-0.2,0c-0.1,0-0.1,0-0.2,0
				c-32.7,0-56.4-12.7-65.6-35.2c23.5-6.7,38.7-15.8,45.2-26.2c3.7-5.8,5-13.1,3.3-19.8c-2.9-12.7-12.3-19.8-28.9-21.4
				c11.9-7.7,27.5-11.7,46-11.7c0.1,0,0.1,0,0.2,0c0.1,0,0.1,0,0.2,0c18.5,0,34.1,4,46,11.7c-17.1,2.1-26.2,9-29.1,21.7
				c-1.7,6.7-0.4,14,3.3,19.8c6.7,10.4,22.1,19.6,45.8,26.2C-407.1,142.1-430.5,154.8-463.4,154.8z M-377.6,115.2
				c-4.5-1-8.7-2-12.6-3c-6.6-1.7-12.3-3.5-17.2-5.4c-17.4-6.4-25.1-13.1-28.2-18.3c-2.5-3.7-3.3-8.3-2.1-12.5
				c2-7.6,7.6-15,30.6-14.9c6.5,0,14.4,0.6,23.9,2c3.5,6.7,5.2,14.2,5.2,21.7c0,10.4,0.2,20.8,0.4,30.4
				C-377.4,115.2-377.5,115.2-377.6,115.2C-377.6,115.2-377.6,115.2-377.6,115.2z"/>
			<path class="st0" d="M-463.4,124.4c8.3,0,24.7-5,24.8-16.6c-0.1-13.4-16.9-13.4-24.8-13.4c-8.1,0-24.7,0-24.8,13.4
				C-488,119.2-471.7,124.4-463.4,124.4z"/>
			<path class="st0" d="M-514.8,92.5c6,0,10.8-4.7,10.8-10.7c0-0.4-0.1-0.7-0.1-1.1c-0.1-0.4-0.1-0.7-0.2-1.1
				c-0.1-0.3-0.2-0.5-0.3-0.8c-0.1-0.4-0.2-0.7-0.4-1.1c-1.7-3.8-5.5-6.5-9.8-6.6c-6,0-10.8,4.7-10.8,10.7
				C-525.5,87.8-520.8,92.5-514.8,92.5z"/>
			<path class="st0" d="M-400.9,82.7c0,0,0,0,0-0.2c0-6-4.7-10.8-10.7-10.8c-6,0.1-10.7,4.8-10.9,10.8c-0.2,6,4.7,10.8,10.7,11
				C-405.8,93.5-401.1,88.7-400.9,82.7z"/>
			<path class="st0" d="M-463.8,135c-23.7-0.2-39.1-6.7-39.1-12.7h-9.6c0.1,5.2,3.3,12.3,17.1,17.1c10.4,3.3,21,4.8,32.1,4.6
				c22.4,0,48.7-5.4,48.9-21.4h-9.6C-424,128.5-440,135-463.8,135z"/>
		</g>
		<g>
			<path class="st0" d="M-462.9,404.2c-52.3,0-94.7,32.1-94.7,71.6c-0.8,54.8-2.1,96.4-6.4,121.8l9.1,1.4c3.5-18.7,5.2-46.8,6-83.7
				c4-0.8,7.7-1.5,11.2-2.5c10.2,26.7,37.3,42.1,74.7,42.1s64.1-15.2,74.7-42.1c3.5,1,7.3,1.7,11.2,2.5c0,0.5,0,1,0,1.6
				c0.4,24.6,1.3,45.4,3.1,62.2c0.8,7.7,1.8,14.6,3,20.5l9.1-2.1c-4.7-24.8-6-66.7-6.4-121.8C-368.2,436.3-410.7,404.2-462.9,404.2z
				 M-536.4,443.8c0-0.1,0.1-0.1,0.1-0.2c14.9-17.6,41.5-29.8,72.1-30c0.3,0,0.6,0,0.9,0c31,0,58.1,12.3,73.1,30.2h0l0,0
				c0,0,0,0,0,0c-4.6-0.4-8.7-0.8-12.7-1c0,0,0,0,0,0c-14-13.3-35-20.4-60.4-20.4c-9.5,0-18.4,1-26.6,2.9c-2.7,0.6-5.4,1.4-7.9,2.3
				c-2.5,0.9-5,1.8-7.4,2.9c-3.5,1.6-6.9,3.4-10,5.5c-3.1,2.1-6,4.3-8.6,6.8C-527.7,442.9-531.9,443.3-536.4,443.8L-536.4,443.8
				L-536.4,443.8z M-549.1,506.2C-549.1,506.2-549.1,506.2-549.1,506.2c-0.1,0-0.1,0-0.2,0c0.6-9.8,0.8-19.8,0.8-30.2
				c0-7.5,1.7-15,5.2-21.7c6.6-0.9,12.4-1.5,17.5-1.7c28.1-1.5,34.5,6.4,36.4,14.7c1.2,4.2,0.4,8.7-2.1,12.5
				c-2.9,4.5-9,10.1-21.7,15.6c-6.3,2.8-14.2,5.5-24.2,8.1C-541,504.4-544.9,505.3-549.1,506.2z M-463.4,546c-0.1,0-0.1,0-0.2,0
				c-0.1,0-0.1,0-0.2,0c-32.7,0-56.4-12.7-65.6-35.2c23.5-6.7,38.7-15.8,45.2-26.2c3.7-5.8,5-13.1,3.3-19.8
				c-2.9-12.7-12.3-19.8-28.9-21.4c11.9-7.7,27.5-11.7,46-11.7c0.1,0,0.1,0,0.2,0c0.1,0,0.1,0,0.2,0c18.5,0,34.1,4,46,11.7
				c-17.1,2.1-26.2,9-29.1,21.7c-1.7,6.7-0.4,14,3.3,19.8c6.7,10.4,22.1,19.6,45.8,26.2C-407.1,533.3-430.5,546-463.4,546z
				 M-377.6,506.4c-4.5-1-8.7-2-12.6-3c-6.6-1.7-12.3-3.5-17.2-5.4c-17.4-6.4-25.1-13.1-28.2-18.3c-2.5-3.7-3.3-8.3-2.1-12.5
				c2-7.6,7.6-15,30.6-14.9c6.5,0,14.4,0.6,23.9,2c3.5,6.7,5.2,14.2,5.2,21.7c0,10.4,0.2,20.8,0.4,30.4
				C-377.4,506.4-377.5,506.4-377.6,506.4C-377.6,506.4-377.6,506.4-377.6,506.4z"/>
			<path class="st0" d="M-463.4,515.6c8.3,0,24.7-5,24.8-16.6c-0.1-13.4-16.9-13.4-24.8-13.4c-8.1,0-24.7,0-24.8,13.4
				C-488,510.4-471.7,515.6-463.4,515.6z"/>
			<path class="st0" d="M-514.8,483.7c6,0,10.8-4.7,10.8-10.7c0-0.4-0.1-0.7-0.1-1.1c-0.1-0.4-0.1-0.7-0.2-1.1
				c-0.1-0.3-0.2-0.5-0.3-0.8c-0.1-0.4-0.2-0.7-0.4-1.1c-1.7-3.8-5.5-6.5-9.8-6.6c-6,0-10.8,4.7-10.8,10.7
				C-525.5,479-520.8,483.7-514.8,483.7z"/>
			<path class="st0" d="M-400.9,473.9c0,0,0,0,0-0.2c0-6-4.7-10.8-10.7-10.8c-6,0.1-10.7,4.8-10.9,10.8c-0.2,6,4.7,10.8,10.7,11
				C-405.8,484.7-401.1,480-400.9,473.9z"/>
			<path class="st0" d="M-463.8,526.2c-23.7-0.2-39.1-6.7-39.1-12.7h-9.6c0.1,5.2,3.3,12.3,17.1,17.1c10.4,3.3,21,4.8,32.1,4.6
				c22.4,0,48.7-5.4,48.9-21.4h-9.6C-424,519.8-440,526.2-463.8,526.2z"/>
		</g>
		<g>
			<path class="st0" d="M-462.9,599.8c-52.3,0-94.7,32.1-94.7,71.6c-0.8,54.8-2.1,96.4-6.4,121.8l9.1,1.4c3.5-18.7,5.2-46.8,6-83.7
				c4-0.8,7.7-1.5,11.2-2.5c10.2,26.7,37.3,42.1,74.7,42.1s64.1-15.2,74.7-42.1c3.5,1,7.3,1.7,11.2,2.5c0,0.5,0,1,0,1.6
				c0.4,24.6,1.3,45.4,3.1,62.2c0.8,7.7,1.8,14.6,3,20.5l9.1-2.1c-4.7-24.8-6-66.7-6.4-121.8C-368.2,631.9-410.7,599.8-462.9,599.8z
				 M-536.4,639.4c0-0.1,0.1-0.1,0.1-0.2c14.9-17.6,41.5-29.8,72.1-30c0.3,0,0.6,0,0.9,0c31,0,58.1,12.3,73.1,30.2h0l0,0
				c0,0,0,0,0,0c-4.6-0.4-8.7-0.8-12.7-1c0,0,0,0,0,0c-14-13.3-35-20.4-60.4-20.4c-9.5,0-18.4,1-26.6,2.9c-2.7,0.6-5.4,1.4-7.9,2.3
				c-2.5,0.9-5,1.8-7.4,2.9c-3.5,1.6-6.9,3.4-10,5.5c-3.1,2.1-6,4.3-8.6,6.8C-527.7,638.5-531.9,639-536.4,639.4L-536.4,639.4
				L-536.4,639.4z M-549.1,701.8C-549.1,701.8-549.1,701.8-549.1,701.8c-0.1,0-0.1,0-0.2,0c0.6-9.8,0.8-19.8,0.8-30.2
				c0-7.5,1.7-15,5.2-21.7c6.6-0.9,12.4-1.5,17.5-1.7c28.1-1.5,34.5,6.4,36.4,14.7c1.2,4.2,0.4,8.7-2.1,12.5
				c-2.9,4.5-9,10.1-21.7,15.6c-6.3,2.8-14.2,5.5-24.2,8.1C-541,700-544.9,700.9-549.1,701.8z M-463.4,741.6c-0.1,0-0.1,0-0.2,0
				c-0.1,0-0.1,0-0.2,0c-32.7,0-56.4-12.7-65.6-35.2c23.5-6.7,38.7-15.8,45.2-26.2c3.7-5.8,5-13.1,3.3-19.8
				c-2.9-12.7-12.3-19.8-28.9-21.4c11.9-7.7,27.5-11.7,46-11.7c0.1,0,0.1,0,0.2,0c0.1,0,0.1,0,0.2,0c18.5,0,34.1,4,46,11.7
				c-17.1,2.1-26.2,9-29.1,21.7c-1.7,6.7-0.4,14,3.3,19.8c6.7,10.4,22.1,19.6,45.8,26.2C-407.1,728.9-430.5,741.6-463.4,741.6z
				 M-377.6,702c-4.5-1-8.7-2-12.6-3c-6.6-1.7-12.3-3.5-17.2-5.4c-17.4-6.4-25.1-13.1-28.2-18.3c-2.5-3.7-3.3-8.3-2.1-12.5
				c2-7.6,7.6-15,30.6-14.9c6.5,0,14.4,0.6,23.9,2c3.5,6.7,5.2,14.2,5.2,21.7c0,10.4,0.2,20.8,0.4,30.4
				C-377.4,702-377.5,702-377.6,702C-377.6,702-377.6,702-377.6,702z"/>
			<path class="st0" d="M-463.4,711.2c8.3,0,24.7-5,24.8-16.6c-0.1-13.4-16.9-13.4-24.8-13.4c-8.1,0-24.7,0-24.8,13.4
				C-488,706-471.7,711.2-463.4,711.2z"/>
			<path class="st0" d="M-514.8,679.4c6,0,10.8-4.7,10.8-10.7c0-0.4-0.1-0.7-0.1-1.1c-0.1-0.4-0.1-0.7-0.2-1.1
				c-0.1-0.3-0.2-0.5-0.3-0.8c-0.1-0.4-0.2-0.7-0.4-1.1c-1.7-3.8-5.5-6.5-9.8-6.6c-6,0-10.8,4.7-10.8,10.7
				C-525.5,674.6-520.8,679.4-514.8,679.4z"/>
			<path class="st0" d="M-400.9,669.6c0,0,0,0,0-0.2c0-6-4.7-10.8-10.7-10.8c-6,0.1-10.7,4.8-10.9,10.8c-0.2,6,4.7,10.8,10.7,11
				C-405.8,680.3-401.1,675.6-400.9,669.6z"/>
			<path class="st0" d="M-463.8,721.8c-23.7-0.2-39.1-6.7-39.1-12.7h-9.6c0.1,5.2,3.3,12.3,17.1,17.1c10.4,3.3,21,4.8,32.1,4.6
				c22.4,0,48.7-5.4,48.9-21.4h-9.6C-424,715.4-440,721.8-463.8,721.8z"/>
		</g>
		<g>
			<path class="st0" d="M-462.9,795.4c-52.3,0-94.7,32.1-94.7,71.6c-0.8,54.8-2.1,96.4-6.4,121.8l9.1,1.4c3.5-18.7,5.2-46.8,6-83.7
				c4-0.8,7.7-1.5,11.2-2.5c10.2,26.7,37.3,42.1,74.7,42.1s64.1-15.2,74.7-42.1c3.5,1,7.3,1.7,11.2,2.5c0,0.5,0,1,0,1.6
				c0.4,24.6,1.3,45.4,3.1,62.2c0.8,7.7,1.8,14.6,3,20.5l9.1-2.1c-4.7-24.8-6-66.7-6.4-121.8C-368.2,827.5-410.7,795.4-462.9,795.4z
				 M-536.4,835c0-0.1,0.1-0.1,0.1-0.2c14.9-17.6,41.5-29.8,72.1-30c0.3,0,0.6,0,0.9,0c31,0,58.1,12.3,73.1,30.2h0l0,0c0,0,0,0,0,0
				c-4.6-0.4-8.7-0.8-12.7-1c0,0,0,0,0,0c-14-13.3-35-20.4-60.4-20.4c-9.5,0-18.4,1-26.6,2.9c-2.7,0.6-5.4,1.4-7.9,2.3
				c-2.5,0.9-5,1.8-7.4,2.9c-3.5,1.6-6.9,3.4-10,5.5c-3.1,2.1-6,4.3-8.6,6.8C-527.7,834.2-531.9,834.6-536.4,835L-536.4,835
				L-536.4,835z M-549.1,897.5C-549.1,897.4-549.1,897.4-549.1,897.5c-0.1,0-0.1,0-0.2,0c0.6-9.8,0.8-19.8,0.8-30.2
				c0-7.5,1.7-15,5.2-21.7c6.6-0.9,12.4-1.5,17.5-1.7c28.1-1.5,34.5,6.4,36.4,14.7c1.2,4.2,0.4,8.7-2.1,12.5
				c-2.9,4.5-9,10.1-21.7,15.6c-6.3,2.8-14.2,5.5-24.2,8.1C-541,895.6-544.9,896.6-549.1,897.5z M-463.4,937.2c-0.1,0-0.1,0-0.2,0
				c-0.1,0-0.1,0-0.2,0c-32.7,0-56.4-12.7-65.6-35.2c23.5-6.7,38.7-15.8,45.2-26.2c3.7-5.8,5-13.1,3.3-19.8
				c-2.9-12.7-12.3-19.8-28.9-21.4c11.9-7.7,27.5-11.7,46-11.7c0.1,0,0.1,0,0.2,0c0.1,0,0.1,0,0.2,0c18.5,0,34.1,4,46,11.7
				c-17.1,2.1-26.2,9-29.1,21.7c-1.7,6.7-0.4,14,3.3,19.8c6.7,10.4,22.1,19.6,45.8,26.2C-407.1,924.5-430.5,937.2-463.4,937.2z
				 M-377.6,897.7c-4.5-1-8.7-2-12.6-3c-6.6-1.7-12.3-3.5-17.2-5.4c-17.4-6.4-25.1-13.1-28.2-18.3c-2.5-3.7-3.3-8.3-2.1-12.5
				c2-7.6,7.6-15,30.6-14.9c6.5,0,14.4,0.6,23.9,2c3.5,6.7,5.2,14.2,5.2,21.7c0,10.4,0.2,20.8,0.4,30.4
				C-377.4,897.6-377.5,897.6-377.6,897.7C-377.6,897.6-377.6,897.7-377.6,897.7z"/>
			<path class="st0" d="M-463.4,906.8c8.3,0,24.7-5,24.8-16.6c-0.1-13.4-16.9-13.4-24.8-13.4c-8.1,0-24.7,0-24.8,13.4
				C-488,901.6-471.7,906.8-463.4,906.8z"/>
			<path class="st0" d="M-514.8,875c6,0,10.8-4.7,10.8-10.7c0-0.4-0.1-0.7-0.1-1.1c-0.1-0.4-0.1-0.7-0.2-1.1
				c-0.1-0.3-0.2-0.5-0.3-0.8c-0.1-0.4-0.2-0.7-0.4-1.1c-1.7-3.8-5.5-6.5-9.8-6.6c-6,0-10.8,4.7-10.8,10.7
				C-525.5,870.2-520.8,875-514.8,875z"/>
			<path class="st0" d="M-400.9,865.2c0,0,0,0,0-0.2c0-6-4.7-10.8-10.7-10.8c-6,0.1-10.7,4.8-10.9,10.8c-0.2,6,4.7,10.8,10.7,11
				C-405.8,876-401.1,871.2-400.9,865.2z"/>
			<path class="st0" d="M-463.8,917.4c-23.7-0.2-39.1-6.7-39.1-12.7h-9.6c0.1,5.2,3.3,12.3,17.1,17.1c10.4,3.3,21,4.8,32.1,4.6
				c22.4,0,48.7-5.4,48.9-21.4h-9.6C-424,911-440,917.4-463.8,917.4z"/>
		</g>
	</g>
	<g>
		<g>
			<path class="st0" d="M-0.5,208.6c-52.3,0-94.7,32.1-94.7,71.6c-0.8,54.8-2.1,96.4-6.4,121.8l9.1,1.4c3.5-18.7,5.2-46.8,6-83.7
				c4-0.8,7.7-1.5,11.2-2.5c10.2,26.7,37.3,42.1,74.7,42.1s64.1-15.2,74.7-42.1c3.5,1,7.3,1.7,11.2,2.5c0,0.5,0,1,0,1.6
				c0.4,24.6,1.3,45.4,3.1,62.2c0.8,7.7,1.8,14.6,3,20.5l9.1-2.1c-4.7-24.8-6-66.7-6.4-121.8C94.2,240.6,51.7,208.6-0.5,208.6z
				 M-74,248.1c0-0.1,0.1-0.1,0.1-0.2c14.9-17.6,41.5-29.8,72.1-30c0.3,0,0.6,0,0.9,0c31,0,58.1,12.3,73.1,30.2h0l0,0c0,0,0,0,0,0
				c-4.6-0.4-8.7-0.8-12.7-1c0,0,0,0,0,0c-14-13.3-35-20.4-60.4-20.4c-9.5,0-18.4,1-26.6,2.9c-2.7,0.6-5.4,1.4-7.9,2.3
				c-2.5,0.9-5,1.8-7.4,2.9c-3.5,1.6-6.9,3.4-10,5.5c-3.1,2.1-6,4.3-8.6,6.8C-65.3,247.3-69.5,247.7-74,248.1L-74,248.1L-74,248.1z
				 M-86.7,310.6C-86.7,310.6-86.7,310.6-86.7,310.6c-0.1,0-0.1,0-0.2,0c0.6-9.8,0.8-19.8,0.8-30.2c0-7.5,1.7-15,5.2-21.7
				c6.6-0.9,12.4-1.5,17.5-1.7c28.1-1.5,34.5,6.4,36.4,14.7c1.2,4.2,0.4,8.7-2.1,12.5c-2.9,4.5-9,10.1-21.7,15.6
				c-6.3,2.8-14.2,5.5-24.2,8.1C-78.6,308.8-82.5,309.7-86.7,310.6z M-1,350.4c-0.1,0-0.1,0-0.2,0c-0.1,0-0.1,0-0.2,0
				c-32.7,0-56.4-12.7-65.6-35.2c23.5-6.7,38.7-15.8,45.2-26.2c3.7-5.8,5-13.1,3.3-19.8c-2.9-12.7-12.3-19.8-28.9-21.4
				c11.9-7.7,27.5-11.7,46-11.7c0.1,0,0.1,0,0.2,0c0.1,0,0.1,0,0.2,0c18.5,0,34.1,4,46,11.7c-17.1,2.1-26.2,9-29.1,21.7
				c-1.7,6.7-0.4,14,3.3,19.8c6.7,10.4,22.1,19.6,45.8,26.2C55.3,337.7,31.9,350.4-1,350.4z M84.8,310.8c-4.5-1-8.7-2-12.6-3
				c-6.6-1.7-12.3-3.5-17.2-5.4C37.7,296,30,289.3,26.9,284.2c-2.5-3.7-3.3-8.3-2.1-12.5c2-7.6,7.6-15,30.6-14.9
				c6.5,0,14.4,0.6,23.9,2c3.5,6.7,5.2,14.2,5.2,21.7c0,10.4,0.2,20.8,0.4,30.4C85,310.8,84.9,310.8,84.8,310.8
				C84.8,310.8,84.8,310.8,84.8,310.8z"/>
			<path class="st0" d="M-1,320c8.3,0,24.7-5,24.8-16.6C23.7,290,6.9,290-1,290c-8.1,0-24.7,0-24.8,13.4C-25.6,314.8-9.3,320-1,320z
				"/>
			<path class="st0" d="M-52.4,288.1c6,0,10.8-4.7,10.8-10.7c0-0.4-0.1-0.7-0.1-1.1c-0.1-0.4-0.1-0.7-0.2-1.1
				c-0.1-0.3-0.2-0.5-0.3-0.8c-0.1-0.4-0.2-0.7-0.4-1.1c-1.7-3.8-5.5-6.5-9.8-6.6c-6,0-10.8,4.7-10.8,10.7
				C-63.2,283.4-58.4,288.1-52.4,288.1z"/>
			<path class="st0" d="M61.5,278.3c0,0,0,0,0-0.2c0-6-4.7-10.8-10.7-10.8c-6,0.1-10.7,4.8-10.9,10.8c-0.2,6,4.7,10.8,10.7,11
				C56.6,289.1,61.3,284.3,61.5,278.3z"/>
			<path class="st0" d="M-1.4,330.6c-23.7-0.2-39.1-6.7-39.1-12.7h-9.6c0.1,5.2,3.3,12.3,17.1,17.1c10.4,3.3,21,4.8,32.1,4.6
				c22.4,0,48.7-5.4,48.9-21.4h-9.6C38.4,324.1,22.4,330.6-1.4,330.6z"/>
		</g>
		<g>
			<path class="st0" d="M-0.5,13C-52.8,13-95.3,45-95.3,84.6c-0.8,54.8-2.1,96.4-6.4,121.8l9.1,1.4c3.5-18.7,5.2-46.8,6-83.7
				c4-0.8,7.7-1.5,11.2-2.5c10.2,26.7,37.3,42.1,74.7,42.1s64.1-15.2,74.7-42.1c3.5,1,7.3,1.7,11.2,2.5c0,0.5,0,1,0,1.6
				c0.4,24.6,1.3,45.4,3.1,62.2c0.8,7.7,1.8,14.6,3,20.5l9.1-2.1c-4.7-24.8-6-66.7-6.4-121.8C94.2,45,51.7,13-0.5,13z M-74,52.5
				c0-0.1,0.1-0.1,0.1-0.2c14.9-17.6,41.5-29.8,72.1-30c0.3,0,0.6,0,0.9,0c31,0,58.1,12.3,73.1,30.2h0l0,0c0,0,0,0,0,0
				c-4.6-0.4-8.7-0.8-12.7-1c0,0,0,0,0,0c-14-13.3-35-20.4-60.4-20.4c-9.5,0-18.4,1-26.6,2.9c-2.7,0.6-5.4,1.4-7.9,2.3
				c-2.5,0.9-5,1.8-7.4,2.9c-3.5,1.6-6.9,3.4-10,5.5c-3.1,2.1-6,4.3-8.6,6.8C-65.3,51.7-69.5,52.1-74,52.5L-74,52.5L-74,52.5z
				 M-86.7,115C-86.7,115-86.7,115-86.7,115c-0.1,0-0.1,0-0.2,0c0.6-9.8,0.8-19.8,0.8-30.2c0-7.5,1.7-15,5.2-21.7
				c6.6-0.9,12.4-1.5,17.5-1.7c28.1-1.5,34.5,6.4,36.4,14.7c1.2,4.2,0.4,8.7-2.1,12.5c-2.9,4.5-9,10.1-21.7,15.6
				c-6.3,2.8-14.2,5.5-24.2,8.1C-78.6,113.2-82.5,114.1-86.7,115z M-1,154.8c-0.1,0-0.1,0-0.2,0c-0.1,0-0.1,0-0.2,0
				c-32.7,0-56.4-12.7-65.6-35.2c23.5-6.7,38.7-15.8,45.2-26.2c3.7-5.8,5-13.1,3.3-19.8c-2.9-12.7-12.3-19.8-28.9-21.4
				c11.9-7.7,27.5-11.7,46-11.7c0.1,0,0.1,0,0.2,0c0.1,0,0.1,0,0.2,0c18.5,0,34.1,4,46,11.7c-17.1,2.1-26.2,9-29.1,21.7
				c-1.7,6.7-0.4,14,3.3,19.8c6.7,10.4,22.1,19.6,45.8,26.2C55.3,142.1,31.9,154.8-1,154.8z M84.8,115.2c-4.5-1-8.7-2-12.6-3
				c-6.6-1.7-12.3-3.5-17.2-5.4C37.7,100.4,30,93.7,26.9,88.5c-2.5-3.7-3.3-8.3-2.1-12.5c2-7.6,7.6-15,30.6-14.9
				c6.5,0,14.4,0.6,23.9,2c3.5,6.7,5.2,14.2,5.2,21.7c0,10.4,0.2,20.8,0.4,30.4C85,115.2,84.9,115.2,84.8,115.2
				C84.8,115.2,84.8,115.2,84.8,115.2z"/>
			<path class="st0" d="M-1,124.4c8.3,0,24.7-5,24.8-16.6C23.7,94.4,6.9,94.4-1,94.4c-8.1,0-24.7,0-24.8,13.4
				C-25.6,119.2-9.3,124.4-1,124.4z"/>
			<path class="st0" d="M-52.4,92.5c6,0,10.8-4.7,10.8-10.7c0-0.4-0.1-0.7-0.1-1.1c-0.1-0.4-0.1-0.7-0.2-1.1
				c-0.1-0.3-0.2-0.5-0.3-0.8c-0.1-0.4-0.2-0.7-0.4-1.1c-1.7-3.8-5.5-6.5-9.8-6.6c-6,0-10.8,4.7-10.8,10.7
				C-63.2,87.8-58.4,92.5-52.4,92.5z"/>
			<path class="st0" d="M61.5,82.7c0,0,0,0,0-0.2c0-6-4.7-10.8-10.7-10.8c-6,0.1-10.7,4.8-10.9,10.8c-0.2,6,4.7,10.8,10.7,11
				C56.6,93.5,61.3,88.7,61.5,82.7z"/>
			<path class="st0" d="M-1.4,135c-23.7-0.2-39.1-6.7-39.1-12.7h-9.6c0.1,5.2,3.3,12.3,17.1,17.1c10.4,3.3,21,4.8,32.1,4.6
				c22.4,0,48.7-5.4,48.9-21.4h-9.6C38.4,128.5,22.4,135-1.4,135z"/>
		</g>
		<g>
			<path class="st0" d="M-0.5,404.2c-52.3,0-94.7,32.1-94.7,71.6c-0.8,54.8-2.1,96.4-6.4,121.8l9.1,1.4c3.5-18.7,5.2-46.8,6-83.7
				c4-0.8,7.7-1.5,11.2-2.5c10.2,26.7,37.3,42.1,74.7,42.1s64.1-15.2,74.7-42.1c3.5,1,7.3,1.7,11.2,2.5c0,0.5,0,1,0,1.6
				c0.4,24.6,1.3,45.4,3.1,62.2c0.8,7.7,1.8,14.6,3,20.5l9.1-2.1c-4.7-24.8-6-66.7-6.4-121.8C94.2,436.3,51.7,404.2-0.5,404.2z
				 M-74,443.8c0-0.1,0.1-0.1,0.1-0.2c14.9-17.6,41.5-29.8,72.1-30c0.3,0,0.6,0,0.9,0c31,0,58.1,12.3,73.1,30.2h0l0,0c0,0,0,0,0,0
				c-4.6-0.4-8.7-0.8-12.7-1c0,0,0,0,0,0c-14-13.3-35-20.4-60.4-20.4c-9.5,0-18.4,1-26.6,2.9c-2.7,0.6-5.4,1.4-7.9,2.3
				c-2.5,0.9-5,1.8-7.4,2.9c-3.5,1.6-6.9,3.4-10,5.5c-3.1,2.1-6,4.3-8.6,6.8C-65.3,442.9-69.5,443.3-74,443.8L-74,443.8L-74,443.8z
				 M-86.7,506.2C-86.7,506.2-86.7,506.2-86.7,506.2c-0.1,0-0.1,0-0.2,0c0.6-9.8,0.8-19.8,0.8-30.2c0-7.5,1.7-15,5.2-21.7
				c6.6-0.9,12.4-1.5,17.5-1.7c28.1-1.5,34.5,6.4,36.4,14.7c1.2,4.2,0.4,8.7-2.1,12.5c-2.9,4.5-9,10.1-21.7,15.6
				c-6.3,2.8-14.2,5.5-24.2,8.1C-78.6,504.4-82.5,505.3-86.7,506.2z M-1,546c-0.1,0-0.1,0-0.2,0c-0.1,0-0.1,0-0.2,0
				c-32.7,0-56.4-12.7-65.6-35.2c23.5-6.7,38.7-15.8,45.2-26.2c3.7-5.8,5-13.1,3.3-19.8c-2.9-12.7-12.3-19.8-28.9-21.4
				c11.9-7.7,27.5-11.7,46-11.7c0.1,0,0.1,0,0.2,0c0.1,0,0.1,0,0.2,0c18.5,0,34.1,4,46,11.7c-17.1,2.1-26.2,9-29.1,21.7
				c-1.7,6.7-0.4,14,3.3,19.8c6.7,10.4,22.1,19.6,45.8,26.2C55.3,533.3,31.9,546-1,546z M84.8,506.4c-4.5-1-8.7-2-12.6-3
				c-6.6-1.7-12.3-3.5-17.2-5.4c-17.4-6.4-25.1-13.1-28.2-18.3c-2.5-3.7-3.3-8.3-2.1-12.5c2-7.6,7.6-15,30.6-14.9
				c6.5,0,14.4,0.6,23.9,2c3.5,6.7,5.2,14.2,5.2,21.7c0,10.4,0.2,20.8,0.4,30.4C85,506.4,84.9,506.4,84.8,506.4
				C84.8,506.4,84.8,506.4,84.8,506.4z"/>
			<path class="st0" d="M-1,515.6c8.3,0,24.7-5,24.8-16.6C23.7,485.6,6.9,485.6-1,485.6c-8.1,0-24.7,0-24.8,13.4
				C-25.6,510.4-9.3,515.6-1,515.6z"/>
			<path class="st0" d="M-52.4,483.7c6,0,10.8-4.7,10.8-10.7c0-0.4-0.1-0.7-0.1-1.1c-0.1-0.4-0.1-0.7-0.2-1.1
				c-0.1-0.3-0.2-0.5-0.3-0.8c-0.1-0.4-0.2-0.7-0.4-1.1c-1.7-3.8-5.5-6.5-9.8-6.6c-6,0-10.8,4.7-10.8,10.7
				C-63.2,479-58.4,483.7-52.4,483.7z"/>
			<path class="st0" d="M61.5,473.9c0,0,0,0,0-0.2c0-6-4.7-10.8-10.7-10.8c-6,0.1-10.7,4.8-10.9,10.8c-0.2,6,4.7,10.8,10.7,11
				C56.6,484.7,61.3,480,61.5,473.9z"/>
			<path class="st0" d="M-1.4,526.2c-23.7-0.2-39.1-6.7-39.1-12.7h-9.6c0.1,5.2,3.3,12.3,17.1,17.1c10.4,3.3,21,4.8,32.1,4.6
				c22.4,0,48.7-5.4,48.9-21.4h-9.6C38.4,519.8,22.4,526.2-1.4,526.2z"/>
		</g>
		<g>
			<path class="st0" d="M-0.5,599.8c-52.3,0-94.7,32.1-94.7,71.6c-0.8,54.8-2.1,96.4-6.4,121.8l9.1,1.4c3.5-18.7,5.2-46.8,6-83.7
				c4-0.8,7.7-1.5,11.2-2.5c10.2,26.7,37.3,42.1,74.7,42.1s64.1-15.2,74.7-42.1c3.5,1,7.3,1.7,11.2,2.5c0,0.5,0,1,0,1.6
				c0.4,24.6,1.3,45.4,3.1,62.2c0.8,7.7,1.8,14.6,3,20.5l9.1-2.1c-4.7-24.8-6-66.7-6.4-121.8C94.2,631.9,51.7,599.8-0.5,599.8z
				 M-74,639.4c0-0.1,0.1-0.1,0.1-0.2c14.9-17.6,41.5-29.8,72.1-30c0.3,0,0.6,0,0.9,0c31,0,58.1,12.3,73.1,30.2h0l0,0c0,0,0,0,0,0
				c-4.6-0.4-8.7-0.8-12.7-1c0,0,0,0,0,0c-14-13.3-35-20.4-60.4-20.4c-9.5,0-18.4,1-26.6,2.9c-2.7,0.6-5.4,1.4-7.9,2.3
				c-2.5,0.9-5,1.8-7.4,2.9c-3.5,1.6-6.9,3.4-10,5.5c-3.1,2.1-6,4.3-8.6,6.8C-65.3,638.5-69.5,639-74,639.4L-74,639.4L-74,639.4z
				 M-86.7,701.8C-86.7,701.8-86.7,701.8-86.7,701.8c-0.1,0-0.1,0-0.2,0c0.6-9.8,0.8-19.8,0.8-30.2c0-7.5,1.7-15,5.2-21.7
				c6.6-0.9,12.4-1.5,17.5-1.7c28.1-1.5,34.5,6.4,36.4,14.7c1.2,4.2,0.4,8.7-2.1,12.5c-2.9,4.5-9,10.1-21.7,15.6
				c-6.3,2.8-14.2,5.5-24.2,8.1C-78.6,700-82.5,700.9-86.7,701.8z M-1,741.6c-0.1,0-0.1,0-0.2,0c-0.1,0-0.1,0-0.2,0
				c-32.7,0-56.4-12.7-65.6-35.2c23.5-6.7,38.7-15.8,45.2-26.2c3.7-5.8,5-13.1,3.3-19.8c-2.9-12.7-12.3-19.8-28.9-21.4
				c11.9-7.7,27.5-11.7,46-11.7c0.1,0,0.1,0,0.2,0c0.1,0,0.1,0,0.2,0c18.5,0,34.1,4,46,11.7c-17.1,2.1-26.2,9-29.1,21.7
				c-1.7,6.7-0.4,14,3.3,19.8c6.7,10.4,22.1,19.6,45.8,26.2C55.3,728.9,31.9,741.6-1,741.6z M84.8,702c-4.5-1-8.7-2-12.6-3
				c-6.6-1.7-12.3-3.5-17.2-5.4c-17.4-6.4-25.1-13.1-28.2-18.3c-2.5-3.7-3.3-8.3-2.1-12.5c2-7.6,7.6-15,30.6-14.9
				c6.5,0,14.4,0.6,23.9,2c3.5,6.7,5.2,14.2,5.2,21.7c0,10.4,0.2,20.8,0.4,30.4C85,702,84.9,702,84.8,702
				C84.8,702,84.8,702,84.8,702z"/>
			<path class="st0" d="M-1,711.2c8.3,0,24.7-5,24.8-16.6C23.7,681.2,6.9,681.2-1,681.2c-8.1,0-24.7,0-24.8,13.4
				C-25.6,706-9.3,711.2-1,711.2z"/>
			<path class="st0" d="M-52.4,679.4c6,0,10.8-4.7,10.8-10.7c0-0.4-0.1-0.7-0.1-1.1c-0.1-0.4-0.1-0.7-0.2-1.1
				c-0.1-0.3-0.2-0.5-0.3-0.8c-0.1-0.4-0.2-0.7-0.4-1.1c-1.7-3.8-5.5-6.5-9.8-6.6c-6,0-10.8,4.7-10.8,10.7
				C-63.2,674.6-58.4,679.4-52.4,679.4z"/>
			<path class="st0" d="M61.5,669.6c0,0,0,0,0-0.2c0-6-4.7-10.8-10.7-10.8c-6,0.1-10.7,4.8-10.9,10.8c-0.2,6,4.7,10.8,10.7,11
				C56.6,680.3,61.3,675.6,61.5,669.6z"/>
			<path class="st0" d="M-1.4,721.8c-23.7-0.2-39.1-6.7-39.1-12.7h-9.6c0.1,5.2,3.3,12.3,17.1,17.1c10.4,3.3,21,4.8,32.1,4.6
				c22.4,0,48.7-5.4,48.9-21.4h-9.6C38.4,715.4,22.4,721.8-1.4,721.8z"/>
		</g>
		<g>
			<path class="st0" d="M-0.5,795.4c-52.3,0-94.7,32.1-94.7,71.6c-0.8,54.8-2.1,96.4-6.4,121.8l9.1,1.4c3.5-18.7,5.2-46.8,6-83.7
				c4-0.8,7.7-1.5,11.2-2.5c10.2,26.7,37.3,42.1,74.7,42.1s64.1-15.2,74.7-42.1c3.5,1,7.3,1.7,11.2,2.5c0,0.5,0,1,0,1.6
				c0.4,24.6,1.3,45.4,3.1,62.2c0.8,7.7,1.8,14.6,3,20.5l9.1-2.1c-4.7-24.8-6-66.7-6.4-121.8C94.2,827.5,51.7,795.4-0.5,795.4z
				 M-74,835c0-0.1,0.1-0.1,0.1-0.2c14.9-17.6,41.5-29.8,72.1-30c0.3,0,0.6,0,0.9,0c31,0,58.1,12.3,73.1,30.2h0l0,0c0,0,0,0,0,0
				c-4.6-0.4-8.7-0.8-12.7-1c0,0,0,0,0,0c-14-13.3-35-20.4-60.4-20.4c-9.5,0-18.4,1-26.6,2.9c-2.7,0.6-5.4,1.4-7.9,2.3
				c-2.5,0.9-5,1.8-7.4,2.9c-3.5,1.6-6.9,3.4-10,5.5c-3.1,2.1-6,4.3-8.6,6.8C-65.3,834.2-69.5,834.6-74,835L-74,835L-74,835z
				 M-86.7,897.5C-86.7,897.4-86.7,897.4-86.7,897.5c-0.1,0-0.1,0-0.2,0c0.6-9.8,0.8-19.8,0.8-30.2c0-7.5,1.7-15,5.2-21.7
				c6.6-0.9,12.4-1.5,17.5-1.7c28.1-1.5,34.5,6.4,36.4,14.7c1.2,4.2,0.4,8.7-2.1,12.5c-2.9,4.5-9,10.1-21.7,15.6
				c-6.3,2.8-14.2,5.5-24.2,8.1C-78.6,895.6-82.5,896.6-86.7,897.5z M-1,937.2c-0.1,0-0.1,0-0.2,0c-0.1,0-0.1,0-0.2,0
				c-32.7,0-56.4-12.7-65.6-35.2c23.5-6.7,38.7-15.8,45.2-26.2c3.7-5.8,5-13.1,3.3-19.8c-2.9-12.7-12.3-19.8-28.9-21.4
				c11.9-7.7,27.5-11.7,46-11.7c0.1,0,0.1,0,0.2,0c0.1,0,0.1,0,0.2,0c18.5,0,34.1,4,46,11.7c-17.1,2.1-26.2,9-29.1,21.7
				c-1.7,6.7-0.4,14,3.3,19.8c6.7,10.4,22.1,19.6,45.8,26.2C55.3,924.5,31.9,937.2-1,937.2z M84.8,897.7c-4.5-1-8.7-2-12.6-3
				c-6.6-1.7-12.3-3.5-17.2-5.4C37.7,882.8,30,876.2,26.9,871c-2.5-3.7-3.3-8.3-2.1-12.5c2-7.6,7.6-15,30.6-14.9
				c6.5,0,14.4,0.6,23.9,2c3.5,6.7,5.2,14.2,5.2,21.7c0,10.4,0.2,20.8,0.4,30.4C85,897.6,84.9,897.6,84.8,897.7
				C84.8,897.6,84.8,897.7,84.8,897.7z"/>
			<path class="st0" d="M-1,906.8c8.3,0,24.7-5,24.8-16.6C23.7,876.9,6.9,876.8-1,876.8c-8.1,0-24.7,0-24.8,13.4
				C-25.6,901.6-9.3,906.8-1,906.8z"/>
			<path class="st0" d="M-52.4,875c6,0,10.8-4.7,10.8-10.7c0-0.4-0.1-0.7-0.1-1.1c-0.1-0.4-0.1-0.7-0.2-1.1
				c-0.1-0.3-0.2-0.5-0.3-0.8c-0.1-0.4-0.2-0.7-0.4-1.1c-1.7-3.8-5.5-6.5-9.8-6.6c-6,0-10.8,4.7-10.8,10.7
				C-63.2,870.2-58.4,875-52.4,875z"/>
			<path class="st0" d="M61.5,865.2c0,0,0,0,0-0.2c0-6-4.7-10.8-10.7-10.8c-6,0.1-10.7,4.8-10.9,10.8c-0.2,6,4.7,10.8,10.7,11
				C56.6,876,61.3,871.2,61.5,865.2z"/>
			<path class="st0" d="M-1.4,917.4c-23.7-0.2-39.1-6.7-39.1-12.7h-9.6c0.1,5.2,3.3,12.3,17.1,17.1c10.4,3.3,21,4.8,32.1,4.6
				c22.4,0,48.7-5.4,48.9-21.4h-9.6C38.4,911,22.4,917.4-1.4,917.4z"/>
		</g>
	</g>
	<g>
		<g>
			<path class="st0" d="M-231.7,138.3c-52.3,0-94.7,32.1-94.7,71.6c-0.8,54.8-2.1,96.4-6.4,121.8l9.1,1.4c3.5-18.7,5.2-46.8,6-83.7
				c4-0.8,7.7-1.5,11.2-2.5c10.2,26.7,37.3,42.1,74.7,42.1s64.1-15.2,74.7-42.1c3.5,1,7.3,1.7,11.2,2.5c0,0.5,0,1,0,1.6
				c0.4,24.6,1.3,45.4,3.1,62.2c0.8,7.7,1.8,14.6,3,20.5l9.1-2.1c-4.7-24.8-6-66.7-6.4-121.8C-137,170.4-179.5,138.3-231.7,138.3z
				 M-305.2,177.9c0-0.1,0.1-0.1,0.1-0.2c14.9-17.6,41.5-29.8,72.1-30c0.3,0,0.6,0,0.9,0c31,0,58.1,12.3,73.1,30.2h0l0,0
				c0,0,0,0,0,0c-4.6-0.4-8.7-0.8-12.7-1c0,0,0,0,0,0c-14-13.3-35-20.4-60.4-20.4c-9.5,0-18.4,1-26.6,2.9c-2.7,0.6-5.4,1.4-7.9,2.3
				c-2.5,0.9-5,1.8-7.4,2.9c-3.5,1.6-6.9,3.4-10,5.5c-3.1,2.1-6,4.3-8.6,6.8C-296.5,177-300.7,177.5-305.2,177.9L-305.2,177.9
				L-305.2,177.9z M-317.9,240.3C-317.9,240.3-317.9,240.3-317.9,240.3c-0.1,0-0.1,0-0.2,0c0.6-9.8,0.8-19.8,0.8-30.2
				c0-7.5,1.7-15,5.2-21.7c6.6-0.9,12.4-1.5,17.5-1.7c28.1-1.5,34.5,6.4,36.4,14.7c1.2,4.2,0.4,8.7-2.1,12.5
				c-2.9,4.5-9,10.1-21.7,15.6c-6.3,2.8-14.2,5.5-24.2,8.1C-309.8,238.5-313.7,239.4-317.9,240.3z M-232.2,280.1c-0.1,0-0.1,0-0.2,0
				c-0.1,0-0.1,0-0.2,0c-32.7,0-56.4-12.7-65.6-35.2c23.5-6.7,38.7-15.8,45.2-26.2c3.7-5.8,5-13.1,3.3-19.8
				c-2.9-12.7-12.3-19.8-28.9-21.4c11.9-7.7,27.5-11.7,46-11.7c0.1,0,0.1,0,0.2,0c0.1,0,0.1,0,0.2,0c18.5,0,34.1,4,46,11.7
				c-17.1,2.1-26.2,9-29.1,21.7c-1.7,6.7-0.4,14,3.3,19.8c6.7,10.4,22.1,19.6,45.8,26.2C-175.9,267.4-199.3,280.1-232.2,280.1z
				 M-146.4,240.5c-4.5-1-8.7-2-12.6-3c-6.6-1.7-12.3-3.5-17.2-5.4c-17.4-6.4-25.1-13.1-28.2-18.3c-2.5-3.7-3.3-8.3-2.1-12.5
				c2-7.6,7.6-15,30.6-14.9c6.5,0,14.4,0.6,23.9,2c3.5,6.7,5.2,14.2,5.2,21.7c0,10.4,0.2,20.8,0.4,30.4
				C-146.2,240.5-146.3,240.5-146.4,240.5C-146.4,240.5-146.4,240.5-146.4,240.5z"/>
			<path class="st0" d="M-232.2,249.7c8.3,0,24.7-5,24.8-16.6c-0.1-13.4-16.9-13.4-24.8-13.4c-8.1,0-24.7,0-24.8,13.4
				C-256.8,244.5-240.5,249.7-232.2,249.7z"/>
			<path class="st0" d="M-283.6,217.8c6,0,10.8-4.7,10.8-10.7c0-0.4-0.1-0.7-0.1-1.1c-0.1-0.4-0.1-0.7-0.2-1.1
				c-0.1-0.3-0.2-0.5-0.3-0.8c-0.1-0.4-0.2-0.7-0.4-1.1c-1.7-3.8-5.5-6.5-9.8-6.6c-6,0-10.8,4.7-10.8,10.7
				C-294.3,213.1-289.6,217.8-283.6,217.8z"/>
			<path class="st0" d="M-169.7,208.1c0,0,0,0,0-0.2c0-6-4.7-10.8-10.7-10.8c-6,0.1-10.7,4.8-10.9,10.8c-0.2,6,4.7,10.8,10.7,11
				C-174.6,218.8-169.9,214.1-169.7,208.1z"/>
			<path class="st0" d="M-232.6,260.3c-23.7-0.2-39.1-6.7-39.1-12.7h-9.6c0.1,5.2,3.3,12.3,17.1,17.1c10.4,3.3,21,4.8,32.1,4.6
				c22.4,0,48.7-5.4,48.9-21.4h-9.6C-192.8,253.9-208.8,260.3-232.6,260.3z"/>
		</g>
		<g>
			<path class="st0" d="M-231.7-57.3c-52.3,0-94.7,32.1-94.7,71.6c-0.8,54.8-2.1,96.4-6.4,121.8l9.1,1.4c3.5-18.7,5.2-46.8,6-83.7
				c4-0.8,7.7-1.5,11.2-2.5c10.2,26.7,37.3,42.1,74.7,42.1s64.1-15.2,74.7-42.1c3.5,1,7.3,1.7,11.2,2.5c0,0.5,0,1,0,1.6
				c0.4,24.6,1.3,45.4,3.1,62.2c0.8,7.7,1.8,14.6,3,20.5l9.1-2.1c-4.7-24.8-6-66.7-6.4-121.8C-137-25.2-179.5-57.3-231.7-57.3z
				 M-305.2-17.7c0-0.1,0.1-0.1,0.1-0.2c14.9-17.6,41.5-29.8,72.1-30c0.3,0,0.6,0,0.9,0c31,0,58.1,12.3,73.1,30.2h0l0,0c0,0,0,0,0,0
				c-4.6-0.4-8.7-0.8-12.7-1c0,0,0,0,0,0c-14-13.3-35-20.4-60.4-20.4c-9.5,0-18.4,1-26.6,2.9c-2.7,0.6-5.4,1.4-7.9,2.3
				c-2.5,0.9-5,1.8-7.4,2.9c-3.5,1.6-6.9,3.4-10,5.5c-3.1,2.1-6,4.3-8.6,6.8C-296.5-18.6-300.7-18.2-305.2-17.7L-305.2-17.7
				L-305.2-17.7z M-317.9,44.7C-317.9,44.7-317.9,44.7-317.9,44.7c-0.1,0-0.1,0-0.2,0c0.6-9.8,0.8-19.8,0.8-30.2
				c0-7.5,1.7-15,5.2-21.7c6.6-0.9,12.4-1.5,17.5-1.7c28.1-1.5,34.5,6.4,36.4,14.7c1.2,4.2,0.4,8.7-2.1,12.5
				c-2.9,4.5-9,10.1-21.7,15.6c-6.3,2.8-14.2,5.5-24.2,8.1C-309.8,42.9-313.7,43.8-317.9,44.7z M-232.2,84.5c-0.1,0-0.1,0-0.2,0
				c-0.1,0-0.1,0-0.2,0c-32.7,0-56.4-12.7-65.6-35.2c23.5-6.7,38.7-15.8,45.2-26.2c3.7-5.8,5-13.1,3.3-19.8
				c-2.9-12.7-12.3-19.8-28.9-21.4c11.9-7.7,27.5-11.7,46-11.7c0.1,0,0.1,0,0.2,0c0.1,0,0.1,0,0.2,0c18.5,0,34.1,4,46,11.7
				c-17.1,2.1-26.2,9-29.1,21.7c-1.7,6.7-0.4,14,3.3,19.8c6.7,10.4,22.1,19.6,45.8,26.2C-175.9,71.8-199.3,84.5-232.2,84.5z
				 M-146.4,44.9c-4.5-1-8.7-2-12.6-3c-6.6-1.7-12.3-3.5-17.2-5.4c-17.4-6.4-25.1-13.1-28.2-18.3c-2.5-3.7-3.3-8.3-2.1-12.5
				c2-7.6,7.6-15,30.6-14.9c6.5,0,14.4,0.6,23.9,2c3.5,6.7,5.2,14.2,5.2,21.7c0,10.4,0.2,20.8,0.4,30.4
				C-146.2,44.9-146.3,44.9-146.4,44.9C-146.4,44.9-146.4,44.9-146.4,44.9z"/>
			<path class="st0" d="M-232.2,54.1c8.3,0,24.7-5,24.8-16.6c-0.1-13.4-16.9-13.4-24.8-13.4c-8.1,0-24.7,0-24.8,13.4
				C-256.8,48.9-240.5,54.1-232.2,54.1z"/>
			<path class="st0" d="M-283.6,22.2c6,0,10.8-4.7,10.8-10.7c0-0.4-0.1-0.7-0.1-1.1c-0.1-0.4-0.1-0.7-0.2-1.1
				c-0.1-0.3-0.2-0.5-0.3-0.8c-0.1-0.4-0.2-0.7-0.4-1.1c-1.7-3.8-5.5-6.5-9.8-6.6c-6,0-10.8,4.7-10.8,10.7
				C-294.3,17.5-289.6,22.2-283.6,22.2z"/>
			<path class="st0" d="M-169.7,12.4c0,0,0,0,0-0.2c0-6-4.7-10.8-10.7-10.8c-6,0.1-10.7,4.8-10.9,10.8c-0.2,6,4.7,10.8,10.7,11
				C-174.6,23.2-169.9,18.4-169.7,12.4z"/>
			<path class="st0" d="M-232.6,64.7c-23.7-0.2-39.1-6.7-39.1-12.7h-9.6c0.1,5.2,3.3,12.3,17.1,17.1c10.4,3.3,21,4.8,32.1,4.6
				c22.4,0,48.7-5.4,48.9-21.4h-9.6C-192.8,58.2-208.8,64.7-232.6,64.7z"/>
		</g>
		<g>
			<path class="st0" d="M-231.7,333.9c-52.3,0-94.7,32.1-94.7,71.6c-0.8,54.8-2.1,96.4-6.4,121.8l9.1,1.4c3.5-18.7,5.2-46.8,6-83.7
				c4-0.8,7.7-1.5,11.2-2.5c10.2,26.7,37.3,42.1,74.7,42.1s64.1-15.2,74.7-42.1c3.5,1,7.3,1.7,11.2,2.5c0,0.5,0,1,0,1.6
				c0.4,24.6,1.3,45.4,3.1,62.2c0.8,7.7,1.8,14.6,3,20.5l9.1-2.1c-4.7-24.8-6-66.7-6.4-121.8C-137,366-179.5,333.9-231.7,333.9z
				 M-305.2,373.5c0-0.1,0.1-0.1,0.1-0.2c14.9-17.6,41.5-29.8,72.1-30c0.3,0,0.6,0,0.9,0c31,0,58.1,12.3,73.1,30.2h0l0,0
				c0,0,0,0,0,0c-4.6-0.4-8.7-0.8-12.7-1c0,0,0,0,0,0c-14-13.3-35-20.4-60.4-20.4c-9.5,0-18.4,1-26.6,2.9c-2.7,0.6-5.4,1.4-7.9,2.3
				c-2.5,0.9-5,1.8-7.4,2.9c-3.5,1.6-6.9,3.4-10,5.5c-3.1,2.1-6,4.3-8.6,6.8C-296.5,372.7-300.7,373.1-305.2,373.5L-305.2,373.5
				L-305.2,373.5z M-317.9,436C-317.9,435.9-317.9,435.9-317.9,436c-0.1,0-0.1,0-0.2,0c0.6-9.8,0.8-19.8,0.8-30.2
				c0-7.5,1.7-15,5.2-21.7c6.6-0.9,12.4-1.5,17.5-1.7c28.1-1.5,34.5,6.4,36.4,14.7c1.2,4.2,0.4,8.7-2.1,12.5
				c-2.9,4.5-9,10.1-21.7,15.6c-6.3,2.8-14.2,5.5-24.2,8.1C-309.8,434.1-313.7,435-317.9,436z M-232.2,475.7c-0.1,0-0.1,0-0.2,0
				c-0.1,0-0.1,0-0.2,0c-32.7,0-56.4-12.7-65.6-35.2c23.5-6.7,38.7-15.8,45.2-26.2c3.7-5.8,5-13.1,3.3-19.8
				c-2.9-12.7-12.3-19.8-28.9-21.4c11.9-7.7,27.5-11.7,46-11.7c0.1,0,0.1,0,0.2,0c0.1,0,0.1,0,0.2,0c18.5,0,34.1,4,46,11.7
				c-17.1,2.1-26.2,9-29.1,21.7c-1.7,6.7-0.4,14,3.3,19.8c6.7,10.4,22.1,19.6,45.8,26.2C-175.9,463-199.3,475.7-232.2,475.7z
				 M-146.4,436.2c-4.5-1-8.7-2-12.6-3c-6.6-1.7-12.3-3.5-17.2-5.4c-17.4-6.4-25.1-13.1-28.2-18.3c-2.5-3.7-3.3-8.3-2.1-12.5
				c2-7.6,7.6-15,30.6-14.9c6.5,0,14.4,0.6,23.9,2c3.5,6.7,5.2,14.2,5.2,21.7c0,10.4,0.2,20.8,0.4,30.4
				C-146.2,436.1-146.3,436.1-146.4,436.2C-146.4,436.1-146.4,436.1-146.4,436.2z"/>
			<path class="st0" d="M-232.2,445.3c8.3,0,24.7-5,24.8-16.6c-0.1-13.4-16.9-13.4-24.8-13.4c-8.1,0-24.7,0-24.8,13.4
				C-256.8,440.1-240.5,445.3-232.2,445.3z"/>
			<path class="st0" d="M-283.6,413.5c6,0,10.8-4.7,10.8-10.7c0-0.4-0.1-0.7-0.1-1.1c-0.1-0.4-0.1-0.7-0.2-1.1
				c-0.1-0.3-0.2-0.5-0.3-0.8c-0.1-0.4-0.2-0.7-0.4-1.1c-1.7-3.8-5.5-6.5-9.8-6.6c-6,0-10.8,4.7-10.8,10.7
				C-294.3,408.7-289.6,413.5-283.6,413.5z"/>
			<path class="st0" d="M-169.7,403.7c0,0,0,0,0-0.2c0-6-4.7-10.8-10.7-10.8c-6,0.1-10.7,4.8-10.9,10.8c-0.2,6,4.7,10.8,10.7,11
				C-174.6,414.4-169.9,409.7-169.7,403.7z"/>
			<path class="st0" d="M-232.6,455.9c-23.7-0.2-39.1-6.7-39.1-12.7h-9.6c0.1,5.2,3.3,12.3,17.1,17.1c10.4,3.3,21,4.8,32.1,4.6
				c22.4,0,48.7-5.4,48.9-21.4h-9.6C-192.8,449.5-208.8,455.9-232.6,455.9z"/>
		</g>
		<g>
			<path class="st0" d="M-231.7,529.5c-52.3,0-94.7,32.1-94.7,71.6c-0.8,54.8-2.1,96.4-6.4,121.8l9.1,1.4c3.5-18.7,5.2-46.8,6-83.7
				c4-0.8,7.7-1.5,11.2-2.5c10.2,26.7,37.3,42.1,74.7,42.1s64.1-15.2,74.7-42.1c3.5,1,7.3,1.7,11.2,2.5c0,0.5,0,1,0,1.6
				c0.4,24.6,1.3,45.4,3.1,62.2c0.8,7.7,1.8,14.6,3,20.5l9.1-2.1c-4.7-24.8-6-66.7-6.4-121.8C-137,561.6-179.5,529.5-231.7,529.5z
				 M-305.2,569.1c0-0.1,0.1-0.1,0.1-0.2c14.9-17.6,41.5-29.8,72.1-30c0.3,0,0.6,0,0.9,0c31,0,58.1,12.3,73.1,30.2h0l0,0
				c0,0,0,0,0,0c-4.6-0.4-8.7-0.8-12.7-1c0,0,0,0,0,0c-14-13.3-35-20.4-60.4-20.4c-9.5,0-18.4,1-26.6,2.9c-2.7,0.6-5.4,1.4-7.9,2.3
				c-2.5,0.9-5,1.8-7.4,2.9c-3.5,1.6-6.9,3.4-10,5.5c-3.1,2.1-6,4.3-8.6,6.8C-296.5,568.3-300.7,568.7-305.2,569.1L-305.2,569.1
				L-305.2,569.1z M-317.9,631.6C-317.9,631.6-317.9,631.5-317.9,631.6c-0.1,0-0.1,0-0.2,0c0.6-9.8,0.8-19.8,0.8-30.2
				c0-7.5,1.7-15,5.2-21.7c6.6-0.9,12.4-1.5,17.5-1.7c28.1-1.5,34.5,6.4,36.4,14.7c1.2,4.2,0.4,8.7-2.1,12.5
				c-2.9,4.5-9,10.1-21.7,15.6c-6.3,2.8-14.2,5.5-24.2,8.1C-309.8,629.7-313.7,630.7-317.9,631.6z M-232.2,671.3c-0.1,0-0.1,0-0.2,0
				c-0.1,0-0.1,0-0.2,0c-32.7,0-56.4-12.7-65.6-35.2c23.5-6.7,38.7-15.8,45.2-26.2c3.7-5.8,5-13.1,3.3-19.8
				c-2.9-12.7-12.3-19.8-28.9-21.4c11.9-7.7,27.5-11.7,46-11.7c0.1,0,0.1,0,0.2,0c0.1,0,0.1,0,0.2,0c18.5,0,34.1,4,46,11.7
				c-17.1,2.1-26.2,9-29.1,21.7c-1.7,6.7-0.4,14,3.3,19.8c6.7,10.4,22.1,19.6,45.8,26.2C-175.9,658.6-199.3,671.3-232.2,671.3z
				 M-146.4,631.8c-4.5-1-8.7-2-12.6-3c-6.6-1.7-12.3-3.5-17.2-5.4c-17.4-6.4-25.1-13.1-28.2-18.3c-2.5-3.7-3.3-8.3-2.1-12.5
				c2-7.6,7.6-15,30.6-14.9c6.5,0,14.4,0.6,23.9,2c3.5,6.7,5.2,14.2,5.2,21.7c0,10.4,0.2,20.8,0.4,30.4
				C-146.2,631.8-146.3,631.7-146.4,631.8C-146.4,631.7-146.4,631.8-146.4,631.8z"/>
			<path class="st0" d="M-232.2,640.9c8.3,0,24.7-5,24.8-16.6c-0.1-13.4-16.9-13.4-24.8-13.4c-8.1,0-24.7,0-24.8,13.4
				C-256.8,635.8-240.5,640.9-232.2,640.9z"/>
			<path class="st0" d="M-283.6,609.1c6,0,10.8-4.7,10.8-10.7c0-0.4-0.1-0.7-0.1-1.1c-0.1-0.4-0.1-0.7-0.2-1.1
				c-0.1-0.3-0.2-0.5-0.3-0.8c-0.1-0.4-0.2-0.7-0.4-1.1c-1.7-3.8-5.5-6.5-9.8-6.6c-6,0-10.8,4.7-10.8,10.7
				C-294.3,604.3-289.6,609.1-283.6,609.1z"/>
			<path class="st0" d="M-169.7,599.3c0,0,0,0,0-0.2c0-6-4.7-10.8-10.7-10.8c-6,0.1-10.7,4.8-10.9,10.8c-0.2,6,4.7,10.8,10.7,11
				C-174.6,610.1-169.9,605.3-169.7,599.3z"/>
			<path class="st0" d="M-232.6,651.6c-23.7-0.2-39.1-6.7-39.1-12.7h-9.6c0.1,5.2,3.3,12.3,17.1,17.1c10.4,3.3,21,4.8,32.1,4.6
				c22.4,0,48.7-5.4,48.9-21.4h-9.6C-192.8,645.1-208.8,651.6-232.6,651.6z"/>
		</g>
		<g>
			<path class="st0" d="M-231.7,725.2c-52.3,0-94.7,32.1-94.7,71.6c-0.8,54.8-2.1,96.4-6.4,121.8l9.1,1.4c3.5-18.7,5.2-46.8,6-83.7
				c4-0.8,7.7-1.5,11.2-2.5c10.2,26.7,37.3,42.1,74.7,42.1s64.1-15.2,74.7-42.1c3.5,1,7.3,1.7,11.2,2.5c0,0.5,0,1,0,1.6
				c0.4,24.6,1.3,45.4,3.1,62.2c0.8,7.7,1.8,14.6,3,20.5l9.1-2.1c-4.7-24.8-6-66.7-6.4-121.8C-137,757.2-179.5,725.2-231.7,725.2z
				 M-305.2,764.7c0-0.1,0.1-0.1,0.1-0.2c14.9-17.6,41.5-29.8,72.1-30c0.3,0,0.6,0,0.9,0c31,0,58.1,12.3,73.1,30.2h0l0,0
				c0,0,0,0,0,0c-4.6-0.4-8.7-0.8-12.7-1c0,0,0,0,0,0c-14-13.3-35-20.4-60.4-20.4c-9.5,0-18.4,1-26.6,2.9c-2.7,0.6-5.4,1.4-7.9,2.3
				c-2.5,0.9-5,1.8-7.4,2.9c-3.5,1.6-6.9,3.4-10,5.5c-3.1,2.1-6,4.3-8.6,6.8C-296.5,763.9-300.7,764.3-305.2,764.7L-305.2,764.7
				L-305.2,764.7z M-317.9,827.2C-317.9,827.2-317.9,827.2-317.9,827.2c-0.1,0-0.1,0-0.2,0c0.6-9.8,0.8-19.8,0.8-30.2
				c0-7.5,1.7-15,5.2-21.7c6.6-0.9,12.4-1.5,17.5-1.7c28.1-1.5,34.5,6.4,36.4,14.7c1.2,4.2,0.4,8.7-2.1,12.5
				c-2.9,4.5-9,10.1-21.7,15.6c-6.3,2.8-14.2,5.5-24.2,8.1C-309.8,825.4-313.7,826.3-317.9,827.2z M-232.2,867c-0.1,0-0.1,0-0.2,0
				c-0.1,0-0.1,0-0.2,0c-32.7,0-56.4-12.7-65.6-35.2c23.5-6.7,38.7-15.8,45.2-26.2c3.7-5.8,5-13.1,3.3-19.8
				c-2.9-12.7-12.3-19.8-28.9-21.4c11.9-7.7,27.5-11.7,46-11.7c0.1,0,0.1,0,0.2,0c0.1,0,0.1,0,0.2,0c18.5,0,34.1,4,46,11.7
				c-17.1,2.1-26.2,9-29.1,21.7c-1.7,6.7-0.4,14,3.3,19.8c6.7,10.4,22.1,19.6,45.8,26.2C-175.9,854.3-199.3,867-232.2,867z
				 M-146.4,827.4c-4.5-1-8.7-2-12.6-3c-6.6-1.7-12.3-3.5-17.2-5.4c-17.4-6.4-25.1-13.1-28.2-18.3c-2.5-3.7-3.3-8.3-2.1-12.5
				c2-7.6,7.6-15,30.6-14.9c6.5,0,14.4,0.6,23.9,2c3.5,6.7,5.2,14.2,5.2,21.7c0,10.4,0.2,20.8,0.4,30.4
				C-146.2,827.4-146.3,827.4-146.4,827.4C-146.4,827.4-146.4,827.4-146.4,827.4z"/>
			<path class="st0" d="M-232.2,836.6c8.3,0,24.7-5,24.8-16.6c-0.1-13.4-16.9-13.4-24.8-13.4c-8.1,0-24.7,0-24.8,13.4
				C-256.8,831.4-240.5,836.6-232.2,836.6z"/>
			<path class="st0" d="M-283.6,804.7c6,0,10.8-4.7,10.8-10.7c0-0.4-0.1-0.7-0.1-1.1c-0.1-0.4-0.1-0.7-0.2-1.1
				c-0.1-0.3-0.2-0.5-0.3-0.8c-0.1-0.4-0.2-0.7-0.4-1.1c-1.7-3.8-5.5-6.5-9.8-6.6c-6,0-10.8,4.7-10.8,10.7
				C-294.3,800-289.6,804.7-283.6,804.7z"/>
			<path class="st0" d="M-169.7,794.9c0,0,0,0,0-0.2c0-6-4.7-10.8-10.7-10.8c-6,0.1-10.7,4.8-10.9,10.8c-0.2,6,4.7,10.8,10.7,11
				C-174.6,805.7-169.9,800.9-169.7,794.9z"/>
			<path class="st0" d="M-232.6,847.2c-23.7-0.2-39.1-6.7-39.1-12.7h-9.6c0.1,5.2,3.3,12.3,17.1,17.1c10.4,3.3,21,4.8,32.1,4.6
				c22.4,0,48.7-5.4,48.9-21.4h-9.6C-192.8,840.7-208.8,847.2-232.6,847.2z"/>
		</g>
	</g>
	<g>
		<g>
			<path class="st0" d="M461.8,208.6c-52.3,0-94.7,32.1-94.7,71.6c-0.8,54.8-2.1,96.4-6.4,121.8l9.1,1.4c3.5-18.7,5.2-46.8,6-83.7
				c4-0.8,7.7-1.5,11.2-2.5c10.2,26.7,37.3,42.1,74.7,42.1s64.1-15.2,74.7-42.1c3.5,1,7.3,1.7,11.2,2.5c0,0.5,0,1,0,1.6
				c0.4,24.6,1.3,45.4,3.1,62.2c0.8,7.7,1.8,14.6,3,20.5l9.1-2.1c-4.7-24.8-6-66.7-6.4-121.8C556.6,240.6,514.1,208.6,461.8,208.6z
				 M388.3,248.1c0-0.1,0.1-0.1,0.1-0.2c14.9-17.6,41.5-29.8,72.1-30c0.3,0,0.6,0,0.9,0c31,0,58.1,12.3,73.1,30.2h0l0,0c0,0,0,0,0,0
				c-4.6-0.4-8.7-0.8-12.7-1c0,0,0,0,0,0c-14-13.3-35-20.4-60.4-20.4c-9.5,0-18.4,1-26.6,2.9c-2.7,0.6-5.4,1.4-7.9,2.3
				c-2.5,0.9-5,1.8-7.4,2.9c-3.5,1.6-6.9,3.4-10,5.5c-3.1,2.1-6,4.3-8.6,6.8C397.1,247.3,392.9,247.7,388.3,248.1L388.3,248.1
				L388.3,248.1z M375.6,310.6C375.6,310.6,375.6,310.6,375.6,310.6c-0.1,0-0.1,0-0.2,0c0.6-9.8,0.8-19.8,0.8-30.2
				c0-7.5,1.7-15,5.2-21.7c6.6-0.9,12.4-1.5,17.5-1.7c28.1-1.5,34.5,6.4,36.4,14.7c1.2,4.2,0.4,8.7-2.1,12.5
				c-2.9,4.5-9,10.1-21.7,15.6c-6.3,2.8-14.2,5.5-24.2,8.1C383.8,308.8,379.9,309.7,375.6,310.6z M461.4,350.4c-0.1,0-0.1,0-0.2,0
				c-0.1,0-0.1,0-0.2,0c-32.7,0-56.4-12.7-65.6-35.2c23.5-6.7,38.7-15.8,45.2-26.2c3.7-5.8,5-13.1,3.3-19.8
				c-2.9-12.7-12.3-19.8-28.9-21.4c11.9-7.7,27.5-11.7,46-11.7c0.1,0,0.1,0,0.2,0c0.1,0,0.1,0,0.2,0c18.5,0,34.1,4,46,11.7
				c-17.1,2.1-26.2,9-29.1,21.7c-1.7,6.7-0.4,14,3.3,19.8c6.7,10.4,22.1,19.6,45.8,26.2C517.6,337.7,494.3,350.4,461.4,350.4z
				 M547.2,310.8c-4.5-1-8.7-2-12.6-3c-6.6-1.7-12.3-3.5-17.2-5.4c-17.4-6.4-25.1-13.1-28.2-18.3c-2.5-3.7-3.3-8.3-2.1-12.5
				c2-7.6,7.6-15,30.6-14.9c6.5,0,14.4,0.6,23.9,2c3.5,6.7,5.2,14.2,5.2,21.7c0,10.4,0.2,20.8,0.4,30.4
				C547.3,310.8,547.3,310.8,547.2,310.8C547.2,310.8,547.2,310.8,547.2,310.8z"/>
			<path class="st0" d="M461.4,320c8.3,0,24.7-5,24.8-16.6c-0.1-13.4-16.9-13.4-24.8-13.4c-8.1,0-24.7,0-24.8,13.4
				C436.8,314.8,453.1,320,461.4,320z"/>
			<path class="st0" d="M410,288.1c6,0,10.8-4.7,10.8-10.7c0-0.4-0.1-0.7-0.1-1.1c-0.1-0.4-0.1-0.7-0.2-1.1
				c-0.1-0.3-0.2-0.5-0.3-0.8c-0.1-0.4-0.2-0.7-0.4-1.1c-1.7-3.8-5.5-6.5-9.8-6.6c-6,0-10.8,4.7-10.8,10.7
				C399.2,283.4,404,288.1,410,288.1z"/>
			<path class="st0" d="M523.9,278.3c0,0,0,0,0-0.2c0-6-4.7-10.8-10.7-10.8c-6,0.1-10.7,4.8-10.9,10.8c-0.2,6,4.7,10.8,10.7,11
				C518.9,289.1,523.7,284.3,523.9,278.3z"/>
			<path class="st0" d="M461,330.6c-23.7-0.2-39.1-6.7-39.1-12.7h-9.6c0.1,5.2,3.3,12.3,17.1,17.1c10.4,3.3,21,4.8,32.1,4.6
				c22.4,0,48.7-5.4,48.9-21.4h-9.6C500.8,324.1,484.7,330.6,461,330.6z"/>
		</g>
		<g>
			<path class="st0" d="M461.8,13c-52.3,0-94.7,32.1-94.7,71.6c-0.8,54.8-2.1,96.4-6.4,121.8l9.1,1.4c3.5-18.7,5.2-46.8,6-83.7
				c4-0.8,7.7-1.5,11.2-2.5c10.2,26.7,37.3,42.1,74.7,42.1s64.1-15.2,74.7-42.1c3.5,1,7.3,1.7,11.2,2.5c0,0.5,0,1,0,1.6
				c0.4,24.6,1.3,45.4,3.1,62.2c0.8,7.7,1.8,14.6,3,20.5l9.1-2.1c-4.7-24.8-6-66.7-6.4-121.8C556.6,45,514.1,13,461.8,13z
				 M388.3,52.5c0-0.1,0.1-0.1,0.1-0.2c14.9-17.6,41.5-29.8,72.1-30c0.3,0,0.6,0,0.9,0c31,0,58.1,12.3,73.1,30.2h0l0,0c0,0,0,0,0,0
				c-4.6-0.4-8.7-0.8-12.7-1c0,0,0,0,0,0c-14-13.3-35-20.4-60.4-20.4c-9.5,0-18.4,1-26.6,2.9c-2.7,0.6-5.4,1.4-7.9,2.3
				c-2.5,0.9-5,1.8-7.4,2.9c-3.5,1.6-6.9,3.4-10,5.5c-3.1,2.1-6,4.3-8.6,6.8C397.1,51.7,392.9,52.1,388.3,52.5L388.3,52.5
				L388.3,52.5z M375.6,115C375.6,115,375.6,115,375.6,115c-0.1,0-0.1,0-0.2,0c0.6-9.8,0.8-19.8,0.8-30.2c0-7.5,1.7-15,5.2-21.7
				c6.6-0.9,12.4-1.5,17.5-1.7c28.1-1.5,34.5,6.4,36.4,14.7c1.2,4.2,0.4,8.7-2.1,12.5c-2.9,4.5-9,10.1-21.7,15.6
				c-6.3,2.8-14.2,5.5-24.2,8.1C383.8,113.2,379.9,114.1,375.6,115z M461.4,154.8c-0.1,0-0.1,0-0.2,0c-0.1,0-0.1,0-0.2,0
				c-32.7,0-56.4-12.7-65.6-35.2c23.5-6.7,38.7-15.8,45.2-26.2c3.7-5.8,5-13.1,3.3-19.8C441,60.9,431.7,53.8,415,52.1
				c11.9-7.7,27.5-11.7,46-11.7c0.1,0,0.1,0,0.2,0c0.1,0,0.1,0,0.2,0c18.5,0,34.1,4,46,11.7c-17.1,2.1-26.2,9-29.1,21.7
				c-1.7,6.7-0.4,14,3.3,19.8c6.7,10.4,22.1,19.6,45.8,26.2C517.6,142.1,494.3,154.8,461.4,154.8z M547.2,115.2c-4.5-1-8.7-2-12.6-3
				c-6.6-1.7-12.3-3.5-17.2-5.4c-17.4-6.4-25.1-13.1-28.2-18.3c-2.5-3.7-3.3-8.3-2.1-12.5c2-7.6,7.6-15,30.6-14.9
				c6.5,0,14.4,0.6,23.9,2c3.5,6.7,5.2,14.2,5.2,21.7c0,10.4,0.2,20.8,0.4,30.4C547.3,115.2,547.3,115.2,547.2,115.2
				C547.2,115.2,547.2,115.2,547.2,115.2z"/>
			<path class="st0" d="M461.4,124.4c8.3,0,24.7-5,24.8-16.6c-0.1-13.4-16.9-13.4-24.8-13.4c-8.1,0-24.7,0-24.8,13.4
				C436.8,119.2,453.1,124.4,461.4,124.4z"/>
			<path class="st0" d="M410,92.5c6,0,10.8-4.7,10.8-10.7c0-0.4-0.1-0.7-0.1-1.1c-0.1-0.4-0.1-0.7-0.2-1.1c-0.1-0.3-0.2-0.5-0.3-0.8
				c-0.1-0.4-0.2-0.7-0.4-1.1c-1.7-3.8-5.5-6.5-9.8-6.6c-6,0-10.8,4.7-10.8,10.7C399.2,87.8,404,92.5,410,92.5z"/>
			<path class="st0" d="M523.9,82.7c0,0,0,0,0-0.2c0-6-4.7-10.8-10.7-10.8c-6,0.1-10.7,4.8-10.9,10.8c-0.2,6,4.7,10.8,10.7,11
				C518.9,93.5,523.7,88.7,523.9,82.7z"/>
			<path class="st0" d="M461,135c-23.7-0.2-39.1-6.7-39.1-12.7h-9.6c0.1,5.2,3.3,12.3,17.1,17.1c10.4,3.3,21,4.8,32.1,4.6
				c22.4,0,48.7-5.4,48.9-21.4h-9.6C500.8,128.5,484.7,135,461,135z"/>
		</g>
		<g>
			<path class="st0" d="M461.8,404.2c-52.3,0-94.7,32.1-94.7,71.6c-0.8,54.8-2.1,96.4-6.4,121.8l9.1,1.4c3.5-18.7,5.2-46.8,6-83.7
				c4-0.8,7.7-1.5,11.2-2.5c10.2,26.7,37.3,42.1,74.7,42.1s64.1-15.2,74.7-42.1c3.5,1,7.3,1.7,11.2,2.5c0,0.5,0,1,0,1.6
				c0.4,24.6,1.3,45.4,3.1,62.2c0.8,7.7,1.8,14.6,3,20.5l9.1-2.1c-4.7-24.8-6-66.7-6.4-121.8C556.6,436.3,514.1,404.2,461.8,404.2z
				 M388.3,443.8c0-0.1,0.1-0.1,0.1-0.2c14.9-17.6,41.5-29.8,72.1-30c0.3,0,0.6,0,0.9,0c31,0,58.1,12.3,73.1,30.2h0l0,0c0,0,0,0,0,0
				c-4.6-0.4-8.7-0.8-12.7-1c0,0,0,0,0,0c-14-13.3-35-20.4-60.4-20.4c-9.5,0-18.4,1-26.6,2.9c-2.7,0.6-5.4,1.4-7.9,2.3
				c-2.5,0.9-5,1.8-7.4,2.9c-3.5,1.6-6.9,3.4-10,5.5c-3.1,2.1-6,4.3-8.6,6.8C397.1,442.9,392.9,443.3,388.3,443.8L388.3,443.8
				L388.3,443.8z M375.6,506.2C375.6,506.2,375.6,506.2,375.6,506.2c-0.1,0-0.1,0-0.2,0c0.6-9.8,0.8-19.8,0.8-30.2
				c0-7.5,1.7-15,5.2-21.7c6.6-0.9,12.4-1.5,17.5-1.7c28.1-1.5,34.5,6.4,36.4,14.7c1.2,4.2,0.4,8.7-2.1,12.5
				c-2.9,4.5-9,10.1-21.7,15.6c-6.3,2.8-14.2,5.5-24.2,8.1C383.8,504.4,379.9,505.3,375.6,506.2z M461.4,546c-0.1,0-0.1,0-0.2,0
				c-0.1,0-0.1,0-0.2,0c-32.7,0-56.4-12.7-65.6-35.2c23.5-6.7,38.7-15.8,45.2-26.2c3.7-5.8,5-13.1,3.3-19.8
				c-2.9-12.7-12.3-19.8-28.9-21.4c11.9-7.7,27.5-11.7,46-11.7c0.1,0,0.1,0,0.2,0c0.1,0,0.1,0,0.2,0c18.5,0,34.1,4,46,11.7
				c-17.1,2.1-26.2,9-29.1,21.7c-1.7,6.7-0.4,14,3.3,19.8c6.7,10.4,22.1,19.6,45.8,26.2C517.6,533.3,494.3,546,461.4,546z
				 M547.2,506.4c-4.5-1-8.7-2-12.6-3c-6.6-1.7-12.3-3.5-17.2-5.4c-17.4-6.4-25.1-13.1-28.2-18.3c-2.5-3.7-3.3-8.3-2.1-12.5
				c2-7.6,7.6-15,30.6-14.9c6.5,0,14.4,0.6,23.9,2c3.5,6.7,5.2,14.2,5.2,21.7c0,10.4,0.2,20.8,0.4,30.4
				C547.3,506.4,547.3,506.4,547.2,506.4C547.2,506.4,547.2,506.4,547.2,506.4z"/>
			<path class="st0" d="M461.4,515.6c8.3,0,24.7-5,24.8-16.6c-0.1-13.4-16.9-13.4-24.8-13.4c-8.1,0-24.7,0-24.8,13.4
				C436.8,510.4,453.1,515.6,461.4,515.6z"/>
			<path class="st0" d="M410,483.7c6,0,10.8-4.7,10.8-10.7c0-0.4-0.1-0.7-0.1-1.1c-0.1-0.4-0.1-0.7-0.2-1.1
				c-0.1-0.3-0.2-0.5-0.3-0.8c-0.1-0.4-0.2-0.7-0.4-1.1c-1.7-3.8-5.5-6.5-9.8-6.6c-6,0-10.8,4.7-10.8,10.7
				C399.2,479,404,483.7,410,483.7z"/>
			<path class="st0" d="M523.9,473.9c0,0,0,0,0-0.2c0-6-4.7-10.8-10.7-10.8c-6,0.1-10.7,4.8-10.9,10.8c-0.2,6,4.7,10.8,10.7,11
				C518.9,484.7,523.7,480,523.9,473.9z"/>
			<path class="st0" d="M461,526.2c-23.7-0.2-39.1-6.7-39.1-12.7h-9.6c0.1,5.2,3.3,12.3,17.1,17.1c10.4,3.3,21,4.8,32.1,4.6
				c22.4,0,48.7-5.4,48.9-21.4h-9.6C500.8,519.8,484.7,526.2,461,526.2z"/>
		</g>
		<g>
			<path class="st0" d="M461.8,599.8c-52.3,0-94.7,32.1-94.7,71.6c-0.8,54.8-2.1,96.4-6.4,121.8l9.1,1.4c3.5-18.7,5.2-46.8,6-83.7
				c4-0.8,7.7-1.5,11.2-2.5c10.2,26.7,37.3,42.1,74.7,42.1s64.1-15.2,74.7-42.1c3.5,1,7.3,1.7,11.2,2.5c0,0.5,0,1,0,1.6
				c0.4,24.6,1.3,45.4,3.1,62.2c0.8,7.7,1.8,14.6,3,20.5l9.1-2.1c-4.7-24.8-6-66.7-6.4-121.8C556.6,631.9,514.1,599.8,461.8,599.8z
				 M388.3,639.4c0-0.1,0.1-0.1,0.1-0.2c14.9-17.6,41.5-29.8,72.1-30c0.3,0,0.6,0,0.9,0c31,0,58.1,12.3,73.1,30.2h0l0,0c0,0,0,0,0,0
				c-4.6-0.4-8.7-0.8-12.7-1c0,0,0,0,0,0c-14-13.3-35-20.4-60.4-20.4c-9.5,0-18.4,1-26.6,2.9c-2.7,0.6-5.4,1.4-7.9,2.3
				c-2.5,0.9-5,1.8-7.4,2.9c-3.5,1.6-6.9,3.4-10,5.5c-3.1,2.1-6,4.3-8.6,6.8C397.1,638.5,392.9,639,388.3,639.4L388.3,639.4
				L388.3,639.4z M375.6,701.8C375.6,701.8,375.6,701.8,375.6,701.8c-0.1,0-0.1,0-0.2,0c0.6-9.8,0.8-19.8,0.8-30.2
				c0-7.5,1.7-15,5.2-21.7c6.6-0.9,12.4-1.5,17.5-1.7c28.1-1.5,34.5,6.4,36.4,14.7c1.2,4.2,0.4,8.7-2.1,12.5
				c-2.9,4.5-9,10.1-21.7,15.6c-6.3,2.8-14.2,5.5-24.2,8.1C383.8,700,379.9,700.9,375.6,701.8z M461.4,741.6c-0.1,0-0.1,0-0.2,0
				c-0.1,0-0.1,0-0.2,0c-32.7,0-56.4-12.7-65.6-35.2c23.5-6.7,38.7-15.8,45.2-26.2c3.7-5.8,5-13.1,3.3-19.8
				c-2.9-12.7-12.3-19.8-28.9-21.4c11.9-7.7,27.5-11.7,46-11.7c0.1,0,0.1,0,0.2,0c0.1,0,0.1,0,0.2,0c18.5,0,34.1,4,46,11.7
				c-17.1,2.1-26.2,9-29.1,21.7c-1.7,6.7-0.4,14,3.3,19.8c6.7,10.4,22.1,19.6,45.8,26.2C517.6,728.9,494.3,741.6,461.4,741.6z
				 M547.2,702c-4.5-1-8.7-2-12.6-3c-6.6-1.7-12.3-3.5-17.2-5.4c-17.4-6.4-25.1-13.1-28.2-18.3c-2.5-3.7-3.3-8.3-2.1-12.5
				c2-7.6,7.6-15,30.6-14.9c6.5,0,14.4,0.6,23.9,2c3.5,6.7,5.2,14.2,5.2,21.7c0,10.4,0.2,20.8,0.4,30.4
				C547.3,702,547.3,702,547.2,702C547.2,702,547.2,702,547.2,702z"/>
			<path class="st0" d="M461.4,711.2c8.3,0,24.7-5,24.8-16.6c-0.1-13.4-16.9-13.4-24.8-13.4c-8.1,0-24.7,0-24.8,13.4
				C436.8,706,453.1,711.2,461.4,711.2z"/>
			<path class="st0" d="M410,679.4c6,0,10.8-4.7,10.8-10.7c0-0.4-0.1-0.7-0.1-1.1c-0.1-0.4-0.1-0.7-0.2-1.1
				c-0.1-0.3-0.2-0.5-0.3-0.8c-0.1-0.4-0.2-0.7-0.4-1.1c-1.7-3.8-5.5-6.5-9.8-6.6c-6,0-10.8,4.7-10.8,10.7
				C399.2,674.6,404,679.4,410,679.4z"/>
			<path class="st0" d="M523.9,669.6c0,0,0,0,0-0.2c0-6-4.7-10.8-10.7-10.8c-6,0.1-10.7,4.8-10.9,10.8c-0.2,6,4.7,10.8,10.7,11
				C518.9,680.3,523.7,675.6,523.9,669.6z"/>
			<path class="st0" d="M461,721.8c-23.7-0.2-39.1-6.7-39.1-12.7h-9.6c0.1,5.2,3.3,12.3,17.1,17.1c10.4,3.3,21,4.8,32.1,4.6
				c22.4,0,48.7-5.4,48.9-21.4h-9.6C500.8,715.4,484.7,721.8,461,721.8z"/>
		</g>
		<g>
			<path class="st0" d="M461.8,795.4c-52.3,0-94.7,32.1-94.7,71.6c-0.8,54.8-2.1,96.4-6.4,121.8l9.1,1.4c3.5-18.7,5.2-46.8,6-83.7
				c4-0.8,7.7-1.5,11.2-2.5c10.2,26.7,37.3,42.1,74.7,42.1s64.1-15.2,74.7-42.1c3.5,1,7.3,1.7,11.2,2.5c0,0.5,0,1,0,1.6
				c0.4,24.6,1.3,45.4,3.1,62.2c0.8,7.7,1.8,14.6,3,20.5l9.1-2.1c-4.7-24.8-6-66.7-6.4-121.8C556.6,827.5,514.1,795.4,461.8,795.4z
				 M388.3,835c0-0.1,0.1-0.1,0.1-0.2c14.9-17.6,41.5-29.8,72.1-30c0.3,0,0.6,0,0.9,0c31,0,58.1,12.3,73.1,30.2h0l0,0c0,0,0,0,0,0
				c-4.6-0.4-8.7-0.8-12.7-1c0,0,0,0,0,0c-14-13.3-35-20.4-60.4-20.4c-9.5,0-18.4,1-26.6,2.9c-2.7,0.6-5.4,1.4-7.9,2.3
				c-2.5,0.9-5,1.8-7.4,2.9c-3.5,1.6-6.9,3.4-10,5.5c-3.1,2.1-6,4.3-8.6,6.8C397.1,834.2,392.9,834.6,388.3,835L388.3,835L388.3,835
				z M375.6,897.5C375.6,897.4,375.6,897.4,375.6,897.5c-0.1,0-0.1,0-0.2,0c0.6-9.8,0.8-19.8,0.8-30.2c0-7.5,1.7-15,5.2-21.7
				c6.6-0.9,12.4-1.5,17.5-1.7c28.1-1.5,34.5,6.4,36.4,14.7c1.2,4.2,0.4,8.7-2.1,12.5c-2.9,4.5-9,10.1-21.7,15.6
				c-6.3,2.8-14.2,5.5-24.2,8.1C383.8,895.6,379.9,896.6,375.6,897.5z M461.4,937.2c-0.1,0-0.1,0-0.2,0c-0.1,0-0.1,0-0.2,0
				c-32.7,0-56.4-12.7-65.6-35.2c23.5-6.7,38.7-15.8,45.2-26.2c3.7-5.8,5-13.1,3.3-19.8c-2.9-12.7-12.3-19.8-28.9-21.4
				c11.9-7.7,27.5-11.7,46-11.7c0.1,0,0.1,0,0.2,0c0.1,0,0.1,0,0.2,0c18.5,0,34.1,4,46,11.7c-17.1,2.1-26.2,9-29.1,21.7
				c-1.7,6.7-0.4,14,3.3,19.8c6.7,10.4,22.1,19.6,45.8,26.2C517.6,924.5,494.3,937.2,461.4,937.2z M547.2,897.7c-4.5-1-8.7-2-12.6-3
				c-6.6-1.7-12.3-3.5-17.2-5.4c-17.4-6.4-25.1-13.1-28.2-18.3c-2.5-3.7-3.3-8.3-2.1-12.5c2-7.6,7.6-15,30.6-14.9
				c6.5,0,14.4,0.6,23.9,2c3.5,6.7,5.2,14.2,5.2,21.7c0,10.4,0.2,20.8,0.4,30.4C547.3,897.6,547.3,897.6,547.2,897.7
				C547.2,897.6,547.2,897.7,547.2,897.7z"/>
			<path class="st0" d="M461.4,906.8c8.3,0,24.7-5,24.8-16.6c-0.1-13.4-16.9-13.4-24.8-13.4c-8.1,0-24.7,0-24.8,13.4
				C436.8,901.6,453.1,906.8,461.4,906.8z"/>
			<path class="st0" d="M410,875c6,0,10.8-4.7,10.8-10.7c0-0.4-0.1-0.7-0.1-1.1c-0.1-0.4-0.1-0.7-0.2-1.1c-0.1-0.3-0.2-0.5-0.3-0.8
				c-0.1-0.4-0.2-0.7-0.4-1.1c-1.7-3.8-5.5-6.5-9.8-6.6c-6,0-10.8,4.7-10.8,10.7C399.2,870.2,404,875,410,875z"/>
			<path class="st0" d="M523.9,865.2c0,0,0,0,0-0.2c0-6-4.7-10.8-10.7-10.8c-6,0.1-10.7,4.8-10.9,10.8c-0.2,6,4.7,10.8,10.7,11
				C518.9,876,523.7,871.2,523.9,865.2z"/>
			<path class="st0" d="M461,917.4c-23.7-0.2-39.1-6.7-39.1-12.7h-9.6c0.1,5.2,3.3,12.3,17.1,17.1c10.4,3.3,21,4.8,32.1,4.6
				c22.4,0,48.7-5.4,48.9-21.4h-9.6C500.8,911,484.7,917.4,461,917.4z"/>
		</g>
	</g>
	<g>
		<g>
			<path class="st0" d="M230.6,138.3c-52.3,0-94.7,32.1-94.7,71.6c-0.8,54.8-2.1,96.4-6.4,121.8l9.1,1.4c3.5-18.7,5.2-46.8,6-83.7
				c4-0.8,7.7-1.5,11.2-2.5c10.2,26.7,37.3,42.1,74.7,42.1s64.1-15.2,74.7-42.1c3.5,1,7.3,1.7,11.2,2.5c0,0.5,0,1,0,1.6
				c0.4,24.6,1.3,45.4,3.1,62.2c0.8,7.7,1.8,14.6,3,20.5l9.1-2.1c-4.7-24.8-6-66.7-6.4-121.8C325.4,170.4,282.9,138.3,230.6,138.3z
				 M157.1,177.9c0-0.1,0.1-0.1,0.1-0.2c14.9-17.6,41.5-29.8,72.1-30c0.3,0,0.6,0,0.9,0c31,0,58.1,12.3,73.1,30.2h0l0,0c0,0,0,0,0,0
				c-4.6-0.4-8.7-0.8-12.7-1c0,0,0,0,0,0c-14-13.3-35-20.4-60.4-20.4c-9.5,0-18.4,1-26.6,2.9c-2.7,0.6-5.4,1.4-7.9,2.3
				c-2.5,0.9-5,1.8-7.4,2.9c-3.5,1.6-6.9,3.4-10,5.5c-3.1,2.1-6,4.3-8.6,6.8C165.9,177,161.7,177.5,157.1,177.9L157.1,177.9
				L157.1,177.9z M144.4,240.3C144.4,240.3,144.4,240.3,144.4,240.3c-0.1,0-0.1,0-0.2,0c0.6-9.8,0.8-19.8,0.8-30.2
				c0-7.5,1.7-15,5.2-21.7c6.6-0.9,12.4-1.5,17.5-1.7c28.1-1.5,34.5,6.4,36.4,14.7c1.2,4.2,0.4,8.7-2.1,12.5
				c-2.9,4.5-9,10.1-21.7,15.6c-6.3,2.8-14.2,5.5-24.2,8.1C152.6,238.5,148.7,239.4,144.4,240.3z M230.2,280.1c-0.1,0-0.1,0-0.2,0
				c-0.1,0-0.1,0-0.2,0c-32.7,0-56.4-12.7-65.6-35.2c23.5-6.7,38.7-15.8,45.2-26.2c3.7-5.8,5-13.1,3.3-19.8
				c-2.9-12.7-12.3-19.8-28.9-21.4c11.9-7.7,27.5-11.7,46-11.7c0.1,0,0.1,0,0.2,0c0.1,0,0.1,0,0.2,0c18.5,0,34.1,4,46,11.7
				c-17.1,2.1-26.2,9-29.1,21.7c-1.7,6.7-0.4,14,3.3,19.8c6.7,10.4,22.1,19.6,45.8,26.2C286.5,267.4,263.1,280.1,230.2,280.1z
				 M316,240.5c-4.5-1-8.7-2-12.6-3c-6.6-1.7-12.3-3.5-17.2-5.4c-17.4-6.4-25.1-13.1-28.2-18.3c-2.5-3.7-3.3-8.3-2.1-12.5
				c2-7.6,7.6-15,30.6-14.9c6.5,0,14.4,0.6,23.9,2c3.5,6.7,5.2,14.2,5.2,21.7c0,10.4,0.2,20.8,0.4,30.4
				C316.2,240.5,316.1,240.5,316,240.5C316,240.5,316,240.5,316,240.5z"/>
			<path class="st0" d="M230.2,249.7c8.3,0,24.7-5,24.8-16.6c-0.1-13.4-16.9-13.4-24.8-13.4c-8.1,0-24.7,0-24.8,13.4
				C205.6,244.5,221.9,249.7,230.2,249.7z"/>
			<path class="st0" d="M178.8,217.8c6,0,10.8-4.7,10.8-10.7c0-0.4-0.1-0.7-0.1-1.1c-0.1-0.4-0.1-0.7-0.2-1.1
				c-0.1-0.3-0.2-0.5-0.3-0.8c-0.1-0.4-0.2-0.7-0.4-1.1c-1.7-3.8-5.5-6.5-9.8-6.6c-6,0-10.8,4.7-10.8,10.7
				C168,213.1,172.8,217.8,178.8,217.8z"/>
			<path class="st0" d="M292.7,208.1c0,0,0,0,0-0.2c0-6-4.7-10.8-10.7-10.8c-6,0.1-10.7,4.8-10.9,10.8c-0.2,6,4.7,10.8,10.7,11
				C287.7,218.8,292.5,214.1,292.7,208.1z"/>
			<path class="st0" d="M229.8,260.3c-23.7-0.2-39.1-6.7-39.1-12.7h-9.6c0.1,5.2,3.3,12.3,17.1,17.1c10.4,3.3,21,4.8,32.1,4.6
				c22.4,0,48.7-5.4,48.9-21.4h-9.6C269.6,253.9,253.6,260.3,229.8,260.3z"/>
		</g>
		<g>
			<path class="st0" d="M230.6-57.3c-52.3,0-94.7,32.1-94.7,71.6c-0.8,54.8-2.1,96.4-6.4,121.8l9.1,1.4c3.5-18.7,5.2-46.8,6-83.7
				c4-0.8,7.7-1.5,11.2-2.5c10.2,26.7,37.3,42.1,74.7,42.1s64.1-15.2,74.7-42.1c3.5,1,7.3,1.7,11.2,2.5c0,0.5,0,1,0,1.6
				c0.4,24.6,1.3,45.4,3.1,62.2c0.8,7.7,1.8,14.6,3,20.5l9.1-2.1c-4.7-24.8-6-66.7-6.4-121.8C325.4-25.2,282.9-57.3,230.6-57.3z
				 M157.1-17.7c0-0.1,0.1-0.1,0.1-0.2c14.9-17.6,41.5-29.8,72.1-30c0.3,0,0.6,0,0.9,0c31,0,58.1,12.3,73.1,30.2h0l0,0c0,0,0,0,0,0
				c-4.6-0.4-8.7-0.8-12.7-1c0,0,0,0,0,0c-14-13.3-35-20.4-60.4-20.4c-9.5,0-18.4,1-26.6,2.9c-2.7,0.6-5.4,1.4-7.9,2.3
				c-2.5,0.9-5,1.8-7.4,2.9c-3.5,1.6-6.9,3.4-10,5.5c-3.1,2.1-6,4.3-8.6,6.8C165.9-18.6,161.7-18.2,157.1-17.7L157.1-17.7
				L157.1-17.7z M144.4,44.7C144.4,44.7,144.4,44.7,144.4,44.7c-0.1,0-0.1,0-0.2,0c0.6-9.8,0.8-19.8,0.8-30.2c0-7.5,1.7-15,5.2-21.7
				c6.6-0.9,12.4-1.5,17.5-1.7c28.1-1.5,34.5,6.4,36.4,14.7c1.2,4.2,0.4,8.7-2.1,12.5c-2.9,4.5-9,10.1-21.7,15.6
				c-6.3,2.8-14.2,5.5-24.2,8.1C152.6,42.9,148.7,43.8,144.4,44.7z M230.2,84.5c-0.1,0-0.1,0-0.2,0c-0.1,0-0.1,0-0.2,0
				c-32.7,0-56.4-12.7-65.6-35.2c23.5-6.7,38.7-15.8,45.2-26.2c3.7-5.8,5-13.1,3.3-19.8c-2.9-12.7-12.3-19.8-28.9-21.4
				c11.9-7.7,27.5-11.7,46-11.7c0.1,0,0.1,0,0.2,0c0.1,0,0.1,0,0.2,0c18.5,0,34.1,4,46,11.7c-17.1,2.1-26.2,9-29.1,21.7
				c-1.7,6.7-0.4,14,3.3,19.8c6.7,10.4,22.1,19.6,45.8,26.2C286.5,71.8,263.1,84.5,230.2,84.5z M316,44.9c-4.5-1-8.7-2-12.6-3
				c-6.6-1.7-12.3-3.5-17.2-5.4c-17.4-6.4-25.1-13.1-28.2-18.3c-2.5-3.7-3.3-8.3-2.1-12.5c2-7.6,7.6-15,30.6-14.9
				c6.5,0,14.4,0.6,23.9,2c3.5,6.7,5.2,14.2,5.2,21.7c0,10.4,0.2,20.8,0.4,30.4C316.2,44.9,316.1,44.9,316,44.9
				C316,44.9,316,44.9,316,44.9z"/>
			<path class="st0" d="M230.2,54.1c8.3,0,24.7-5,24.8-16.6c-0.1-13.4-16.9-13.4-24.8-13.4c-8.1,0-24.7,0-24.8,13.4
				C205.6,48.9,221.9,54.1,230.2,54.1z"/>
			<path class="st0" d="M178.8,22.2c6,0,10.8-4.7,10.8-10.7c0-0.4-0.1-0.7-0.1-1.1c-0.1-0.4-0.1-0.7-0.2-1.1
				c-0.1-0.3-0.2-0.5-0.3-0.8c-0.1-0.4-0.2-0.7-0.4-1.1c-1.7-3.8-5.5-6.5-9.8-6.6c-6,0-10.8,4.7-10.8,10.7
				C168,17.5,172.8,22.2,178.8,22.2z"/>
			<path class="st0" d="M292.7,12.4c0,0,0,0,0-0.2c0-6-4.7-10.8-10.7-10.8c-6,0.1-10.7,4.8-10.9,10.8c-0.2,6,4.7,10.8,10.7,11
				C287.7,23.2,292.5,18.4,292.7,12.4z"/>
			<path class="st0" d="M229.8,64.7c-23.7-0.2-39.1-6.7-39.1-12.7h-9.6c0.1,5.2,3.3,12.3,17.1,17.1c10.4,3.3,21,4.8,32.1,4.6
				c22.4,0,48.7-5.4,48.9-21.4h-9.6C269.6,58.2,253.6,64.7,229.8,64.7z"/>
		</g>
		<g>
			<path class="st0" d="M230.6,333.9c-52.3,0-94.7,32.1-94.7,71.6c-0.8,54.8-2.1,96.4-6.4,121.8l9.1,1.4c3.5-18.7,5.2-46.8,6-83.7
				c4-0.8,7.7-1.5,11.2-2.5c10.2,26.7,37.3,42.1,74.7,42.1s64.1-15.2,74.7-42.1c3.5,1,7.3,1.7,11.2,2.5c0,0.5,0,1,0,1.6
				c0.4,24.6,1.3,45.4,3.1,62.2c0.8,7.7,1.8,14.6,3,20.5l9.1-2.1c-4.7-24.8-6-66.7-6.4-121.8C325.4,366,282.9,333.9,230.6,333.9z
				 M157.1,373.5c0-0.1,0.1-0.1,0.1-0.2c14.9-17.6,41.5-29.8,72.1-30c0.3,0,0.6,0,0.9,0c31,0,58.1,12.3,73.1,30.2h0l0,0c0,0,0,0,0,0
				c-4.6-0.4-8.7-0.8-12.7-1c0,0,0,0,0,0c-14-13.3-35-20.4-60.4-20.4c-9.5,0-18.4,1-26.6,2.9c-2.7,0.6-5.4,1.4-7.9,2.3
				c-2.5,0.9-5,1.8-7.4,2.9c-3.5,1.6-6.9,3.4-10,5.5c-3.1,2.1-6,4.3-8.6,6.8C165.9,372.7,161.7,373.1,157.1,373.5L157.1,373.5
				L157.1,373.5z M144.4,436C144.4,435.9,144.4,435.9,144.4,436c-0.1,0-0.1,0-0.2,0c0.6-9.8,0.8-19.8,0.8-30.2
				c0-7.5,1.7-15,5.2-21.7c6.6-0.9,12.4-1.5,17.5-1.7c28.1-1.5,34.5,6.4,36.4,14.7c1.2,4.2,0.4,8.7-2.1,12.5
				c-2.9,4.5-9,10.1-21.7,15.6c-6.3,2.8-14.2,5.5-24.2,8.1C152.6,434.1,148.7,435,144.4,436z M230.2,475.7c-0.1,0-0.1,0-0.2,0
				c-0.1,0-0.1,0-0.2,0c-32.7,0-56.4-12.7-65.6-35.2c23.5-6.7,38.7-15.8,45.2-26.2c3.7-5.8,5-13.1,3.3-19.8
				c-2.9-12.7-12.3-19.8-28.9-21.4c11.9-7.7,27.5-11.7,46-11.7c0.1,0,0.1,0,0.2,0c0.1,0,0.1,0,0.2,0c18.5,0,34.1,4,46,11.7
				c-17.1,2.1-26.2,9-29.1,21.7c-1.7,6.7-0.4,14,3.3,19.8c6.7,10.4,22.1,19.6,45.8,26.2C286.5,463,263.1,475.7,230.2,475.7z
				 M316,436.2c-4.5-1-8.7-2-12.6-3c-6.6-1.7-12.3-3.5-17.2-5.4c-17.4-6.4-25.1-13.1-28.2-18.3c-2.5-3.7-3.3-8.3-2.1-12.5
				c2-7.6,7.6-15,30.6-14.9c6.5,0,14.4,0.6,23.9,2c3.5,6.7,5.2,14.2,5.2,21.7c0,10.4,0.2,20.8,0.4,30.4
				C316.2,436.1,316.1,436.1,316,436.2C316,436.1,316,436.1,316,436.2z"/>
			<path class="st0" d="M230.2,445.3c8.3,0,24.7-5,24.8-16.6c-0.1-13.4-16.9-13.4-24.8-13.4c-8.1,0-24.7,0-24.8,13.4
				C205.6,440.1,221.9,445.3,230.2,445.3z"/>
			<path class="st0" d="M178.8,413.5c6,0,10.8-4.7,10.8-10.7c0-0.4-0.1-0.7-0.1-1.1c-0.1-0.4-0.1-0.7-0.2-1.1
				c-0.1-0.3-0.2-0.5-0.3-0.8c-0.1-0.4-0.2-0.7-0.4-1.1c-1.7-3.8-5.5-6.5-9.8-6.6c-6,0-10.8,4.7-10.8,10.7
				C168,408.7,172.8,413.5,178.8,413.5z"/>
			<path class="st0" d="M292.7,403.7c0,0,0,0,0-0.2c0-6-4.7-10.8-10.7-10.8c-6,0.1-10.7,4.8-10.9,10.8c-0.2,6,4.7,10.8,10.7,11
				C287.7,414.4,292.5,409.7,292.7,403.7z"/>
			<path class="st0" d="M229.8,455.9c-23.7-0.2-39.1-6.7-39.1-12.7h-9.6c0.1,5.2,3.3,12.3,17.1,17.1c10.4,3.3,21,4.8,32.1,4.6
				c22.4,0,48.7-5.4,48.9-21.4h-9.6C269.6,449.5,253.6,455.9,229.8,455.9z"/>
		</g>
		<g>
			<path class="st0" d="M230.6,529.5c-52.3,0-94.7,32.1-94.7,71.6c-0.8,54.8-2.1,96.4-6.4,121.8l9.1,1.4c3.5-18.7,5.2-46.8,6-83.7
				c4-0.8,7.7-1.5,11.2-2.5c10.2,26.7,37.3,42.1,74.7,42.1s64.1-15.2,74.7-42.1c3.5,1,7.3,1.7,11.2,2.5c0,0.5,0,1,0,1.6
				c0.4,24.6,1.3,45.4,3.1,62.2c0.8,7.7,1.8,14.6,3,20.5l9.1-2.1c-4.7-24.8-6-66.7-6.4-121.8C325.4,561.6,282.9,529.5,230.6,529.5z
				 M157.1,569.1c0-0.1,0.1-0.1,0.1-0.2c14.9-17.6,41.5-29.8,72.1-30c0.3,0,0.6,0,0.9,0c31,0,58.1,12.3,73.1,30.2h0l0,0c0,0,0,0,0,0
				c-4.6-0.4-8.7-0.8-12.7-1c0,0,0,0,0,0c-14-13.3-35-20.4-60.4-20.4c-9.5,0-18.4,1-26.6,2.9c-2.7,0.6-5.4,1.4-7.9,2.3
				c-2.5,0.9-5,1.8-7.4,2.9c-3.5,1.6-6.9,3.4-10,5.5c-3.1,2.1-6,4.3-8.6,6.8C165.9,568.3,161.7,568.7,157.1,569.1L157.1,569.1
				L157.1,569.1z M144.4,631.6C144.4,631.6,144.4,631.5,144.4,631.6c-0.1,0-0.1,0-0.2,0c0.6-9.8,0.8-19.8,0.8-30.2
				c0-7.5,1.7-15,5.2-21.7c6.6-0.9,12.4-1.5,17.5-1.7c28.1-1.5,34.5,6.4,36.4,14.7c1.2,4.2,0.4,8.7-2.1,12.5
				c-2.9,4.5-9,10.1-21.7,15.6c-6.3,2.8-14.2,5.5-24.2,8.1C152.6,629.7,148.7,630.7,144.4,631.6z M230.2,671.3c-0.1,0-0.1,0-0.2,0
				c-0.1,0-0.1,0-0.2,0c-32.7,0-56.4-12.7-65.6-35.2c23.5-6.7,38.7-15.8,45.2-26.2c3.7-5.8,5-13.1,3.3-19.8
				c-2.9-12.7-12.3-19.8-28.9-21.4c11.9-7.7,27.5-11.7,46-11.7c0.1,0,0.1,0,0.2,0c0.1,0,0.1,0,0.2,0c18.5,0,34.1,4,46,11.7
				c-17.1,2.1-26.2,9-29.1,21.7c-1.7,6.7-0.4,14,3.3,19.8c6.7,10.4,22.1,19.6,45.8,26.2C286.5,658.6,263.1,671.3,230.2,671.3z
				 M316,631.8c-4.5-1-8.7-2-12.6-3c-6.6-1.7-12.3-3.5-17.2-5.4c-17.4-6.4-25.1-13.1-28.2-18.3c-2.5-3.7-3.3-8.3-2.1-12.5
				c2-7.6,7.6-15,30.6-14.9c6.5,0,14.4,0.6,23.9,2c3.5,6.7,5.2,14.2,5.2,21.7c0,10.4,0.2,20.8,0.4,30.4
				C316.2,631.8,316.1,631.7,316,631.8C316,631.7,316,631.8,316,631.8z"/>
			<path class="st0" d="M230.2,640.9c8.3,0,24.7-5,24.8-16.6c-0.1-13.4-16.9-13.4-24.8-13.4c-8.1,0-24.7,0-24.8,13.4
				C205.6,635.8,221.9,640.9,230.2,640.9z"/>
			<path class="st0" d="M178.8,609.1c6,0,10.8-4.7,10.8-10.7c0-0.4-0.1-0.7-0.1-1.1c-0.1-0.4-0.1-0.7-0.2-1.1
				c-0.1-0.3-0.2-0.5-0.3-0.8c-0.1-0.4-0.2-0.7-0.4-1.1c-1.7-3.8-5.5-6.5-9.8-6.6c-6,0-10.8,4.7-10.8,10.7
				C168,604.3,172.8,609.1,178.8,609.1z"/>
			<path class="st0" d="M292.7,599.3c0,0,0,0,0-0.2c0-6-4.7-10.8-10.7-10.8c-6,0.1-10.7,4.8-10.9,10.8c-0.2,6,4.7,10.8,10.7,11
				C287.7,610.1,292.5,605.3,292.7,599.3z"/>
			<path class="st0" d="M229.8,651.6c-23.7-0.2-39.1-6.7-39.1-12.7h-9.6c0.1,5.2,3.3,12.3,17.1,17.1c10.4,3.3,21,4.8,32.1,4.6
				c22.4,0,48.7-5.4,48.9-21.4h-9.6C269.6,645.1,253.6,651.6,229.8,651.6z"/>
		</g>
		<g>
			<path class="st0" d="M230.6,725.2c-52.3,0-94.7,32.1-94.7,71.6c-0.8,54.8-2.1,96.4-6.4,121.8l9.1,1.4c3.5-18.7,5.2-46.8,6-83.7
				c4-0.8,7.7-1.5,11.2-2.5c10.2,26.7,37.3,42.1,74.7,42.1s64.1-15.2,74.7-42.1c3.5,1,7.3,1.7,11.2,2.5c0,0.5,0,1,0,1.6
				c0.4,24.6,1.3,45.4,3.1,62.2c0.8,7.7,1.8,14.6,3,20.5l9.1-2.1c-4.7-24.8-6-66.7-6.4-121.8C325.4,757.2,282.9,725.2,230.6,725.2z
				 M157.1,764.7c0-0.1,0.1-0.1,0.1-0.2c14.9-17.6,41.5-29.8,72.1-30c0.3,0,0.6,0,0.9,0c31,0,58.1,12.3,73.1,30.2h0l0,0c0,0,0,0,0,0
				c-4.6-0.4-8.7-0.8-12.7-1c0,0,0,0,0,0c-14-13.3-35-20.4-60.4-20.4c-9.5,0-18.4,1-26.6,2.9c-2.7,0.6-5.4,1.4-7.9,2.3
				c-2.5,0.9-5,1.8-7.4,2.9c-3.5,1.6-6.9,3.4-10,5.5c-3.1,2.1-6,4.3-8.6,6.8C165.9,763.9,161.7,764.3,157.1,764.7L157.1,764.7
				L157.1,764.7z M144.4,827.2C144.4,827.2,144.4,827.2,144.4,827.2c-0.1,0-0.1,0-0.2,0c0.6-9.8,0.8-19.8,0.8-30.2
				c0-7.5,1.7-15,5.2-21.7c6.6-0.9,12.4-1.5,17.5-1.7c28.1-1.5,34.5,6.4,36.4,14.7c1.2,4.2,0.4,8.7-2.1,12.5
				c-2.9,4.5-9,10.1-21.7,15.6c-6.3,2.8-14.2,5.5-24.2,8.1C152.6,825.4,148.7,826.3,144.4,827.2z M230.2,867c-0.1,0-0.1,0-0.2,0
				c-0.1,0-0.1,0-0.2,0c-32.7,0-56.4-12.7-65.6-35.2c23.5-6.7,38.7-15.8,45.2-26.2c3.7-5.8,5-13.1,3.3-19.8
				c-2.9-12.7-12.3-19.8-28.9-21.4c11.9-7.7,27.5-11.7,46-11.7c0.1,0,0.1,0,0.2,0c0.1,0,0.1,0,0.2,0c18.5,0,34.1,4,46,11.7
				c-17.1,2.1-26.2,9-29.1,21.7c-1.7,6.7-0.4,14,3.3,19.8c6.7,10.4,22.1,19.6,45.8,26.2C286.5,854.3,263.1,867,230.2,867z
				 M316,827.4c-4.5-1-8.7-2-12.6-3c-6.6-1.7-12.3-3.5-17.2-5.4c-17.4-6.4-25.1-13.1-28.2-18.3c-2.5-3.7-3.3-8.3-2.1-12.5
				c2-7.6,7.6-15,30.6-14.9c6.5,0,14.4,0.6,23.9,2c3.5,6.7,5.2,14.2,5.2,21.7c0,10.4,0.2,20.8,0.4,30.4
				C316.2,827.4,316.1,827.4,316,827.4C316,827.4,316,827.4,316,827.4z"/>
			<path class="st0" d="M230.2,836.6c8.3,0,24.7-5,24.8-16.6c-0.1-13.4-16.9-13.4-24.8-13.4c-8.1,0-24.7,0-24.8,13.4
				C205.6,831.4,221.9,836.6,230.2,836.6z"/>
			<path class="st0" d="M178.8,804.7c6,0,10.8-4.7,10.8-10.7c0-0.4-0.1-0.7-0.1-1.1c-0.1-0.4-0.1-0.7-0.2-1.1
				c-0.1-0.3-0.2-0.5-0.3-0.8c-0.1-0.4-0.2-0.7-0.4-1.1c-1.7-3.8-5.5-6.5-9.8-6.6c-6,0-10.8,4.7-10.8,10.7
				C168,800,172.8,804.7,178.8,804.7z"/>
			<path class="st0" d="M292.7,794.9c0,0,0,0,0-0.2c0-6-4.7-10.8-10.7-10.8c-6,0.1-10.7,4.8-10.9,10.8c-0.2,6,4.7,10.8,10.7,11
				C287.7,805.7,292.5,800.9,292.7,794.9z"/>
			<path class="st0" d="M229.8,847.2c-23.7-0.2-39.1-6.7-39.1-12.7h-9.6c0.1,5.2,3.3,12.3,17.1,17.1c10.4,3.3,21,4.8,32.1,4.6
				c22.4,0,48.7-5.4,48.9-21.4h-9.6C269.6,840.7,253.6,847.2,229.8,847.2z"/>
		</g>
	</g>
	<g>
		<g>
			<path class="st0" d="M924.2,208.6c-52.3,0-94.7,32.1-94.7,71.6c-0.8,54.8-2.1,96.4-6.4,121.8l9.1,1.4c3.5-18.7,5.2-46.8,6-83.7
				c4-0.8,7.7-1.5,11.2-2.5c10.2,26.7,37.3,42.1,74.7,42.1c37.5,0,64.1-15.2,74.7-42.1c3.5,1,7.3,1.7,11.2,2.5c0,0.5,0,1,0,1.6
				c0.4,24.6,1.3,45.4,3.1,62.2c0.8,7.7,1.8,14.6,3,20.5l9.1-2.1c-4.7-24.8-6-66.7-6.4-121.8C1019,240.6,976.5,208.6,924.2,208.6z
				 M850.7,248.1c0-0.1,0.1-0.1,0.1-0.2c14.9-17.6,41.5-29.8,72.1-30c0.3,0,0.6,0,0.9,0c31,0,58.1,12.3,73.1,30.2h0l0,0c0,0,0,0,0,0
				c-4.6-0.4-8.7-0.8-12.7-1c0,0,0,0,0,0c-14-13.3-35-20.4-60.4-20.4c-9.5,0-18.4,1-26.6,2.9c-2.7,0.6-5.4,1.4-7.9,2.3
				c-2.5,0.9-5,1.8-7.4,2.9c-3.5,1.6-6.9,3.4-10,5.5c-3.1,2.1-6,4.3-8.6,6.8C859.5,247.3,855.3,247.7,850.7,248.1L850.7,248.1
				L850.7,248.1z M838,310.6C838,310.6,838,310.6,838,310.6c-0.1,0-0.1,0-0.2,0c0.6-9.8,0.8-19.8,0.8-30.2c0-7.5,1.7-15,5.2-21.7
				c6.6-0.9,12.4-1.5,17.5-1.7c28.1-1.5,34.5,6.4,36.4,14.7c1.2,4.2,0.4,8.7-2.1,12.5c-2.9,4.5-9,10.1-21.7,15.6
				c-6.3,2.8-14.2,5.5-24.2,8.1C846.2,308.8,842.3,309.7,838,310.6z M923.8,350.4c-0.1,0-0.1,0-0.2,0c-0.1,0-0.1,0-0.2,0
				c-32.7,0-56.4-12.7-65.6-35.2c23.5-6.7,38.7-15.8,45.2-26.2c3.7-5.8,5-13.1,3.3-19.8c-2.9-12.7-12.3-19.8-28.9-21.4
				c11.9-7.7,27.5-11.7,46-11.7c0.1,0,0.1,0,0.2,0c0.1,0,0.1,0,0.2,0c18.5,0,34.1,4,46,11.7c-17.1,2.1-26.2,9-29.2,21.7
				c-1.7,6.7-0.4,14,3.3,19.8c6.7,10.4,22.1,19.6,45.8,26.2C980,337.7,956.7,350.4,923.8,350.4z M1009.6,310.8c-4.5-1-8.7-2-12.6-3
				c-6.6-1.7-12.3-3.5-17.2-5.4c-17.4-6.4-25.1-13.1-28.2-18.3c-2.5-3.7-3.3-8.3-2.1-12.5c2-7.6,7.6-15,30.6-14.9
				c6.5,0,14.4,0.6,23.9,2c3.5,6.7,5.2,14.2,5.2,21.7c0,10.4,0.2,20.8,0.4,30.4C1009.7,310.8,1009.7,310.8,1009.6,310.8
				C1009.6,310.8,1009.6,310.8,1009.6,310.8z"/>
			<path class="st0" d="M923.8,320c8.3,0,24.7-5,24.8-16.6c-0.1-13.4-16.9-13.4-24.8-13.4c-8.1,0-24.7,0-24.8,13.4
				C899.1,314.8,915.5,320,923.8,320z"/>
			<path class="st0" d="M872.4,288.1c6,0,10.8-4.7,10.8-10.7c0-0.4-0.1-0.7-0.1-1.1c-0.1-0.4-0.1-0.7-0.2-1.1
				c-0.1-0.3-0.2-0.5-0.3-0.8c-0.1-0.4-0.2-0.7-0.4-1.1c-1.7-3.8-5.5-6.5-9.8-6.6c-6,0-10.8,4.7-10.8,10.7
				C861.6,283.4,866.4,288.1,872.4,288.1z"/>
			<path class="st0" d="M986.3,278.3c0,0,0,0,0-0.2c0-6-4.7-10.8-10.7-10.8c-6,0.1-10.7,4.8-10.9,10.8c-0.2,6,4.7,10.8,10.7,11
				C981.3,289.1,986.1,284.3,986.3,278.3z"/>
			<path class="st0" d="M923.4,330.6c-23.7-0.2-39.1-6.7-39.1-12.7h-9.6c0.1,5.2,3.3,12.3,17.1,17.1c10.4,3.3,21,4.8,32.1,4.6
				c22.4,0,48.7-5.4,48.9-21.4h-9.6C963.2,324.1,947.1,330.6,923.4,330.6z"/>
		</g>
		<g>
			<path class="st0" d="M924.2,13C872,13,829.5,45,829.5,84.6c-0.8,54.8-2.1,96.4-6.4,121.8l9.1,1.4c3.5-18.7,5.2-46.8,6-83.7
				c4-0.8,7.7-1.5,11.2-2.5c10.2,26.7,37.3,42.1,74.7,42.1c37.5,0,64.1-15.2,74.7-42.1c3.5,1,7.3,1.7,11.2,2.5c0,0.5,0,1,0,1.6
				c0.4,24.6,1.3,45.4,3.1,62.2c0.8,7.7,1.8,14.6,3,20.5l9.1-2.1c-4.7-24.8-6-66.7-6.4-121.8C1019,45,976.5,13,924.2,13z
				 M850.7,52.5c0-0.1,0.1-0.1,0.1-0.2c14.9-17.6,41.5-29.8,72.1-30c0.3,0,0.6,0,0.9,0c31,0,58.1,12.3,73.1,30.2h0l0,0c0,0,0,0,0,0
				c-4.6-0.4-8.7-0.8-12.7-1c0,0,0,0,0,0c-14-13.3-35-20.4-60.4-20.4c-9.5,0-18.4,1-26.6,2.9c-2.7,0.6-5.4,1.4-7.9,2.3
				c-2.5,0.9-5,1.8-7.4,2.9c-3.5,1.6-6.9,3.4-10,5.5c-3.1,2.1-6,4.3-8.6,6.8C859.5,51.7,855.3,52.1,850.7,52.5L850.7,52.5
				L850.7,52.5z M838,115C838,115,838,115,838,115c-0.1,0-0.1,0-0.2,0c0.6-9.8,0.8-19.8,0.8-30.2c0-7.5,1.7-15,5.2-21.7
				c6.6-0.9,12.4-1.5,17.5-1.7c28.1-1.5,34.5,6.4,36.4,14.7c1.2,4.2,0.4,8.7-2.1,12.5c-2.9,4.5-9,10.1-21.7,15.6
				c-6.3,2.8-14.2,5.5-24.2,8.1C846.2,113.2,842.3,114.1,838,115z M923.8,154.8c-0.1,0-0.1,0-0.2,0c-0.1,0-0.1,0-0.2,0
				c-32.7,0-56.4-12.7-65.6-35.2c23.5-6.7,38.7-15.8,45.2-26.2c3.7-5.8,5-13.1,3.3-19.8c-2.9-12.7-12.3-19.8-28.9-21.4
				c11.9-7.7,27.5-11.7,46-11.7c0.1,0,0.1,0,0.2,0c0.1,0,0.1,0,0.2,0c18.5,0,34.1,4,46,11.7c-17.1,2.1-26.2,9-29.2,21.7
				c-1.7,6.7-0.4,14,3.3,19.8c6.7,10.4,22.1,19.6,45.8,26.2C980,142.1,956.7,154.8,923.8,154.8z M1009.6,115.2c-4.5-1-8.7-2-12.6-3
				c-6.6-1.7-12.3-3.5-17.2-5.4c-17.4-6.4-25.1-13.1-28.2-18.3c-2.5-3.7-3.3-8.3-2.1-12.5c2-7.6,7.6-15,30.6-14.9
				c6.5,0,14.4,0.6,23.9,2c3.5,6.7,5.2,14.2,5.2,21.7c0,10.4,0.2,20.8,0.4,30.4C1009.7,115.2,1009.7,115.2,1009.6,115.2
				C1009.6,115.2,1009.6,115.2,1009.6,115.2z"/>
			<path class="st0" d="M923.8,124.4c8.3,0,24.7-5,24.8-16.6c-0.1-13.4-16.9-13.4-24.8-13.4c-8.1,0-24.7,0-24.8,13.4
				C899.1,119.2,915.5,124.4,923.8,124.4z"/>
			<path class="st0" d="M872.4,92.5c6,0,10.8-4.7,10.8-10.7c0-0.4-0.1-0.7-0.1-1.1c-0.1-0.4-0.1-0.7-0.2-1.1
				c-0.1-0.3-0.2-0.5-0.3-0.8c-0.1-0.4-0.2-0.7-0.4-1.1c-1.7-3.8-5.5-6.5-9.8-6.6c-6,0-10.8,4.7-10.8,10.7
				C861.6,87.8,866.4,92.5,872.4,92.5z"/>
			<path class="st0" d="M986.3,82.7c0,0,0,0,0-0.2c0-6-4.7-10.8-10.7-10.8c-6,0.1-10.7,4.8-10.9,10.8c-0.2,6,4.7,10.8,10.7,11
				C981.3,93.5,986.1,88.7,986.3,82.7z"/>
			<path class="st0" d="M923.4,135c-23.7-0.2-39.1-6.7-39.1-12.7h-9.6c0.1,5.2,3.3,12.3,17.1,17.1c10.4,3.3,21,4.8,32.1,4.6
				c22.4,0,48.7-5.4,48.9-21.4h-9.6C963.2,128.5,947.1,135,923.4,135z"/>
		</g>
		<g>
			<path class="st0" d="M924.2,404.2c-52.3,0-94.7,32.1-94.7,71.6c-0.8,54.8-2.1,96.4-6.4,121.8l9.1,1.4c3.5-18.7,5.2-46.8,6-83.7
				c4-0.8,7.7-1.5,11.2-2.5c10.2,26.7,37.3,42.1,74.7,42.1c37.5,0,64.1-15.2,74.7-42.1c3.5,1,7.3,1.7,11.2,2.5c0,0.5,0,1,0,1.6
				c0.4,24.6,1.3,45.4,3.1,62.2c0.8,7.7,1.8,14.6,3,20.5l9.1-2.1c-4.7-24.8-6-66.7-6.4-121.8C1019,436.3,976.5,404.2,924.2,404.2z
				 M850.7,443.8c0-0.1,0.1-0.1,0.1-0.2c14.9-17.6,41.5-29.8,72.1-30c0.3,0,0.6,0,0.9,0c31,0,58.1,12.3,73.1,30.2h0l0,0c0,0,0,0,0,0
				c-4.6-0.4-8.7-0.8-12.7-1c0,0,0,0,0,0c-14-13.3-35-20.4-60.4-20.4c-9.5,0-18.4,1-26.6,2.9c-2.7,0.6-5.4,1.4-7.9,2.3
				c-2.5,0.9-5,1.8-7.4,2.9c-3.5,1.6-6.9,3.4-10,5.5c-3.1,2.1-6,4.3-8.6,6.8C859.5,442.9,855.3,443.3,850.7,443.8L850.7,443.8
				L850.7,443.8z M838,506.2C838,506.2,838,506.2,838,506.2c-0.1,0-0.1,0-0.2,0c0.6-9.8,0.8-19.8,0.8-30.2c0-7.5,1.7-15,5.2-21.7
				c6.6-0.9,12.4-1.5,17.5-1.7c28.1-1.5,34.5,6.4,36.4,14.7c1.2,4.2,0.4,8.7-2.1,12.5c-2.9,4.5-9,10.1-21.7,15.6
				c-6.3,2.8-14.2,5.5-24.2,8.1C846.2,504.4,842.3,505.3,838,506.2z M923.8,546c-0.1,0-0.1,0-0.2,0c-0.1,0-0.1,0-0.2,0
				c-32.7,0-56.4-12.7-65.6-35.2c23.5-6.7,38.7-15.8,45.2-26.2c3.7-5.8,5-13.1,3.3-19.8c-2.9-12.7-12.3-19.8-28.9-21.4
				c11.9-7.7,27.5-11.7,46-11.7c0.1,0,0.1,0,0.2,0c0.1,0,0.1,0,0.2,0c18.5,0,34.1,4,46,11.7c-17.1,2.1-26.2,9-29.2,21.7
				c-1.7,6.7-0.4,14,3.3,19.8c6.7,10.4,22.1,19.6,45.8,26.2C980,533.3,956.7,546,923.8,546z M1009.6,506.4c-4.5-1-8.7-2-12.6-3
				c-6.6-1.7-12.3-3.5-17.2-5.4c-17.4-6.4-25.1-13.1-28.2-18.3c-2.5-3.7-3.3-8.3-2.1-12.5c2-7.6,7.6-15,30.6-14.9
				c6.5,0,14.4,0.6,23.9,2c3.5,6.7,5.2,14.2,5.2,21.7c0,10.4,0.2,20.8,0.4,30.4C1009.7,506.4,1009.7,506.4,1009.6,506.4
				C1009.6,506.4,1009.6,506.4,1009.6,506.4z"/>
			<path class="st0" d="M923.8,515.6c8.3,0,24.7-5,24.8-16.6c-0.1-13.4-16.9-13.4-24.8-13.4c-8.1,0-24.7,0-24.8,13.4
				C899.1,510.4,915.5,515.6,923.8,515.6z"/>
			<path class="st0" d="M872.4,483.7c6,0,10.8-4.7,10.8-10.7c0-0.4-0.1-0.7-0.1-1.1c-0.1-0.4-0.1-0.7-0.2-1.1
				c-0.1-0.3-0.2-0.5-0.3-0.8c-0.1-0.4-0.2-0.7-0.4-1.1c-1.7-3.8-5.5-6.5-9.8-6.6c-6,0-10.8,4.7-10.8,10.7
				C861.6,479,866.4,483.7,872.4,483.7z"/>
			<path class="st0" d="M986.3,473.9c0,0,0,0,0-0.2c0-6-4.7-10.8-10.7-10.8c-6,0.1-10.7,4.8-10.9,10.8c-0.2,6,4.7,10.8,10.7,11
				C981.3,484.7,986.1,480,986.3,473.9z"/>
			<path class="st0" d="M923.4,526.2c-23.7-0.2-39.1-6.7-39.1-12.7h-9.6c0.1,5.2,3.3,12.3,17.1,17.1c10.4,3.3,21,4.8,32.1,4.6
				c22.4,0,48.7-5.4,48.9-21.4h-9.6C963.2,519.8,947.1,526.2,923.4,526.2z"/>
		</g>
		<g>
			<path class="st0" d="M924.2,599.8c-52.3,0-94.7,32.1-94.7,71.6c-0.8,54.8-2.1,96.4-6.4,121.8l9.1,1.4c3.5-18.7,5.2-46.8,6-83.7
				c4-0.8,7.7-1.5,11.2-2.5c10.2,26.7,37.3,42.1,74.7,42.1c37.5,0,64.1-15.2,74.7-42.1c3.5,1,7.3,1.7,11.2,2.5c0,0.5,0,1,0,1.6
				c0.4,24.6,1.3,45.4,3.1,62.2c0.8,7.7,1.8,14.6,3,20.5l9.1-2.1c-4.7-24.8-6-66.7-6.4-121.8C1019,631.9,976.5,599.8,924.2,599.8z
				 M850.7,639.4c0-0.1,0.1-0.1,0.1-0.2c14.9-17.6,41.5-29.8,72.1-30c0.3,0,0.6,0,0.9,0c31,0,58.1,12.3,73.1,30.2h0l0,0c0,0,0,0,0,0
				c-4.6-0.4-8.7-0.8-12.7-1c0,0,0,0,0,0c-14-13.3-35-20.4-60.4-20.4c-9.5,0-18.4,1-26.6,2.9c-2.7,0.6-5.4,1.4-7.9,2.3
				c-2.5,0.9-5,1.8-7.4,2.9c-3.5,1.6-6.9,3.4-10,5.5c-3.1,2.1-6,4.3-8.6,6.8C859.5,638.5,855.3,639,850.7,639.4L850.7,639.4
				L850.7,639.4z M838,701.8C838,701.8,838,701.8,838,701.8c-0.1,0-0.1,0-0.2,0c0.6-9.8,0.8-19.8,0.8-30.2c0-7.5,1.7-15,5.2-21.7
				c6.6-0.9,12.4-1.5,17.5-1.7c28.1-1.5,34.5,6.4,36.4,14.7c1.2,4.2,0.4,8.7-2.1,12.5c-2.9,4.5-9,10.1-21.7,15.6
				c-6.3,2.8-14.2,5.5-24.2,8.1C846.2,700,842.3,700.9,838,701.8z M923.8,741.6c-0.1,0-0.1,0-0.2,0c-0.1,0-0.1,0-0.2,0
				c-32.7,0-56.4-12.7-65.6-35.2c23.5-6.7,38.7-15.8,45.2-26.2c3.7-5.8,5-13.1,3.3-19.8c-2.9-12.7-12.3-19.8-28.9-21.4
				c11.9-7.7,27.5-11.7,46-11.7c0.1,0,0.1,0,0.2,0c0.1,0,0.1,0,0.2,0c18.5,0,34.1,4,46,11.7c-17.1,2.1-26.2,9-29.2,21.7
				c-1.7,6.7-0.4,14,3.3,19.8c6.7,10.4,22.1,19.6,45.8,26.2C980,728.9,956.7,741.6,923.8,741.6z M1009.6,702c-4.5-1-8.7-2-12.6-3
				c-6.6-1.7-12.3-3.5-17.2-5.4c-17.4-6.4-25.1-13.1-28.2-18.3c-2.5-3.7-3.3-8.3-2.1-12.5c2-7.6,7.6-15,30.6-14.9
				c6.5,0,14.4,0.6,23.9,2c3.5,6.7,5.2,14.2,5.2,21.7c0,10.4,0.2,20.8,0.4,30.4C1009.7,702,1009.7,702,1009.6,702
				C1009.6,702,1009.6,702,1009.6,702z"/>
			<path class="st0" d="M923.8,711.2c8.3,0,24.7-5,24.8-16.6c-0.1-13.4-16.9-13.4-24.8-13.4c-8.1,0-24.7,0-24.8,13.4
				C899.1,706,915.5,711.2,923.8,711.2z"/>
			<path class="st0" d="M872.4,679.4c6,0,10.8-4.7,10.8-10.7c0-0.4-0.1-0.7-0.1-1.1c-0.1-0.4-0.1-0.7-0.2-1.1
				c-0.1-0.3-0.2-0.5-0.3-0.8c-0.1-0.4-0.2-0.7-0.4-1.1c-1.7-3.8-5.5-6.5-9.8-6.6c-6,0-10.8,4.7-10.8,10.7
				C861.6,674.6,866.4,679.4,872.4,679.4z"/>
			<path class="st0" d="M986.3,669.6c0,0,0,0,0-0.2c0-6-4.7-10.8-10.7-10.8c-6,0.1-10.7,4.8-10.9,10.8c-0.2,6,4.7,10.8,10.7,11
				C981.3,680.3,986.1,675.6,986.3,669.6z"/>
			<path class="st0" d="M923.4,721.8c-23.7-0.2-39.1-6.7-39.1-12.7h-9.6c0.1,5.2,3.3,12.3,17.1,17.1c10.4,3.3,21,4.8,32.1,4.6
				c22.4,0,48.7-5.4,48.9-21.4h-9.6C963.2,715.4,947.1,721.8,923.4,721.8z"/>
		</g>
		<g>
			<path class="st0" d="M924.2,795.4c-52.3,0-94.7,32.1-94.7,71.6c-0.8,54.8-2.1,96.4-6.4,121.8l9.1,1.4c3.5-18.7,5.2-46.8,6-83.7
				c4-0.8,7.7-1.5,11.2-2.5c10.2,26.7,37.3,42.1,74.7,42.1c37.5,0,64.1-15.2,74.7-42.1c3.5,1,7.3,1.7,11.2,2.5c0,0.5,0,1,0,1.6
				c0.4,24.6,1.3,45.4,3.1,62.2c0.8,7.7,1.8,14.6,3,20.5l9.1-2.1c-4.7-24.8-6-66.7-6.4-121.8C1019,827.5,976.5,795.4,924.2,795.4z
				 M850.7,835c0-0.1,0.1-0.1,0.1-0.2c14.9-17.6,41.5-29.8,72.1-30c0.3,0,0.6,0,0.9,0c31,0,58.1,12.3,73.1,30.2h0l0,0c0,0,0,0,0,0
				c-4.6-0.4-8.7-0.8-12.7-1c0,0,0,0,0,0c-14-13.3-35-20.4-60.4-20.4c-9.5,0-18.4,1-26.6,2.9c-2.7,0.6-5.4,1.4-7.9,2.3
				c-2.5,0.9-5,1.8-7.4,2.9c-3.5,1.6-6.9,3.4-10,5.5c-3.1,2.1-6,4.3-8.6,6.8C859.5,834.2,855.3,834.6,850.7,835L850.7,835L850.7,835
				z M838,897.5C838,897.4,838,897.4,838,897.5c-0.1,0-0.1,0-0.2,0c0.6-9.8,0.8-19.8,0.8-30.2c0-7.5,1.7-15,5.2-21.7
				c6.6-0.9,12.4-1.5,17.5-1.7c28.1-1.5,34.5,6.4,36.4,14.7c1.2,4.2,0.4,8.7-2.1,12.5c-2.9,4.5-9,10.1-21.7,15.6
				c-6.3,2.8-14.2,5.5-24.2,8.1C846.2,895.6,842.3,896.6,838,897.5z M923.8,937.2c-0.1,0-0.1,0-0.2,0c-0.1,0-0.1,0-0.2,0
				c-32.7,0-56.4-12.7-65.6-35.2c23.5-6.7,38.7-15.8,45.2-26.2c3.7-5.8,5-13.1,3.3-19.8c-2.9-12.7-12.3-19.8-28.9-21.4
				c11.9-7.7,27.5-11.7,46-11.7c0.1,0,0.1,0,0.2,0c0.1,0,0.1,0,0.2,0c18.5,0,34.1,4,46,11.7c-17.1,2.1-26.2,9-29.2,21.7
				c-1.7,6.7-0.4,14,3.3,19.8c6.7,10.4,22.1,19.6,45.8,26.2C980,924.5,956.7,937.2,923.8,937.2z M1009.6,897.7c-4.5-1-8.7-2-12.6-3
				c-6.6-1.7-12.3-3.5-17.2-5.4c-17.4-6.4-25.1-13.1-28.2-18.3c-2.5-3.7-3.3-8.3-2.1-12.5c2-7.6,7.6-15,30.6-14.9
				c6.5,0,14.4,0.6,23.9,2c3.5,6.7,5.2,14.2,5.2,21.7c0,10.4,0.2,20.8,0.4,30.4C1009.7,897.6,1009.7,897.6,1009.6,897.7
				C1009.6,897.6,1009.6,897.7,1009.6,897.7z"/>
			<path class="st0" d="M923.8,906.8c8.3,0,24.7-5,24.8-16.6c-0.1-13.4-16.9-13.4-24.8-13.4c-8.1,0-24.7,0-24.8,13.4
				C899.1,901.6,915.5,906.8,923.8,906.8z"/>
			<path class="st0" d="M872.4,875c6,0,10.8-4.7,10.8-10.7c0-0.4-0.1-0.7-0.1-1.1c-0.1-0.4-0.1-0.7-0.2-1.1
				c-0.1-0.3-0.2-0.5-0.3-0.8c-0.1-0.4-0.2-0.7-0.4-1.1c-1.7-3.8-5.5-6.5-9.8-6.6c-6,0-10.8,4.7-10.8,10.7
				C861.6,870.2,866.4,875,872.4,875z"/>
			<path class="st0" d="M986.3,865.2c0,0,0,0,0-0.2c0-6-4.7-10.8-10.7-10.8c-6,0.1-10.7,4.8-10.9,10.8c-0.2,6,4.7,10.8,10.7,11
				C981.3,876,986.1,871.2,986.3,865.2z"/>
			<path class="st0" d="M923.4,917.4c-23.7-0.2-39.1-6.7-39.1-12.7h-9.6c0.1,5.2,3.3,12.3,17.1,17.1c10.4,3.3,21,4.8,32.1,4.6
				c22.4,0,48.7-5.4,48.9-21.4h-9.6C963.2,911,947.1,917.4,923.4,917.4z"/>
		</g>
	</g>
	<g>
		<g>
			<path class="st0" d="M693,138.3c-52.3,0-94.7,32.1-94.7,71.6c-0.8,54.8-2.1,96.4-6.4,121.8l9.1,1.4c3.5-18.7,5.2-46.8,6-83.7
				c4-0.8,7.7-1.5,11.2-2.5c10.2,26.7,37.3,42.1,74.7,42.1c37.5,0,64.1-15.2,74.7-42.1c3.5,1,7.3,1.7,11.2,2.5c0,0.5,0,1,0,1.6
				c0.4,24.6,1.3,45.4,3.1,62.2c0.8,7.7,1.8,14.6,3,20.5l9.1-2.1c-4.7-24.8-6-66.7-6.4-121.8C787.8,170.4,745.3,138.3,693,138.3z
				 M619.5,177.9c0-0.1,0.1-0.1,0.1-0.2c14.9-17.6,41.5-29.8,72.1-30c0.3,0,0.6,0,0.9,0c31,0,58.1,12.3,73.1,30.2h0l0,0c0,0,0,0,0,0
				c-4.6-0.4-8.7-0.8-12.7-1c0,0,0,0,0,0c-14-13.3-35-20.4-60.4-20.4c-9.5,0-18.4,1-26.6,2.9c-2.7,0.6-5.4,1.4-7.9,2.3
				c-2.5,0.9-5,1.8-7.4,2.9c-3.5,1.6-6.9,3.4-10,5.5c-3.1,2.1-6,4.3-8.6,6.8C628.3,177,624.1,177.5,619.5,177.9L619.5,177.9
				L619.5,177.9z M606.8,240.3C606.8,240.3,606.8,240.3,606.8,240.3c-0.1,0-0.1,0-0.2,0c0.6-9.8,0.8-19.8,0.8-30.2
				c0-7.5,1.7-15,5.2-21.7c6.6-0.9,12.4-1.5,17.5-1.7c28.1-1.5,34.5,6.4,36.4,14.7c1.2,4.2,0.4,8.7-2.1,12.5
				c-2.9,4.5-9,10.1-21.7,15.6c-6.3,2.8-14.2,5.5-24.2,8.1C615,238.5,611.1,239.4,606.8,240.3z M692.6,280.1c-0.1,0-0.1,0-0.2,0
				c-0.1,0-0.1,0-0.2,0c-32.7,0-56.4-12.7-65.6-35.2c23.5-6.7,38.7-15.8,45.2-26.2c3.7-5.8,5-13.1,3.3-19.8
				c-2.9-12.7-12.3-19.8-28.9-21.4c11.9-7.7,27.5-11.7,46-11.7c0.1,0,0.1,0,0.2,0c0.1,0,0.1,0,0.2,0c18.5,0,34.1,4,46,11.7
				c-17.1,2.1-26.2,9-29.2,21.7c-1.7,6.7-0.4,14,3.3,19.8c6.7,10.4,22.1,19.6,45.8,26.2C748.8,267.4,725.5,280.1,692.6,280.1z
				 M778.4,240.5c-4.5-1-8.7-2-12.6-3c-6.6-1.7-12.3-3.5-17.2-5.4c-17.4-6.4-25.1-13.1-28.2-18.3c-2.5-3.7-3.3-8.3-2.1-12.5
				c2-7.6,7.6-15,30.6-14.9c6.5,0,14.4,0.6,23.9,2c3.5,6.7,5.2,14.2,5.2,21.7c0,10.4,0.2,20.8,0.4,30.4
				C778.5,240.5,778.5,240.5,778.4,240.5C778.4,240.5,778.4,240.5,778.4,240.5z"/>
			<path class="st0" d="M692.6,249.7c8.3,0,24.7-5,24.8-16.6c-0.1-13.4-16.9-13.4-24.8-13.4c-8.1,0-24.7,0-24.8,13.4
				C668,244.5,684.3,249.7,692.6,249.7z"/>
			<path class="st0" d="M641.2,217.8c6,0,10.8-4.7,10.8-10.7c0-0.4-0.1-0.7-0.1-1.1c-0.1-0.4-0.1-0.7-0.2-1.1
				c-0.1-0.3-0.2-0.5-0.3-0.8c-0.1-0.4-0.2-0.7-0.4-1.1c-1.7-3.8-5.5-6.5-9.8-6.6c-6,0-10.8,4.7-10.8,10.7
				C630.4,213.1,635.2,217.8,641.2,217.8z"/>
			<path class="st0" d="M755.1,208.1c0,0,0,0,0-0.2c0-6-4.7-10.8-10.7-10.8c-6,0.1-10.7,4.8-10.9,10.8c-0.2,6,4.7,10.8,10.7,11
				C750.1,218.8,754.9,214.1,755.1,208.1z"/>
			<path class="st0" d="M692.2,260.3c-23.7-0.2-39.1-6.7-39.1-12.7h-9.6c0.1,5.2,3.3,12.3,17.1,17.1c10.4,3.3,21,4.8,32.1,4.6
				c22.4,0,48.7-5.4,48.9-21.4H732C732,253.9,715.9,260.3,692.2,260.3z"/>
		</g>
		<g>
			<path class="st0" d="M693-57.3c-52.3,0-94.7,32.1-94.7,71.6c-0.8,54.8-2.1,96.4-6.4,121.8l9.1,1.4c3.5-18.7,5.2-46.8,6-83.7
				c4-0.8,7.7-1.5,11.2-2.5C628.5,78,655.6,93.4,693,93.4c37.5,0,64.1-15.2,74.7-42.1c3.5,1,7.3,1.7,11.2,2.5c0,0.5,0,1,0,1.6
				c0.4,24.6,1.3,45.4,3.1,62.2c0.8,7.7,1.8,14.6,3,20.5l9.1-2.1c-4.7-24.8-6-66.7-6.4-121.8C787.8-25.2,745.3-57.3,693-57.3z
				 M619.5-17.7c0-0.1,0.1-0.1,0.1-0.2c14.9-17.6,41.5-29.8,72.1-30c0.3,0,0.6,0,0.9,0c31,0,58.1,12.3,73.1,30.2h0l0,0c0,0,0,0,0,0
				c-4.6-0.4-8.7-0.8-12.7-1c0,0,0,0,0,0c-14-13.3-35-20.4-60.4-20.4c-9.5,0-18.4,1-26.6,2.9c-2.7,0.6-5.4,1.4-7.9,2.3
				c-2.5,0.9-5,1.8-7.4,2.9c-3.5,1.6-6.9,3.4-10,5.5c-3.1,2.1-6,4.3-8.6,6.8C628.3-18.6,624.1-18.2,619.5-17.7L619.5-17.7
				L619.5-17.7z M606.8,44.7C606.8,44.7,606.8,44.7,606.8,44.7c-0.1,0-0.1,0-0.2,0c0.6-9.8,0.8-19.8,0.8-30.2c0-7.5,1.7-15,5.2-21.7
				c6.6-0.9,12.4-1.5,17.5-1.7c28.1-1.5,34.5,6.4,36.4,14.7c1.2,4.2,0.4,8.7-2.1,12.5c-2.9,4.5-9,10.1-21.7,15.6
				c-6.3,2.8-14.2,5.5-24.2,8.1C615,42.9,611.1,43.8,606.8,44.7z M692.6,84.5c-0.1,0-0.1,0-0.2,0c-0.1,0-0.1,0-0.2,0
				c-32.7,0-56.4-12.7-65.6-35.2c23.5-6.7,38.7-15.8,45.2-26.2c3.7-5.8,5-13.1,3.3-19.8c-2.9-12.7-12.3-19.8-28.9-21.4
				c11.9-7.7,27.5-11.7,46-11.7c0.1,0,0.1,0,0.2,0c0.1,0,0.1,0,0.2,0c18.5,0,34.1,4,46,11.7c-17.1,2.1-26.2,9-29.2,21.7
				c-1.7,6.7-0.4,14,3.3,19.8c6.7,10.4,22.1,19.6,45.8,26.2C748.8,71.8,725.5,84.5,692.6,84.5z M778.4,44.9c-4.5-1-8.7-2-12.6-3
				c-6.6-1.7-12.3-3.5-17.2-5.4c-17.4-6.4-25.1-13.1-28.2-18.3c-2.5-3.7-3.3-8.3-2.1-12.5c2-7.6,7.6-15,30.6-14.9
				c6.5,0,14.4,0.6,23.9,2c3.5,6.7,5.2,14.2,5.2,21.7c0,10.4,0.2,20.8,0.4,30.4C778.5,44.9,778.5,44.9,778.4,44.9
				C778.4,44.9,778.4,44.9,778.4,44.9z"/>
			<path class="st0" d="M692.6,54.1c8.3,0,24.7-5,24.8-16.6c-0.1-13.4-16.9-13.4-24.8-13.4c-8.1,0-24.7,0-24.8,13.4
				C668,48.9,684.3,54.1,692.6,54.1z"/>
			<path class="st0" d="M641.2,22.2c6,0,10.8-4.7,10.8-10.7c0-0.4-0.1-0.7-0.1-1.1c-0.1-0.4-0.1-0.7-0.2-1.1
				c-0.1-0.3-0.2-0.5-0.3-0.8c-0.1-0.4-0.2-0.7-0.4-1.1c-1.7-3.8-5.5-6.5-9.8-6.6c-6,0-10.8,4.7-10.8,10.7
				C630.4,17.5,635.2,22.2,641.2,22.2z"/>
			<path class="st0" d="M755.1,12.4c0,0,0,0,0-0.2c0-6-4.7-10.8-10.7-10.8c-6,0.1-10.7,4.8-10.9,10.8c-0.2,6,4.7,10.8,10.7,11
				C750.1,23.2,754.9,18.4,755.1,12.4z"/>
			<path class="st0" d="M692.2,64.7c-23.7-0.2-39.1-6.7-39.1-12.7h-9.6c0.1,5.2,3.3,12.3,17.1,17.1c10.4,3.3,21,4.8,32.1,4.6
				c22.4,0,48.7-5.4,48.9-21.4H732C732,58.2,715.9,64.7,692.2,64.7z"/>
		</g>
		<g>
			<path class="st0" d="M693,333.9c-52.3,0-94.7,32.1-94.7,71.6c-0.8,54.8-2.1,96.4-6.4,121.8l9.1,1.4c3.5-18.7,5.2-46.8,6-83.7
				c4-0.8,7.7-1.5,11.2-2.5c10.2,26.7,37.3,42.1,74.7,42.1c37.5,0,64.1-15.2,74.7-42.1c3.5,1,7.3,1.7,11.2,2.5c0,0.5,0,1,0,1.6
				c0.4,24.6,1.3,45.4,3.1,62.2c0.8,7.7,1.8,14.6,3,20.5l9.1-2.1c-4.7-24.8-6-66.7-6.4-121.8C787.8,366,745.3,333.9,693,333.9z
				 M619.5,373.5c0-0.1,0.1-0.1,0.1-0.2c14.9-17.6,41.5-29.8,72.1-30c0.3,0,0.6,0,0.9,0c31,0,58.1,12.3,73.1,30.2h0l0,0c0,0,0,0,0,0
				c-4.6-0.4-8.7-0.8-12.7-1c0,0,0,0,0,0c-14-13.3-35-20.4-60.4-20.4c-9.5,0-18.4,1-26.6,2.9c-2.7,0.6-5.4,1.4-7.9,2.3
				c-2.5,0.9-5,1.8-7.4,2.9c-3.5,1.6-6.9,3.4-10,5.5c-3.1,2.1-6,4.3-8.6,6.8C628.3,372.7,624.1,373.1,619.5,373.5L619.5,373.5
				L619.5,373.5z M606.8,436C606.8,435.9,606.8,435.9,606.8,436c-0.1,0-0.1,0-0.2,0c0.6-9.8,0.8-19.8,0.8-30.2
				c0-7.5,1.7-15,5.2-21.7c6.6-0.9,12.4-1.5,17.5-1.7c28.1-1.5,34.5,6.4,36.4,14.7c1.2,4.2,0.4,8.7-2.1,12.5
				c-2.9,4.5-9,10.1-21.7,15.6c-6.3,2.8-14.2,5.5-24.2,8.1C615,434.1,611.1,435,606.8,436z M692.6,475.7c-0.1,0-0.1,0-0.2,0
				c-0.1,0-0.1,0-0.2,0c-32.7,0-56.4-12.7-65.6-35.2c23.5-6.7,38.7-15.8,45.2-26.2c3.7-5.8,5-13.1,3.3-19.8
				c-2.9-12.7-12.3-19.8-28.9-21.4c11.9-7.7,27.5-11.7,46-11.7c0.1,0,0.1,0,0.2,0c0.1,0,0.1,0,0.2,0c18.5,0,34.1,4,46,11.7
				c-17.1,2.1-26.2,9-29.2,21.7c-1.7,6.7-0.4,14,3.3,19.8c6.7,10.4,22.1,19.6,45.8,26.2C748.8,463,725.5,475.7,692.6,475.7z
				 M778.4,436.2c-4.5-1-8.7-2-12.6-3c-6.6-1.7-12.3-3.5-17.2-5.4c-17.4-6.4-25.1-13.1-28.2-18.3c-2.5-3.7-3.3-8.3-2.1-12.5
				c2-7.6,7.6-15,30.6-14.9c6.5,0,14.4,0.6,23.9,2c3.5,6.7,5.2,14.2,5.2,21.7c0,10.4,0.2,20.8,0.4,30.4
				C778.5,436.1,778.5,436.1,778.4,436.2C778.4,436.1,778.4,436.1,778.4,436.2z"/>
			<path class="st0" d="M692.6,445.3c8.3,0,24.7-5,24.8-16.6c-0.1-13.4-16.9-13.4-24.8-13.4c-8.1,0-24.7,0-24.8,13.4
				C668,440.1,684.3,445.3,692.6,445.3z"/>
			<path class="st0" d="M641.2,413.5c6,0,10.8-4.7,10.8-10.7c0-0.4-0.1-0.7-0.1-1.1c-0.1-0.4-0.1-0.7-0.2-1.1
				c-0.1-0.3-0.2-0.5-0.3-0.8c-0.1-0.4-0.2-0.7-0.4-1.1c-1.7-3.8-5.5-6.5-9.8-6.6c-6,0-10.8,4.7-10.8,10.7
				C630.4,408.7,635.2,413.5,641.2,413.5z"/>
			<path class="st0" d="M755.1,403.7c0,0,0,0,0-0.2c0-6-4.7-10.8-10.7-10.8c-6,0.1-10.7,4.8-10.9,10.8c-0.2,6,4.7,10.8,10.7,11
				C750.1,414.4,754.9,409.7,755.1,403.7z"/>
			<path class="st0" d="M692.2,455.9c-23.7-0.2-39.1-6.7-39.1-12.7h-9.6c0.1,5.2,3.3,12.3,17.1,17.1c10.4,3.3,21,4.8,32.1,4.6
				c22.4,0,48.7-5.4,48.9-21.4H732C732,449.5,715.9,455.9,692.2,455.9z"/>
		</g>
		<g>
			<path class="st0" d="M693,529.5c-52.3,0-94.7,32.1-94.7,71.6c-0.8,54.8-2.1,96.4-6.4,121.8l9.1,1.4c3.5-18.7,5.2-46.8,6-83.7
				c4-0.8,7.7-1.5,11.2-2.5c10.2,26.7,37.3,42.1,74.7,42.1c37.5,0,64.1-15.2,74.7-42.1c3.5,1,7.3,1.7,11.2,2.5c0,0.5,0,1,0,1.6
				c0.4,24.6,1.3,45.4,3.1,62.2c0.8,7.7,1.8,14.6,3,20.5l9.1-2.1c-4.7-24.8-6-66.7-6.4-121.8C787.8,561.6,745.3,529.5,693,529.5z
				 M619.5,569.1c0-0.1,0.1-0.1,0.1-0.2c14.9-17.6,41.5-29.8,72.1-30c0.3,0,0.6,0,0.9,0c31,0,58.1,12.3,73.1,30.2h0l0,0c0,0,0,0,0,0
				c-4.6-0.4-8.7-0.8-12.7-1c0,0,0,0,0,0c-14-13.3-35-20.4-60.4-20.4c-9.5,0-18.4,1-26.6,2.9c-2.7,0.6-5.4,1.4-7.9,2.3
				c-2.5,0.9-5,1.8-7.4,2.9c-3.5,1.6-6.9,3.4-10,5.5c-3.1,2.1-6,4.3-8.6,6.8C628.3,568.3,624.1,568.7,619.5,569.1L619.5,569.1
				L619.5,569.1z M606.8,631.6C606.8,631.6,606.8,631.5,606.8,631.6c-0.1,0-0.1,0-0.2,0c0.6-9.8,0.8-19.8,0.8-30.2
				c0-7.5,1.7-15,5.2-21.7c6.6-0.9,12.4-1.5,17.5-1.7c28.1-1.5,34.5,6.4,36.4,14.7c1.2,4.2,0.4,8.7-2.1,12.5
				c-2.9,4.5-9,10.1-21.7,15.6c-6.3,2.8-14.2,5.5-24.2,8.1C615,629.7,611.1,630.7,606.8,631.6z M692.6,671.3c-0.1,0-0.1,0-0.2,0
				c-0.1,0-0.1,0-0.2,0c-32.7,0-56.4-12.7-65.6-35.2c23.5-6.7,38.7-15.8,45.2-26.2c3.7-5.8,5-13.1,3.3-19.8
				c-2.9-12.7-12.3-19.8-28.9-21.4c11.9-7.7,27.5-11.7,46-11.7c0.1,0,0.1,0,0.2,0c0.1,0,0.1,0,0.2,0c18.5,0,34.1,4,46,11.7
				c-17.1,2.1-26.2,9-29.2,21.7c-1.7,6.7-0.4,14,3.3,19.8c6.7,10.4,22.1,19.6,45.8,26.2C748.8,658.6,725.5,671.3,692.6,671.3z
				 M778.4,631.8c-4.5-1-8.7-2-12.6-3c-6.6-1.7-12.3-3.5-17.2-5.4c-17.4-6.4-25.1-13.1-28.2-18.3c-2.5-3.7-3.3-8.3-2.1-12.5
				c2-7.6,7.6-15,30.6-14.9c6.5,0,14.4,0.6,23.9,2c3.5,6.7,5.2,14.2,5.2,21.7c0,10.4,0.2,20.8,0.4,30.4
				C778.5,631.8,778.5,631.7,778.4,631.8C778.4,631.7,778.4,631.8,778.4,631.8z"/>
			<path class="st0" d="M692.6,640.9c8.3,0,24.7-5,24.8-16.6c-0.1-13.4-16.9-13.4-24.8-13.4c-8.1,0-24.7,0-24.8,13.4
				C668,635.8,684.3,640.9,692.6,640.9z"/>
			<path class="st0" d="M641.2,609.1c6,0,10.8-4.7,10.8-10.7c0-0.4-0.1-0.7-0.1-1.1c-0.1-0.4-0.1-0.7-0.2-1.1
				c-0.1-0.3-0.2-0.5-0.3-0.8c-0.1-0.4-0.2-0.7-0.4-1.1c-1.7-3.8-5.5-6.5-9.8-6.6c-6,0-10.8,4.7-10.8,10.7
				C630.4,604.3,635.2,609.1,641.2,609.1z"/>
			<path class="st0" d="M755.1,599.3c0,0,0,0,0-0.2c0-6-4.7-10.8-10.7-10.8c-6,0.1-10.7,4.8-10.9,10.8c-0.2,6,4.7,10.8,10.7,11
				C750.1,610.1,754.9,605.3,755.1,599.3z"/>
			<path class="st0" d="M692.2,651.6c-23.7-0.2-39.1-6.7-39.1-12.7h-9.6c0.1,5.2,3.3,12.3,17.1,17.1c10.4,3.3,21,4.8,32.1,4.6
				c22.4,0,48.7-5.4,48.9-21.4H732C732,645.1,715.9,651.6,692.2,651.6z"/>
		</g>
		<g>
			<path class="st0" d="M693,725.2c-52.3,0-94.7,32.1-94.7,71.6c-0.8,54.8-2.1,96.4-6.4,121.8l9.1,1.4c3.5-18.7,5.2-46.8,6-83.7
				c4-0.8,7.7-1.5,11.2-2.5c10.2,26.7,37.3,42.1,74.7,42.1c37.5,0,64.1-15.2,74.7-42.1c3.5,1,7.3,1.7,11.2,2.5c0,0.5,0,1,0,1.6
				c0.4,24.6,1.3,45.4,3.1,62.2c0.8,7.7,1.8,14.6,3,20.5l9.1-2.1c-4.7-24.8-6-66.7-6.4-121.8C787.8,757.2,745.3,725.2,693,725.2z
				 M619.5,764.7c0-0.1,0.1-0.1,0.1-0.2c14.9-17.6,41.5-29.8,72.1-30c0.3,0,0.6,0,0.9,0c31,0,58.1,12.3,73.1,30.2h0l0,0c0,0,0,0,0,0
				c-4.6-0.4-8.7-0.8-12.7-1c0,0,0,0,0,0c-14-13.3-35-20.4-60.4-20.4c-9.5,0-18.4,1-26.6,2.9c-2.7,0.6-5.4,1.4-7.9,2.3
				c-2.5,0.9-5,1.8-7.4,2.9c-3.5,1.6-6.9,3.4-10,5.5c-3.1,2.1-6,4.3-8.6,6.8C628.3,763.9,624.1,764.3,619.5,764.7L619.5,764.7
				L619.5,764.7z M606.8,827.2C606.8,827.2,606.8,827.2,606.8,827.2c-0.1,0-0.1,0-0.2,0c0.6-9.8,0.8-19.8,0.8-30.2
				c0-7.5,1.7-15,5.2-21.7c6.6-0.9,12.4-1.5,17.5-1.7c28.1-1.5,34.5,6.4,36.4,14.7c1.2,4.2,0.4,8.7-2.1,12.5
				c-2.9,4.5-9,10.1-21.7,15.6c-6.3,2.8-14.2,5.5-24.2,8.1C615,825.4,611.1,826.3,606.8,827.2z M692.6,867c-0.1,0-0.1,0-0.2,0
				c-0.1,0-0.1,0-0.2,0c-32.7,0-56.4-12.7-65.6-35.2c23.5-6.7,38.7-15.8,45.2-26.2c3.7-5.8,5-13.1,3.3-19.8
				c-2.9-12.7-12.3-19.8-28.9-21.4c11.9-7.7,27.5-11.7,46-11.7c0.1,0,0.1,0,0.2,0c0.1,0,0.1,0,0.2,0c18.5,0,34.1,4,46,11.7
				c-17.1,2.1-26.2,9-29.2,21.7c-1.7,6.7-0.4,14,3.3,19.8c6.7,10.4,22.1,19.6,45.8,26.2C748.8,854.3,725.5,867,692.6,867z
				 M778.4,827.4c-4.5-1-8.7-2-12.6-3c-6.6-1.7-12.3-3.5-17.2-5.4c-17.4-6.4-25.1-13.1-28.2-18.3c-2.5-3.7-3.3-8.3-2.1-12.5
				c2-7.6,7.6-15,30.6-14.9c6.5,0,14.4,0.6,23.9,2c3.5,6.7,5.2,14.2,5.2,21.7c0,10.4,0.2,20.8,0.4,30.4
				C778.5,827.4,778.5,827.4,778.4,827.4C778.4,827.4,778.4,827.4,778.4,827.4z"/>
			<path class="st0" d="M692.6,836.6c8.3,0,24.7-5,24.8-16.6c-0.1-13.4-16.9-13.4-24.8-13.4c-8.1,0-24.7,0-24.8,13.4
				C668,831.4,684.3,836.6,692.6,836.6z"/>
			<path class="st0" d="M641.2,804.7c6,0,10.8-4.7,10.8-10.7c0-0.4-0.1-0.7-0.1-1.1c-0.1-0.4-0.1-0.7-0.2-1.1
				c-0.1-0.3-0.2-0.5-0.3-0.8c-0.1-0.4-0.2-0.7-0.4-1.1c-1.7-3.8-5.5-6.5-9.8-6.6c-6,0-10.8,4.7-10.8,10.7
				C630.4,800,635.2,804.7,641.2,804.7z"/>
			<path class="st0" d="M755.1,794.9c0,0,0,0,0-0.2c0-6-4.7-10.8-10.7-10.8c-6,0.1-10.7,4.8-10.9,10.8c-0.2,6,4.7,10.8,10.7,11
				C750.1,805.7,754.9,800.9,755.1,794.9z"/>
			<path class="st0" d="M692.2,847.2c-23.7-0.2-39.1-6.7-39.1-12.7h-9.6c0.1,5.2,3.3,12.3,17.1,17.1c10.4,3.3,21,4.8,32.1,4.6
				c22.4,0,48.7-5.4,48.9-21.4H732C732,840.7,715.9,847.2,692.2,847.2z"/>
		</g>
	</g>
</g>
</svg>
