<svg xmlns="http://www.w3.org/2000/svg" viewBox="0 0 429.95 443.51"><defs><style>.a{fill:#306421;}</style></defs><title>sloth-1</title><path class="a" d="M-.55,208.58c-52.26,0-94.73,32.07-94.73,71.63-.83,54.75-2.07,96.36-6.36,121.82l9.06,1.44c3.54-18.74,5.21-46.85,6-83.7,4-.84,7.7-1.46,11.24-2.5C-65.09,343.92-38,359.33-.55,359.33s64.13-15.2,74.75-42.06c3.54,1,7.29,1.66,11.25,2.5,0,.53,0,1,0,1.56.43,24.56,1.34,45.43,3,62.23.82,7.72,1.8,14.58,3,20.53l9.09-2.06c-4.72-24.83-6-66.73-6.38-121.82C94.19,240.65,51.71,208.58-.55,208.58ZM-74,248.14l.15-.16C-59,230.33-32.39,218.2-1.82,218l.86,0c31,0,58.09,12.28,73.08,30.19h0c-4.58-.42-8.74-.83-12.69-1h0c-14-13.33-35-20.41-60.38-20.41a114.41,114.41,0,0,0-26.59,2.95c-2.72.65-5.36,1.4-7.9,2.26s-5,1.82-7.36,2.89a70.14,70.14,0,0,0-10,5.48,61.7,61.7,0,0,0-8.58,6.83c-3.95.21-8.12.62-12.7,1Zm-12.7,62.47v-.05l-.21.05c.63-9.79.84-19.79.84-30.2a46.13,46.13,0,0,1,5.2-21.65c6.61-.93,12.4-1.49,17.48-1.75,28.06-1.48,34.51,6.36,36.45,14.66a14.89,14.89,0,0,1-2.08,12.49c-2.86,4.47-9,10-21.71,15.6A159.17,159.17,0,0,1-75,307.82C-78.62,308.77-82.53,309.7-86.75,310.61ZM-1,350.37h-.42c-32.69,0-56.43-12.7-65.59-35.18,23.53-6.67,38.73-15.83,45.18-26.24a25.54,25.54,0,0,0,3.34-19.78c-2.92-12.7-12.29-19.78-28.95-21.45,11.87-7.7,27.49-11.66,46-11.66H-1c18.53,0,34.14,4,46,11.66-17.07,2.09-26.23,9-29.15,21.66a25.57,25.57,0,0,0,3.33,19.78C25.9,299.57,41.3,308.73,65,315.39,55.25,337.67,31.93,350.37-1,350.37Zm85.78-39.56c-4.51-1-8.68-2-12.55-3-6.58-1.74-12.27-3.54-17.17-5.37C37.73,296,30,289.33,26.94,284.16a14.93,14.93,0,0,1-2.09-12.49c2-7.65,7.6-15,30.65-14.93a176.69,176.69,0,0,1,23.91,2,46.13,46.13,0,0,1,5.2,21.65c0,10.41.21,20.83.42,30.4l-.21,0Z"/><path class="a" d="M-1,320c8.3,0,24.67-5,24.76-16.55C23.71,290,6.93,290-1,290c-8.1,0-24.68,0-24.77,13.43C-25.64,314.8-9.27,320-1,320Z"/><path class="a" d="M61.5,278.33v-.21a10.73,10.73,0,0,0-10.72-10.81,11,11,0,0,0-10.93,10.81c-.21,6,4.72,10.76,10.71,11A11.06,11.06,0,0,0,61.5,278.33Z"/><path class="a" d="M-1.38,330.59c-23.74-.2-39.14-6.66-39.14-12.7h-9.57C-50,323.08-46.8,330.24-33,335A98,98,0,0,0-1,339.55c22.39,0,48.69-5.37,48.92-21.45H38.39C38.39,324.14,22.36,330.59-1.38,330.59Z"/><path class="a" d="M-.55,13C-52.81,13-95.28,45-95.28,84.59c-.83,54.75-2.07,96.36-6.36,121.82l9.06,1.44c3.54-18.74,5.21-46.85,6-83.7,4-.83,7.7-1.46,11.24-2.5C-65.09,148.3-38,163.71-.55,163.71s64.13-15.2,74.75-42.06c3.54,1,7.29,1.67,11.25,2.5,0,.53,0,1,0,1.57.43,24.55,1.34,45.42,3,62.22q1.23,11.59,3,20.54l9.09-2.07c-4.72-24.83-6-66.72-6.38-121.82C94.19,45,51.71,13-.55,13ZM-74,52.52l.15-.16C-59,34.71-32.39,22.58-1.82,22.35l.86,0c31,0,58.09,12.29,73.08,30.19h0c-4.58-.41-8.74-.83-12.69-1h0c-14-13.32-35-20.4-60.38-20.4A114.42,114.42,0,0,0-27.55,34c-2.72.65-5.36,1.4-7.9,2.26s-5,1.82-7.36,2.89a71.15,71.15,0,0,0-10,5.48,62.44,62.44,0,0,0-8.58,6.83c-3.95.21-8.12.63-12.7,1ZM-86.75,115v0l-.21,0c.63-9.79.84-19.78.84-30.19a46.17,46.17,0,0,1,5.2-21.66c6.61-.93,12.4-1.49,17.48-1.74C-35.38,59.91-28.93,67.75-27,76.05a14.88,14.88,0,0,1-2.08,12.49c-2.86,4.48-9,10.06-21.71,15.6A160.18,160.18,0,0,1-75,112.21C-78.62,113.16-82.53,114.09-86.75,115ZM-1,154.76h-.42c-32.69,0-56.43-12.7-65.59-35.19,23.53-6.66,38.73-15.83,45.18-26.24a25.53,25.53,0,0,0,3.34-19.78c-2.92-12.7-12.29-19.78-28.95-21.44,11.87-7.71,27.49-11.66,46-11.66H-1c18.53,0,34.14,3.95,46,11.66C28,54.19,18.82,61.06,15.9,73.76a25.57,25.57,0,0,0,3.33,19.78C25.9,104,41.3,113.11,65,119.78,55.25,142.06,31.93,154.76-1,154.76ZM84.82,115.2c-4.51-1-8.68-2-12.55-3-6.58-1.74-12.27-3.54-17.17-5.37C37.73,100.37,30,93.71,26.94,88.54a14.92,14.92,0,0,1-2.09-12.49c2-7.65,7.6-15,30.65-14.92a174.85,174.85,0,0,1,23.91,2,46.17,46.17,0,0,1,5.2,21.66c0,10.41.21,20.82.42,30.4l-.21,0Z"/><path class="a" d="M-1,124.36c8.3,0,24.67-5,24.76-16.56C23.71,94.38,6.93,94.37-1,94.37c-8.1,0-24.68,0-24.77,13.43C-25.64,119.18-9.27,124.36-1,124.36Z"/><path class="a" d="M61.5,82.71v-.2A10.74,10.74,0,0,0,50.78,71.69,11.05,11.05,0,0,0,39.85,82.51c-.21,6,4.72,10.76,10.71,11A11.06,11.06,0,0,0,61.5,82.71Z"/><path class="a" d="M-1.38,135c-23.74-.21-39.14-6.67-39.14-12.7h-9.57c.08,5.19,3.29,12.34,17.06,17.07A98,98,0,0,0-1,143.93c22.39,0,48.69-5.37,48.92-21.45H38.39C38.39,128.52,22.36,135-1.38,135Z"/><path class="a" d="M-.55,404.2c-52.26,0-94.73,32.06-94.73,71.62-.83,54.76-2.07,96.37-6.36,121.82l9.06,1.45c3.54-18.74,5.21-46.85,6-83.71,4-.83,7.7-1.45,11.24-2.49C-65.09,539.54-38,554.94-.55,554.94s64.13-15.2,74.75-42.05c3.54,1,7.29,1.66,11.25,2.49,0,.53,0,1,0,1.57.43,24.55,1.34,45.43,3,62.23.82,7.72,1.8,14.58,3,20.53l9.09-2.07c-4.72-24.82-6-66.72-6.38-121.82C94.19,436.26,51.71,404.2-.55,404.2ZM-74,443.76l.15-.17C-59,426-32.39,413.81-1.82,413.59l.86,0c31,0,58.09,12.28,73.08,30.19h0c-4.58-.42-8.74-.83-12.69-1h0c-14-13.33-35-20.41-60.38-20.41a115,115,0,0,0-26.59,2.94c-2.72.65-5.36,1.41-7.9,2.27s-5,1.82-7.36,2.88a70.18,70.18,0,0,0-10,5.49,61.7,61.7,0,0,0-8.58,6.83c-3.95.21-8.12.62-12.7,1Zm-12.7,62.46v0l-.21,0c.63-9.78.84-19.78.84-30.19a46.13,46.13,0,0,1,5.2-21.65c6.61-.93,12.4-1.5,17.48-1.75C-35.38,451.14-28.93,459-27,467.29a14.89,14.89,0,0,1-2.08,12.49c-2.86,4.47-9,10.05-21.71,15.6A159.17,159.17,0,0,1-75,503.44C-78.62,504.39-82.53,505.32-86.75,506.22ZM-1,546h-.42c-32.69,0-56.43-12.7-65.59-35.19,23.53-6.66,38.73-15.82,45.18-26.23a25.54,25.54,0,0,0,3.34-19.78c-2.92-12.7-12.29-19.78-28.95-21.45,11.87-7.7,27.49-11.66,46-11.66H-1c18.53,0,34.14,4,46,11.66C28,445.42,18.82,452.29,15.9,465a25.57,25.57,0,0,0,3.33,19.78C25.9,495.19,41.3,504.35,65,511,55.25,533.29,31.93,546-1,546Zm85.78-39.56c-4.51-1-8.68-2-12.55-3C65.69,501.67,60,499.87,55.1,498,37.73,491.6,30,485,26.94,479.78a14.93,14.93,0,0,1-2.09-12.49c2-7.65,7.6-15.05,30.65-14.93a176.69,176.69,0,0,1,23.91,2A46.13,46.13,0,0,1,84.61,476c0,10.41.21,20.82.42,30.4l-.21-.05Z"/><path class="a" d="M461.85,208.58c-52.27,0-94.74,32.07-94.74,71.63C366.28,335,365,376.57,360.75,402l9.06,1.44c3.54-18.74,5.21-46.85,6-83.7,4-.84,7.71-1.46,11.25-2.5,10.2,26.65,37.27,42.06,74.75,42.06s64.12-15.2,74.74-42.06c3.54,1,7.29,1.66,11.25,2.5,0,.53,0,1,0,1.56.43,24.56,1.35,45.43,3,62.23.82,7.72,1.8,14.58,3,20.53L563,402c-4.73-24.83-6-66.73-6.39-121.82C556.58,240.65,514.11,208.58,461.85,208.58Zm-73.5,39.56.14-.16c14.88-17.65,41.51-29.78,72.08-30l.86,0c31,0,58.09,12.28,73.08,30.19h0c-4.58-.42-8.74-.83-12.69-1h0c-13.95-13.33-35-20.41-60.38-20.41a114.41,114.41,0,0,0-26.59,2.95q-4.08,1-7.9,2.26c-2.54.86-5,1.82-7.36,2.89a70.14,70.14,0,0,0-10,5.48,61.6,61.6,0,0,0-8.57,6.83c-4,.21-8.12.62-12.7,1Zm-12.71,62.47v-.05l-.21.05c.62-9.79.83-19.79.83-30.2a46.13,46.13,0,0,1,5.2-21.65c6.61-.93,12.4-1.49,17.49-1.75,28.06-1.48,34.5,6.36,36.44,14.66a14.89,14.89,0,0,1-2.08,12.49c-2.86,4.47-9,10-21.71,15.6a159.17,159.17,0,0,1-24.19,8.06C383.77,308.77,379.86,309.7,375.64,310.61Zm85.79,39.76H461c-32.69,0-56.42-12.7-65.59-35.18,23.53-6.67,38.73-15.83,45.19-26.24a25.57,25.57,0,0,0,3.33-19.78c-2.92-12.7-12.29-19.78-28.94-21.45,11.86-7.7,27.48-11.66,46-11.66h.42c18.53,0,34.15,4,46,11.66-17.07,2.09-26.23,9-29.15,21.66a25.54,25.54,0,0,0,3.34,19.78c6.66,10.41,22.07,19.57,45.8,26.23C517.65,337.67,494.33,350.37,461.43,350.37Zm85.78-39.56c-4.51-1-8.68-2-12.55-3-6.57-1.74-12.27-3.54-17.17-5.37-17.37-6.43-25.15-13.09-28.16-18.26a14.89,14.89,0,0,1-2.08-12.49c1.95-7.65,7.59-15,30.64-14.93a176.56,176.56,0,0,1,23.91,2,46.13,46.13,0,0,1,5.2,21.65c0,10.41.21,20.83.42,30.4l-.21,0Z"/><path class="a" d="M410,288.12a10.05,10.05,0,0,0,10.67-11.83c-.06-.36-.09-.72-.18-1.07a7.92,7.92,0,0,0-.28-.82,10,10,0,0,0-.38-1.09,11.34,11.34,0,0,0-9.83-6.64,10.73,10.73,0,1,0,0,21.45Z"/><path class="a" d="M461,330.59c-23.73-.2-39.14-6.66-39.14-12.7H412.3c.08,5.19,3.29,12.35,17.06,17.08a98,98,0,0,0,32.07,4.58c22.39,0,48.69-5.37,48.92-21.45h-9.57C500.78,324.14,484.75,330.59,461,330.59Z"/><path class="a" d="M461.85,13C409.58,13,367.11,45,367.11,84.59c-.83,54.75-2.07,96.36-6.36,121.82l9.06,1.44c3.54-18.74,5.21-46.85,6-83.7,4-.83,7.71-1.46,11.25-2.5,10.2,26.65,37.27,42.06,74.75,42.06s64.12-15.2,74.74-42.06c3.54,1,7.29,1.67,11.25,2.5,0,.53,0,1,0,1.57.43,24.55,1.35,45.42,3,62.22q1.23,11.59,3,20.54l9.09-2.07c-4.73-24.83-6-66.72-6.39-121.82C556.58,45,514.11,13,461.85,13Zm-73.5,39.56c0-.05.1-.1.14-.16,14.88-17.65,41.51-29.78,72.08-30l.86,0c31,0,58.09,12.29,73.08,30.19h0c-4.58-.41-8.74-.83-12.69-1h0c-13.95-13.32-35-20.4-60.38-20.4A114.42,114.42,0,0,0,434.84,34q-4.08,1-7.9,2.26c-2.54.86-5,1.82-7.36,2.89a71.15,71.15,0,0,0-10,5.48,62.35,62.35,0,0,0-8.57,6.83c-4,.21-8.12.63-12.7,1ZM375.64,115v0l-.21,0c.62-9.79.83-19.78.83-30.19a46.17,46.17,0,0,1,5.2-21.66c6.61-.93,12.4-1.49,17.49-1.74,28.06-1.49,34.5,6.35,36.44,14.65a14.88,14.88,0,0,1-2.08,12.49c-2.86,4.48-9,10.06-21.71,15.6a160.18,160.18,0,0,1-24.19,8.07C383.77,113.16,379.86,114.09,375.64,115Zm85.79,39.77H461c-32.69,0-56.42-12.7-65.59-35.19,23.53-6.66,38.73-15.83,45.19-26.24a25.57,25.57,0,0,0,3.33-19.78C441,60.85,431.65,53.77,415,52.11c11.86-7.71,27.48-11.66,46-11.66h.42c18.53,0,34.15,3.95,46,11.66-17.07,2.08-26.23,9-29.15,21.65a25.54,25.54,0,0,0,3.34,19.78c6.66,10.41,22.07,19.57,45.8,26.24C517.65,142.06,494.33,154.76,461.43,154.76Zm85.78-39.56c-4.51-1-8.68-2-12.55-3-6.57-1.74-12.27-3.54-17.17-5.37-17.37-6.43-25.15-13.09-28.16-18.26a14.88,14.88,0,0,1-2.08-12.49c1.95-7.65,7.59-15,30.64-14.92a174.72,174.72,0,0,1,23.91,2A46.17,46.17,0,0,1,547,84.8c0,10.41.21,20.82.42,30.4l-.21,0Z"/><path class="a" d="M410,92.5a10.74,10.74,0,0,0,10.81-10.71,10.2,10.2,0,0,0-.14-1.11c-.06-.36-.09-.73-.18-1.08s-.18-.54-.28-.82a10.82,10.82,0,0,0-.38-1.09A11.34,11.34,0,0,0,410,71.05a10.73,10.73,0,1,0,0,21.45Z"/><path class="a" d="M461,135c-23.73-.21-39.14-6.67-39.14-12.7H412.3c.08,5.19,3.29,12.34,17.06,17.07a98,98,0,0,0,32.07,4.58c22.39,0,48.69-5.37,48.92-21.45h-9.57C500.78,128.52,484.75,135,461,135Z"/><path class="a" d="M461.85,404.2c-52.27,0-94.74,32.06-94.74,71.62-.83,54.76-2.07,96.37-6.36,121.82l9.06,1.45c3.54-18.74,5.21-46.85,6-83.71,4-.83,7.71-1.45,11.25-2.49,10.2,26.65,37.27,42.05,74.75,42.05s64.12-15.2,74.74-42.05c3.54,1,7.29,1.66,11.25,2.49,0,.53,0,1,0,1.57.43,24.55,1.35,45.43,3,62.23.82,7.72,1.8,14.58,3,20.53l9.09-2.07c-4.73-24.82-6-66.72-6.39-121.82C556.58,436.26,514.11,404.2,461.85,404.2Zm-73.5,39.56c0-.06.1-.11.14-.17,14.88-17.64,41.51-29.78,72.08-30l.86,0c31,0,58.09,12.28,73.08,30.19h0c-4.58-.42-8.74-.83-12.69-1h0c-13.95-13.33-35-20.41-60.38-20.41a115,115,0,0,0-26.59,2.94q-4.08,1-7.9,2.27c-2.54.86-5,1.82-7.36,2.88a70.18,70.18,0,0,0-10,5.49,61.6,61.6,0,0,0-8.57,6.83c-4,.21-8.12.62-12.7,1Zm-12.71,62.46v0l-.21,0c.62-9.78.83-19.78.83-30.19a46.13,46.13,0,0,1,5.2-21.65c6.61-.93,12.4-1.5,17.49-1.75,28.06-1.49,34.5,6.36,36.44,14.66a14.89,14.89,0,0,1-2.08,12.49c-2.86,4.47-9,10.05-21.71,15.6a159.17,159.17,0,0,1-24.19,8.06C383.77,504.39,379.86,505.32,375.64,506.22ZM461.43,546H461c-32.69,0-56.42-12.7-65.59-35.19,23.53-6.66,38.73-15.82,45.19-26.23a25.57,25.57,0,0,0,3.33-19.78C441,452.09,431.65,445,415,443.34c11.86-7.7,27.48-11.66,46-11.66h.42c18.53,0,34.15,4,46,11.66-17.07,2.08-26.23,9-29.15,21.66a25.54,25.54,0,0,0,3.34,19.78c6.66,10.41,22.07,19.57,45.8,26.23C517.65,533.29,494.33,546,461.43,546Zm85.78-39.56c-4.51-1-8.68-2-12.55-3-6.57-1.73-12.27-3.53-17.17-5.36-17.37-6.44-25.15-13.09-28.16-18.26a14.89,14.89,0,0,1-2.08-12.49c1.95-7.65,7.59-15.05,30.64-14.93a176.56,176.56,0,0,1,23.91,2A46.13,46.13,0,0,1,547,476c0,10.41.21,20.82.42,30.4l-.21-.05Z"/><path class="a" d="M230.65,138.31c-52.26,0-94.74,32.06-94.74,71.62-.83,54.76-2.07,96.37-6.36,121.82l9.07,1.45c3.54-18.74,5.2-46.85,6-83.71,4-.83,7.7-1.45,11.24-2.49,10.2,26.65,37.27,42.05,74.75,42.05S294.78,273.86,305.4,247c3.54,1,7.29,1.66,11.24,2.49,0,.53,0,1,0,1.57.44,24.55,1.35,45.43,3.06,62.23.81,7.72,1.79,14.58,3,20.53l9.09-2.07c-4.73-24.82-6-66.72-6.38-121.82C325.39,170.37,282.91,138.31,230.65,138.31Zm-73.5,39.56.15-.17c14.88-17.64,41.51-29.78,72.07-30l.86,0c31,0,58.09,12.28,73.09,30.19h0c-4.57-.42-8.73-.83-12.68-1h0c-13.95-13.33-35-20.41-60.38-20.41a114.53,114.53,0,0,0-26.59,3c-2.72.64-5.35,1.4-7.89,2.26a78.71,78.71,0,0,0-7.36,2.89,68.63,68.63,0,0,0-10,5.48,61.7,61.7,0,0,0-8.58,6.83c-4,.21-8.12.62-12.7,1Zm-12.7,62.46v0l-.21,0c.62-9.78.83-19.78.83-30.19a46.14,46.14,0,0,1,5.21-21.65c6.61-.93,12.4-1.5,17.48-1.75,28.06-1.49,34.5,6.36,36.45,14.66a14.93,14.93,0,0,1-2.09,12.49c-2.85,4.47-9,10.05-21.7,15.6a159.17,159.17,0,0,1-24.19,8.06C152.57,238.5,148.67,239.43,144.45,240.33Zm85.78,39.77h-.41c-32.69,0-56.43-12.7-65.59-35.19,23.53-6.66,38.73-15.82,45.18-26.23a25.49,25.49,0,0,0,3.33-19.78c-2.91-12.7-12.28-19.78-28.94-21.45,11.87-7.7,27.48-11.66,46-11.66h.41c18.53,0,34.15,4,46,11.66-17.08,2.08-26.24,9-29.15,21.66a25.49,25.49,0,0,0,3.33,19.78c6.66,10.41,22.07,19.57,45.81,26.23C286.45,267.4,263.13,280.1,230.23,280.1ZM316,240.54c-4.51-1-8.68-2-12.56-3-6.57-1.73-12.26-3.53-17.17-5.36-17.37-6.44-25.14-13.09-28.16-18.26a14.89,14.89,0,0,1-2.08-12.49c1.95-7.65,7.6-15.05,30.65-14.93a176.56,176.56,0,0,1,23.9,2,46.14,46.14,0,0,1,5.21,21.65c0,10.41.21,20.82.41,30.4l-.2,0Z"/><path class="a" d="M230.23,249.7c8.31,0,24.67-5,24.77-16.56-.1-13.41-16.88-13.42-24.77-13.42-8.09,0-24.67,0-24.77,13.42C205.56,244.52,221.93,249.7,230.23,249.7Z"/><path class="a" d="M178.8,217.85a10.75,10.75,0,0,0,10.82-10.71c0-.38-.1-.75-.15-1.12a9.55,9.55,0,0,0-.18-1.07c-.07-.28-.18-.55-.27-.82s-.23-.74-.39-1.09a11.31,11.31,0,0,0-9.83-6.64,10.73,10.73,0,1,0,0,21.45Z"/><path class="a" d="M292.7,208.06v-.21A10.76,10.76,0,0,0,282,197,11.07,11.07,0,0,0,271,207.85c-.2,6,4.73,10.76,10.72,11A11.06,11.06,0,0,0,292.7,208.06Z"/><path class="a" d="M229.82,260.32c-23.74-.21-39.15-6.66-39.15-12.7H181.1c.08,5.19,3.3,12.35,17.07,17.07a97.73,97.73,0,0,0,32.06,4.58c22.39,0,48.69-5.37,48.92-21.44h-9.57C269.58,253.87,253.55,260.32,229.82,260.32Z"/><path class="a" d="M230.65-57.31c-52.26,0-94.74,32.07-94.74,71.63-.83,54.75-2.07,96.36-6.36,121.82l9.07,1.44c3.54-18.74,5.2-46.85,6-83.7,4-.84,7.7-1.46,11.24-2.5C166.1,78,193.17,93.44,230.65,93.44s64.13-15.2,74.75-42.06c3.54,1,7.29,1.66,11.24,2.5,0,.53,0,1,0,1.56.44,24.56,1.35,45.43,3.06,62.23.81,7.72,1.79,14.58,3,20.53l9.09-2.06c-4.73-24.83-6-66.72-6.38-121.82C325.39-25.24,282.91-57.31,230.65-57.31Zm-73.5,39.56.15-.16c14.88-17.65,41.51-29.78,72.07-30l.86,0c31,0,58.09,12.28,73.09,30.19h0c-4.57-.41-8.73-.83-12.68-1h0c-13.95-13.33-35-20.4-60.38-20.4a114.55,114.55,0,0,0-26.59,2.94q-4.08,1-7.89,2.26a78.71,78.71,0,0,0-7.36,2.89,70.59,70.59,0,0,0-10,5.48,61.7,61.7,0,0,0-8.58,6.83c-4,.21-8.12.62-12.7,1Zm-12.7,62.47v0l-.21,0c.62-9.79.83-19.78.83-30.2a46.14,46.14,0,0,1,5.21-21.65c6.61-.93,12.4-1.49,17.48-1.75,28.06-1.48,34.5,6.36,36.45,14.66a14.93,14.93,0,0,1-2.09,12.49c-2.85,4.47-9,10.05-21.7,15.6a159.17,159.17,0,0,1-24.19,8.06C152.57,42.88,148.67,43.81,144.45,44.72Zm85.78,39.76h-.41c-32.69,0-56.43-12.7-65.59-35.18,23.53-6.67,38.73-15.83,45.18-26.24a25.49,25.49,0,0,0,3.33-19.78c-2.91-12.7-12.28-19.78-28.94-21.45,11.87-7.7,27.48-11.66,46-11.66h.41c18.53,0,34.15,4,46,11.66-17.08,2.09-26.24,9-29.15,21.66a25.49,25.49,0,0,0,3.33,19.78c6.66,10.41,22.07,19.57,45.81,26.23C286.45,71.78,263.13,84.48,230.23,84.48ZM316,44.92c-4.51-1-8.68-2-12.56-3-6.57-1.74-12.26-3.54-17.17-5.37-17.37-6.43-25.14-13.09-28.16-18.26a14.89,14.89,0,0,1-2.08-12.49c1.95-7.65,7.6-15,30.65-14.93a176.56,176.56,0,0,1,23.9,2,46.14,46.14,0,0,1,5.21,21.65c0,10.42.21,20.83.41,30.4l-.2,0Z"/><path class="a" d="M230.23,54.09c8.31,0,24.67-5,24.77-16.56-.1-13.42-16.88-13.43-24.77-13.43-8.09,0-24.67,0-24.77,13.43C205.56,48.91,221.93,54.09,230.23,54.09Z"/><path class="a" d="M178.8,22.23a10.75,10.75,0,0,0,10.82-10.71c0-.38-.1-.74-.15-1.12a9.55,9.55,0,0,0-.18-1.07c-.07-.28-.18-.54-.27-.82s-.23-.74-.39-1.09A11.33,11.33,0,0,0,178.8.78a10.73,10.73,0,1,0,0,21.45Z"/><path class="a" d="M292.7,12.44v-.21A10.74,10.74,0,0,0,282,1.42,11.06,11.06,0,0,0,271,12.23c-.2,6,4.73,10.77,10.72,11A11.06,11.06,0,0,0,292.7,12.44Z"/><path class="a" d="M229.82,64.7C206.08,64.5,190.67,58,190.67,52H181.1c.08,5.19,3.3,12.35,17.07,17.08a98,98,0,0,0,32.06,4.58c22.39,0,48.69-5.37,48.92-21.45h-9.57C269.58,58.25,253.55,64.7,229.82,64.7Z"/><path class="a" d="M230.65,333.93c-52.26,0-94.74,32.06-94.74,71.62-.83,54.75-2.07,96.36-6.36,121.82l9.07,1.44c3.54-18.74,5.2-46.84,6-83.7,4-.83,7.7-1.46,11.24-2.5,10.2,26.65,37.27,42.06,74.75,42.06s64.13-15.2,74.75-42.06c3.54,1,7.29,1.67,11.24,2.5,0,.53,0,1,0,1.57.44,24.55,1.35,45.42,3.06,62.22.81,7.73,1.79,14.59,3,20.54l9.09-2.07c-4.73-24.82-6-66.72-6.38-121.82C325.39,366,282.91,333.93,230.65,333.93Zm-73.5,39.56.15-.17c14.88-17.65,41.51-29.78,72.07-30,.29,0,.57,0,.86,0,31,0,58.09,12.29,73.09,30.2h0c-4.57-.42-8.73-.84-12.68-1h0c-13.95-13.32-35-20.4-60.38-20.4A115.09,115.09,0,0,0,203.64,355q-4.08,1-7.89,2.27a78.67,78.67,0,0,0-7.36,2.88,70.59,70.59,0,0,0-10,5.48,63.21,63.21,0,0,0-8.58,6.83c-4,.21-8.12.63-12.7,1.05ZM144.45,436v-.05l-.21.05c.62-9.79.83-19.78.83-30.19a46.18,46.18,0,0,1,5.21-21.66c6.61-.93,12.4-1.49,17.48-1.74,28.06-1.49,34.5,6.36,36.45,14.65a15,15,0,0,1-2.09,12.5c-2.85,4.47-9,10.05-21.7,15.59a158,158,0,0,1-24.19,8.07C152.57,434.12,148.67,435.05,144.45,436Zm85.78,39.77h-.41c-32.69,0-56.43-12.7-65.59-35.19,23.53-6.66,38.73-15.82,45.18-26.23a25.49,25.49,0,0,0,3.33-19.78c-2.91-12.71-12.28-19.78-28.94-21.45,11.87-7.7,27.48-11.66,46-11.66h.41c18.53,0,34.15,4,46,11.66C259.17,375.15,250,382,247.1,394.72a25.48,25.48,0,0,0,3.33,19.78c6.66,10.41,22.07,19.58,45.81,26.24C286.45,463,263.13,475.72,230.23,475.72ZM316,436.16c-4.51-1-8.68-2-12.56-3-6.57-1.73-12.26-3.54-17.17-5.37-17.37-6.43-25.14-13.08-28.16-18.25a14.91,14.91,0,0,1-2.08-12.5c1.95-7.64,7.6-15,30.65-14.92a176.33,176.33,0,0,1,23.9,2,46.18,46.18,0,0,1,5.21,21.66c0,10.41.21,20.82.41,30.4l-.2-.05Z"/><path class="a" d="M230.23,445.32c8.31,0,24.67-5,24.77-16.56-.1-13.42-16.88-13.42-24.77-13.42-8.09,0-24.67,0-24.77,13.42C205.56,440.14,221.93,445.32,230.23,445.32Z"/><path class="a" d="M178.8,413.46a10.74,10.74,0,0,0,10.82-10.7c0-.39-.1-.75-.15-1.12a9.18,9.18,0,0,0-.18-1.07c-.07-.29-.18-.55-.27-.82s-.23-.75-.39-1.1A11.32,11.32,0,0,0,178.8,392a10.72,10.72,0,1,0,0,21.44Z"/><path class="a" d="M292.7,403.68v-.21A10.76,10.76,0,0,0,282,392.65,11.07,11.07,0,0,0,271,403.47c-.2,6,4.73,10.76,10.72,11A11.06,11.06,0,0,0,292.7,403.68Z"/><path class="a" d="M229.82,455.94c-23.74-.21-39.15-6.66-39.15-12.7H181.1c.08,5.19,3.3,12.34,17.07,17.07a98,98,0,0,0,32.06,4.58c22.39,0,48.69-5.37,48.92-21.44h-9.57C269.58,449.48,253.55,455.94,229.82,455.94Z"/></svg>