<svg xmlns="http://www.w3.org/2000/svg" viewBox="0 0 40 40"><defs><style>.a{fill:#727d84;}.b{fill:#fff;}</style></defs><rect class="a" width="40" height="40"/><path class="b" d="M27.7,11.6a5.9,5.9,0,0,0-2.2-1.9,6,6,0,0,0-3-.7h-11v1.8H22a5.7,5.7,0,0,1,2.4.5,3.2,3.2,0,0,1,2.1,3.1,4.1,4.1,0,0,1-.5,1.9,3.5,3.5,0,0,1-1.4,1.3,5.2,5.2,0,0,1-2.3.5H17.7a2.5,2.5,0,0,0-1.9.6,2.9,2.9,0,0,0-.5,1.9v3.9h1.9V21.2c0-.4,0-.7.2-.9a1.3,1.3,0,0,1,1-.4h3.9a6.6,6.6,0,0,0,3.2-.7,4.6,4.6,0,0,0,2.2-1.9,6,6,0,0,0,.8-2.9A5.4,5.4,0,0,0,27.7,11.6Z"/><path class="b" d="M15,28.5V31h2.5V28.5Z"/></svg>